<?xml version="1.0" encoding="iso-8859-1"?>
<!-- Generator: Adobe Illustrator 18.1.1, SVG Export Plug-In . SVG Version: 6.00 Build 0)  -->
<svg version="1.1" id="Layer_1" xmlns="http://www.w3.org/2000/svg" xmlns:xlink="http://www.w3.org/1999/xlink" x="0px" y="0px"
	 viewBox="0 0 100 100" style="enable-background:new 0 0 100 100;" xml:space="preserve">
<g>
	<path style="fill-rule:evenodd;clip-rule:evenodd;" d="M98.55,37.887c0.277,0.354,0.822,0.568,0.9,1.166
		c0.087,0.676,0.035,1.318-0.376,1.891c-0.043,0.059-0.12,0.113-0.127,0.174c-0.138,1.262-0.994,1.945-2.022,2.46
		c-0.775,0.387-1.019,1.086-1.217,1.833c-0.237,0.892-0.481,1.781-0.7,2.676c-0.098,0.404-0.118,0.827-0.212,1.232
		c-0.22,0.927-0.458,1.849-0.7,2.769c-0.122,0.471-0.249,0.941-0.406,1.4c-0.201,0.58-0.438,1.148-0.655,1.723
		c-0.053,0.141-0.086,0.286-0.127,0.428c0.168,0.031,0.335,0.07,0.504,0.092c0.127,0.018,0.352-0.018,0.369,0.028
		c0.058,0.162,0.121,0.402,0.042,0.517c-0.184,0.268-0.447,0.481-0.682,0.711c-0.041,0.041-0.116,0.057-0.139,0.102
		c-0.487,0.949-1.394,1.443-2.198,2.053c-0.137,0.104-0.204,0.29-0.331,0.411c-0.335,0.317-0.683,0.62-1.079,0.977
		c-0.198-0.45-0.073-0.766,0.016-1.104c0.13-0.489,0.192-0.996,0.264-1.499c0.008-0.044-0.115-0.155-0.173-0.152
		c-0.12,0.009-0.301,0.038-0.342,0.118c-0.073,0.145-0.052,0.334-0.089,0.5c-0.026,0.115-0.055,0.287-0.132,0.32
		c-0.092,0.037-0.248-0.021-0.351-0.08c-0.364-0.207-0.702-0.466-1.079-0.641c-0.493-0.23-0.899-0.921-0.695-1.411
		c0.383-0.93,0.872-1.817,1.221-2.759c0.321-0.865,0.528-1.772,0.761-2.668c0.151-0.58,0.271-1.168,0.387-1.756
		c0.167-0.862,0.333-1.724,0.469-2.59c0.053-0.333-0.165-0.466-0.496-0.391c-1.213,0.278-2.412,0.19-3.601-0.151
		c-0.151-0.043-0.316-0.038-0.472-0.07c-0.673-0.14-1.221-0.49-1.708-0.971c-0.411-0.406-0.712-0.826-0.792-1.439
		c-0.042-0.313-0.371-0.608-0.614-0.871c-0.557-0.601-1.212-1.121-1.499-1.931c-0.437-1.23-0.626-2.498-0.249-3.759
		c0.343-1.147,1.078-2.057,2.077-2.734c0.871-0.591,1.779-1.103,2.816-1.359c0.862-0.214,1.742-0.388,2.579-0.678
		c0.978-0.337,1.942-0.24,2.932-0.152c0.751,0.066,1.51,0.012,2.263,0.051c0.674,0.034,1.319,0.117,1.899,0.577
		c0.434,0.342,1.012,0.493,1.507,0.764c0.799,0.436,1.369,1.107,1.862,1.86c0.092,0.14,0.27,0.268,0.432,0.307
		c0.281,0.069,0.385,0.23,0.334,0.477C98.818,36.832,98.685,37.326,98.55,37.887z M88.538,36.948
		c-0.5,0.021-1.094-0.171-1.454,0.471c-0.29,0.519-0.586,1.044-0.954,1.508c-0.262,0.329-0.441,0.627-0.276,1.034
		c0.141,0.347,0.219,0.801,0.482,0.999c0.64,0.483,1.339,0.927,2.077,1.232c0.653,0.27,1.391,0.353,2.099,0.47
		c0.138,0.023,0.37-0.147,0.46-0.29c0.336-0.519,0.208-1.273,0.835-1.653c0.037-0.022,0.027-0.113,0.055-0.163
		c0.201-0.372,0.379-0.761,0.619-1.106c0.278-0.395,0.272-0.599-0.159-0.851c-0.313-0.183-0.709-0.271-0.955-0.515
		c-0.316-0.31-0.637-0.504-1.064-0.605C89.718,37.34,89.15,37.136,88.538,36.948z M89.016,34.195
		c-0.966-0.14-1.681-0.158-2.85,1.125c-0.644,0.706-0.994,1.521-0.822,2.636C86.466,36.529,87.535,35.2,89.016,34.195z"/>
</g>
<g>
	<path style="fill-rule:evenodd;clip-rule:evenodd;" d="M71.285,59.249c0.061-2.042,0.085-3.99,0.186-5.93
		c0.08-1.556,0.268-3.099,0.372-4.652c0.042-0.629,0-1.272-0.026-1.907c-0.038-0.92-0.102-1.838-0.147-2.757
		c-0.038-0.763-0.028-1.533-0.107-2.286c-0.085-0.799-0.249-1.581-0.38-2.369c-0.009-0.062-0.042-0.128-0.035-0.184
		c0.158-1.177-0.413-1.989-0.802-2.85c-0.23-0.513-0.481-0.956-0.414-1.579c0.031-0.292,0.089-0.612,0.208-0.848
		c0.411-0.817,0.604-1.924,1.447-2.192c0.021-0.006,0.038-0.037,0.056-0.055c0.576-0.574,0.783-0.517,1.24,0.184
		c0.531,0.814,0.697,1.857,0.985,2.826c0.078,0.262,0.126,0.542,0.196,0.809c0.018,0.07,0.06,0.15,0.106,0.181
		c0.449,0.309,0.894,0.64,1.36,0.899c0.355,0.198,0.738,0.298,1.107,0.451c0.66,0.275,1.142,0.726,1.197,1.829
		c0.052,1.022,0.078,2.024-0.075,3.03c-0.032,0.21,0.027,0.45-0.009,0.657c-0.146,0.815-0.311,1.624-0.47,2.435
		c-0.167,0.846-0.325,1.696-0.505,2.539c-0.08,0.376-0.197,0.737-0.299,1.106c-0.016,0.059-0.04,0.118-0.047,0.179
		c-0.141,1.342-0.32,2.679-0.407,4.029c-0.104,1.633-0.132,3.274-0.185,4.912c-0.035,1.062-0.05,2.127-0.084,3.189
		c-0.02,0.627-0.641,1.236-1.193,1.146c-0.424-0.069-0.811,0.055-1.211,0.236c-0.405,0.184-0.779,0.16-1.235-0.066
		c-0.767-0.383-0.59-1.271-0.768-1.964C71.262,59.916,71.299,59.521,71.285,59.249z"/>
</g>
<path style="fill-rule:evenodd;clip-rule:evenodd;" d="M47.882,68.648c0.349,0.209,0.569,0.057,0.712-0.189
	c0.21-0.367,0.371-0.763,0.57-1.137c0.104-0.196,0.236-0.381,0.374-0.557c0.658-0.835,0.966-1.854,1.45-2.779
	c0.338-0.646,0.611-1.33,0.906-1.999c0.033-0.073,0.059-0.18,0.031-0.249c-0.222-0.562,0.072-1.008,0.309-1.474
	c0.241-0.472,0.455-0.956,0.685-1.433c0.318-0.664,0.646-1.321,0.96-1.986c0.179-0.377,0.326-0.768,0.508-1.141
	c0.21-0.434,0.461-0.845,0.656-1.282c0.17-0.388,0.266-0.808,0.433-1.196c0.395-0.916,0.642-1.875,0.834-2.849
	c0.051-0.268,0.083-0.55,0.057-0.819c-0.021-0.216-0.165-0.353-0.405-0.17c-0.375,0.282-0.764,0.547-1.133,0.833
	c-0.842,0.65-1.677,1.307-2.511,1.965c-0.5,0.395-0.985,0.805-1.493,1.187c-0.216,0.163-0.478,0.263-0.714,0.403
	c-0.352,0.207-0.692,0.436-1.05,0.631c-0.41,0.223-0.831,0.424-1.253,0.625c-0.459,0.219-0.921,0.436-1.389,0.636
	c-0.535,0.229-1.065,0.493-1.624,0.647c-1.05,0.289-2.39,0.053-3.109-0.927c-0.142-0.191-0.339-0.355-0.539-0.488
	c-0.095-0.062-0.275-0.06-0.388-0.013c-0.845,0.349-1.676,0.732-2.523,1.07c-0.39,0.154-0.797,0.172-1.221,0.026
	c-0.377-0.129-0.785-0.181-1.182-0.254c-0.813-0.148-1.318-0.672-1.77-1.325c-0.529-0.765-0.854-1.615-1.198-2.462
	c-0.037-0.088-0.087-0.177-0.151-0.245c-0.154-0.16-0.32-0.219-0.477,0.004c-0.043,0.061-0.092,0.119-0.131,0.183
	c-0.281,0.471-0.564,0.942-0.843,1.415c-0.164,0.278-0.27,0.612-0.488,0.836c-0.445,0.451-0.802,1.022-1.493,1.188
	c-0.253,0.06-0.482,0.221-0.712,0.355c-0.593,0.345-1.21,0.623-1.85,0.881c-0.987,0.398-1.976,0.469-3.006,0.325
	c-0.336-0.046-0.558,0.153-0.781,0.361c-0.428,0.402-0.897,0.726-1.508,0.804c-0.43,0.054-0.853,0.154-1.278,0.24
	c-0.392,0.082-0.65-0.02-0.853-0.407c-0.409-0.784-0.875-1.54-1.324-2.304c-0.143-0.244-0.273-0.508-0.465-0.713
	c-0.327-0.349-0.664-0.254-0.768,0.207c-0.092,0.404-0.15,0.818-0.213,1.23c-0.101,0.648-0.347,1.177-1.033,1.41
	c-0.521,0.179-1.014,0.453-1.543,0.592c-0.331,0.086-0.711,0.031-1.061-0.012c-0.389-0.051-0.768-0.188-1.157-0.236
	c-0.872-0.109-1.749-0.171-2.622-0.281c-0.589-0.073-1.219-0.094-1.753-0.319c-0.745-0.314-1.539-0.31-2.289-0.537
	c-0.576-0.175-1.101-0.44-1.563-0.84c-0.276-0.239-0.628-0.394-0.914-0.622c-0.358-0.292-0.749-0.578-1.014-0.948
	c-0.328-0.46-0.579-0.987-0.793-1.515c-0.142-0.35-0.181-0.746-0.227-1.126c-0.146-1.203,0.08-2.336,0.691-3.387
	c0.247-0.422,0.483-0.851,0.749-1.261c0.12-0.185,0.289-0.338,0.447-0.494c0.449-0.45,0.893-0.911,1.365-1.335
	c0.424-0.381,0.911-0.693,1.328-1.081c0.83-0.773,1.784-1.372,2.721-2c0.555-0.373,1.062-0.824,1.637-1.162
	c0.854-0.5,1.748-0.933,2.626-1.392c0.209-0.107,0.436-0.182,0.63-0.31c0.115-0.076,0.241-0.218,0.26-0.344
	c0.075-0.547,0.07-1.108,0.177-1.648c0.155-0.789,0.367-1.568,0.583-2.345c0.121-0.44,0.279-0.874,0.454-1.296
	c0.229-0.559,0.501-1.1,0.735-1.657c0.174-0.409,0.279-0.85,0.477-1.243c0.452-0.894,0.929-1.776,1.421-2.648
	c0.321-0.569,0.653-1.137,1.041-1.662c0.299-0.406,0.691-0.742,1.041-1.109c0.21-0.221,0.388-0.491,0.636-0.651
	c0.812-0.519,1.648-0.999,2.476-1.491c0.064-0.039,0.144-0.056,0.196-0.106c0.335-0.317,0.733-0.3,1.055-0.068
	c0.326,0.235,0.441,0.637,0.433,1.057c-0.018,0.796-0.06,1.595-0.028,2.39c0.03,0.711,0.146,1.419,0.222,2.128
	c0.047,0.421-0.003,0.811-0.185,1.214c-0.14,0.308-0.109,0.69-0.178,1.034c-0.059,0.298-0.157,0.586-0.228,0.882
	c-0.072,0.301-0.114,0.608-0.202,0.905c-0.074,0.25-0.208,0.482-0.286,0.731c-0.067,0.216-0.101,0.443-0.136,0.667
	c-0.034,0.205,0.008,0.442-0.082,0.614c-0.463,0.903-0.698,1.869-0.861,2.86c-0.022,0.135-0.087,0.262-0.111,0.397
	c-0.05,0.274-0.082,0.552-0.124,0.827c-0.023,0.146-0.041,0.293-0.071,0.437c-0.086,0.396-0.211,0.788-0.25,1.188
	c-0.023,0.216,0.073,0.459,0.165,0.67c0.114,0.261,0.286,0.499,0.422,0.752c0.304,0.571,0.144,1.592-0.253,2.108
	c-0.256,0.335-0.564,0.556-0.953,0.641c-0.603,0.133-0.859,0.569-1.083,1.076c-0.275,0.624-0.169,1.221,0.076,1.812
	c0.286,0.691,0.574,1.382,0.894,2.057c0.227,0.476,0.506,0.924,0.762,1.386c0.041-0.001,0.081-0.001,0.121-0.002
	c0.082-0.23,0.171-0.46,0.246-0.693c0.215-0.67,0.379-1.36,0.647-2.007c0.271-0.653,0.649-1.26,0.966-1.894
	c0.187-0.372,0.293-0.794,0.527-1.127c0.646-0.914,1.055-1.979,1.9-2.776c0.719-0.675,1.481-1.257,2.323-1.758
	c0.474-0.282,0.919-0.616,1.371-0.935c0.725-0.512,1.538-0.816,2.396-1.015c0.292-0.068,0.586-0.142,0.882-0.154
	c0.545-0.022,0.833,0.215,1.069,0.705c0.194,0.406,0.279,0.812,0.273,1.262c-0.008,0.489,0.249,0.646,0.715,0.491
	c0.654-0.218,0.872-0.097,0.98,0.597c0.076,0.493,0.1,0.994,0.17,1.487c0.098,0.669,0.221,1.336,0.329,2.005
	c0.148,0.91,0.282,1.824,0.447,2.73c0.048,0.256,0.239,0.489,0.271,0.745c0.117,0.956,0.588,1.791,0.919,2.667
	c0.273,0.723,0.815,1.294,1.488,1.71c0.026,0.017,0.058,0.028,0.084,0.045c0.602,0.381,0.86,0.385,1.346-0.139
	c0.568-0.616,0.946-1.34,1.1-2.191c0.116-0.657,0.33-1.3,0.529-1.94c0.216-0.691,0.473-1.369,0.697-2.057
	c0.135-0.415,0.241-0.839,0.36-1.258c0.016-0.051,0.022-0.107,0.048-0.153c0.384-0.673,0.518-1.435,0.771-2.156
	c0.211-0.6,0.706-0.958,1.229-1.276c0.444-0.27,0.886-0.547,1.333-0.816c0.234-0.142,0.463-0.297,0.713-0.403
	c0.459-0.195,0.898,0.064,1.038,0.55c0.12,0.417,0.118,0.812-0.004,1.227c-0.076,0.253-0.053,0.534-0.119,0.79
	c-0.137,0.514-0.296,1.021-0.458,1.525c-0.258,0.8-0.517,1.599-0.795,2.392c-0.078,0.228-0.215,0.439-0.343,0.649
	c-0.464,0.765-0.964,1.509-1.396,2.292c-0.288,0.525-0.387,1.105-0.091,1.688c0.516,1.012,0.57,0.725,1.806,0.607
	c0.413-0.039,0.817-0.215,1.22-0.348c0.632-0.207,1.076-0.695,1.59-1.078c0.424-0.318,0.861-0.62,1.293-0.928
	c0.215-0.154,0.437-0.302,0.646-0.463c0.634-0.483,1.248-0.989,1.894-1.456c1.146-0.828,2.29-1.661,3.467-2.443
	c0.672-0.446,1.401-0.811,2.12-1.18c0.218-0.11,0.826,0.401,1.076,0.387c0.221-0.012,2.477,1.58,2.447,1.788
	c-0.034,0.239-0.109,0.474-0.167,0.71c-0.073,0.306-0.127,0.618-0.222,0.917c-0.165,0.517-0.349,1.029-0.535,1.539
	c-0.143,0.386-0.289,0.771-0.459,1.146c-0.214,0.475-0.438,0.945-0.684,1.404c-0.279,0.522-0.605,1.018-0.875,1.545
	c-0.233,0.451-0.39,0.942-0.626,1.393c-0.712,1.357-1.448,2.701-2.17,4.055c-0.12,0.225-0.197,0.473-0.314,0.699
	c-0.142,0.272-0.308,0.533-0.458,0.801c-0.402,0.713-0.805,1.426-1.201,2.142c-0.216,0.389-0.453,0.771-0.617,1.184
	c-0.248,0.623-0.527,1.211-0.943,1.75c-0.273,0.356-0.396,0.822-0.614,1.225c-0.291,0.541-0.628,1.059-0.912,1.605
	c-0.181,0.347-0.293,0.729-0.446,1.091c-0.508,1.209-1.02,2.416-1.531,3.623c-0.411,0.968-0.789,1.954-1.257,2.893
	c-0.173,0.349-0.526,0.643-0.861,0.867c-0.813,0.545-3.487,0.099-4.331,0.596c-0.114,0.066-0.312,0.068-0.433,0.016
	c-0.066-0.029-0.106-0.258-0.067-0.36c0.092-0.243,0.188-0.523,0.374-0.688c0.699-0.624,1.09-1.437,1.469-2.262
	c0.533-1.16,1.054-2.327,1.581-3.49c0.227-0.5,0.438-1.01,0.689-1.5C47.441,69.28,47.666,68.985,47.882,68.648z M12.143,54.9
	c0.193-0.115,0.442-0.18,0.546-0.339c0.279-0.424,0.521-0.878,0.735-1.341c0.217-0.459,0.385-0.943,0.568-1.418
	c0.237-0.609,0.575-1.173,0.691-1.839c0.102-0.589,0.035-1.138-0.113-1.694c-0.076-0.286-0.149-0.573-0.232-0.857
	c-0.058-0.202-0.074-0.446-0.2-0.595c-0.514-0.608-0.56-1.397-0.847-2.088c-0.205-0.494-0.26-1.049-0.419-1.565
	c-0.202-0.652-0.233-0.653-0.818-0.335c-0.038,0.02-0.078,0.035-0.116,0.055c-0.469,0.247-0.954,0.468-1.4,0.75
	c-0.376,0.236-0.705,0.549-1.062,0.819c-0.245,0.188-0.481,0.403-0.758,0.53c-0.448,0.205-0.858,0.435-1.21,0.791
	c-0.388,0.392-0.843,0.718-1.22,1.118c-0.327,0.345-0.628,0.728-0.865,1.137c-0.286,0.493-0.578,1.011-0.714,1.556
	c-0.199,0.792,0.197,1.477,0.67,2.085c0.658,0.845,1.548,1.409,2.506,1.835c0.795,0.356,1.634,0.617,2.465,0.891
	C10.923,54.586,11.514,54.725,12.143,54.9z M24.791,49.354c0.021,0.007,0.042,0.013,0.064,0.02c0.029,0.395,0.043,0.791,0.092,1.181
	c0.023,0.186,0.094,0.374,0.184,0.54c0.16,0.298,0.373,0.314,0.609,0.064c0.151-0.161,0.284-0.338,0.44-0.493
	c0.268-0.267,0.575-0.499,0.812-0.79c0.349-0.425,0.671-0.878,0.968-1.342c0.413-0.642,0.851-1.277,1.171-1.966
	c0.348-0.746,0.568-1.554,0.854-2.332c0.257-0.701,0.197-1.405,0.035-2.107c-0.023-0.102-0.182-0.244-0.276-0.243
	c-0.221,0.002-0.472,0.03-0.651,0.141c-0.238,0.145-0.428,0.371-0.621,0.579c-0.621,0.667-1.237,1.339-1.847,2.017
	c-0.089,0.1-0.137,0.237-0.198,0.361c-0.075,0.15-0.139,0.306-0.215,0.454c-0.217,0.413-0.479,0.806-0.648,1.238
	c-0.204,0.521-0.333,1.072-0.487,1.614C24.975,48.642,24.885,48.999,24.791,49.354z M29.813,49.777
	c-0.169,0.064-0.293,0.076-0.362,0.142c-0.503,0.496-1,1.001-1.493,1.509c-0.436,0.447-0.857,0.908-1.295,1.354
	c-0.296,0.301-0.284,0.542,0.067,0.788c0.148,0.104,0.301,0.206,0.461,0.288c0.332,0.168,0.653,0.238,0.939-0.112
	c0.111-0.138,0.296-0.214,0.415-0.347c0.147-0.161,0.299-0.336,0.384-0.531c0.179-0.416,0.342-0.845,0.462-1.281
	C29.549,51.025,29.66,50.45,29.813,49.777z M17.256,37.676c-0.01,0.001-0.02,0.002-0.027,0.002c0.021,0.167-0.004,0.361,0.073,0.494
	c0.074,0.123,0.249,0.229,0.392,0.251c0.091,0.014,0.276-0.122,0.302-0.22c0.217-0.831,0.411-1.668,0.603-2.504
	c0.016-0.067-0.014-0.188-0.062-0.216c-0.055-0.033-0.168-0.013-0.232,0.025c-0.209,0.124-0.441,0.235-0.605,0.407
	c-0.163,0.169-0.319,0.395-0.363,0.618C17.262,36.905,17.279,37.295,17.256,37.676z"/>
</svg>
