<?xml version="1.0" encoding="iso-8859-1"?>
<!-- Generator: Adobe Illustrator 18.1.1, SVG Export Plug-In . SVG Version: 6.00 Build 0)  -->
<svg version="1.1" id="Layer_1" xmlns="http://www.w3.org/2000/svg" xmlns:xlink="http://www.w3.org/1999/xlink" x="0px" y="0px"
	 viewBox="0 0 100 100" style="enable-background:new 0 0 100 100;" xml:space="preserve">
<g>
	<path style="fill-rule:evenodd;clip-rule:evenodd;" d="M74.67,57.326c0.055-1.862,0.077-3.639,0.169-5.406
		c0.073-1.418,0.244-2.825,0.339-4.241c0.039-0.573,0-1.16-0.023-1.738c-0.035-0.839-0.093-1.676-0.135-2.514
		c-0.034-0.695-0.025-1.398-0.098-2.084c-0.078-0.728-0.227-1.44-0.346-2.16c-0.009-0.057-0.039-0.117-0.033-0.168
		c0.145-1.073-0.376-1.813-0.73-2.598c-0.21-0.468-0.439-0.872-0.378-1.439c0.028-0.268,0.081-0.559,0.19-0.774
		c0.375-0.745,0.551-1.754,1.318-1.999c0.02-0.006,0.035-0.033,0.052-0.05c0.524-0.522,0.714-0.472,1.131,0.168
		c0.484,0.742,0.636,1.693,0.897,2.576c0.071,0.239,0.115,0.494,0.18,0.738c0.017,0.063,0.054,0.136,0.097,0.166
		c0.41,0.281,0.815,0.583,1.24,0.82c0.323,0.18,0.673,0.271,1.01,0.411c0.603,0.25,1.041,0.662,1.092,1.668
		c0.048,0.931,0.071,1.845-0.069,2.762c-0.029,0.192,0.025,0.41-0.008,0.599c-0.132,0.744-0.283,1.48-0.428,2.22
		c-0.152,0.771-0.297,1.546-0.46,2.315c-0.073,0.343-0.181,0.672-0.274,1.008c-0.015,0.054-0.036,0.107-0.042,0.163
		c-0.128,1.224-0.293,2.443-0.371,3.673c-0.096,1.488-0.121,2.985-0.169,4.479c-0.031,0.969-0.045,1.94-0.076,2.908
		c-0.019,0.572-0.585,1.127-1.088,1.045c-0.387-0.063-0.739,0.051-1.105,0.216c-0.369,0.167-0.71,0.146-1.126-0.062
		c-0.699-0.349-0.538-1.158-0.7-1.79C74.648,57.934,74.682,57.574,74.67,57.326z"/>
</g>
<g>
	<path style="fill-rule:evenodd;clip-rule:evenodd;" d="M87.079,59.167c-0.171-0.098-0.345-0.19-0.512-0.294
		c-0.179-0.112-0.346-0.244-0.528-0.35c-0.126-0.072-0.271-0.115-0.407-0.167c-0.048-0.017-0.107-0.011-0.146-0.037
		c-0.355-0.241-0.715-0.479-1.059-0.734c-0.286-0.211-0.586-0.417-0.825-0.675c-0.282-0.305-0.597-0.629-0.737-1.004
		c-0.229-0.613-0.372-1.264-0.286-1.945c0.064-0.518,0.034-1.049,0.104-1.566c0.045-0.338-0.029-0.704,0.329-0.997
		c0.18-0.146,0.13-0.553,0.229-0.826c0.24-0.661,0.559-1.286,1.092-1.764c0.27-0.241,0.57-0.445,0.852-0.663
		c-0.201-0.582-0.908-0.879-0.808-1.6c-0.486-0.072-0.638-0.423-0.776-0.833c-0.111-0.329-0.349-0.61-0.49-0.93
		c-0.16-0.36-0.32-0.73-0.397-1.112c-0.097-0.479-0.12-0.975-0.153-1.465c-0.061-0.872,0.451-1.459,1.043-1.985
		c0.374-0.333,0.771-0.635,1.175-0.929c0.562-0.41,1.183-0.654,1.896-0.62c0.852,0.04,1.706,0.061,2.558,0.097
		c0.125,0.005,0.248,0.043,0.369,0.075c0.342,0.087,0.658,0.124,0.775-0.377c0.557,0.208,1.093,0.395,1.617,0.61
		c0.185,0.077,0.338,0.236,0.518,0.338c0.359,0.2,0.746,0.359,1.088,0.585c0.443,0.295,0.895,0.6,1.271,0.974
		c0.291,0.29,0.491,0.68,0.688,1.049c0.086,0.162,0.146,0.437,0.065,0.571c-0.236,0.399-0.008,0.698,0.138,1.013
		c0.307,0.657,0.611,1.309,0.463,2.066c-0.005,0.024-0.006,0.06,0.006,0.073c0.451,0.41,0.161,0.9,0.066,1.309
		c-0.083,0.348-0.425,0.636-0.684,0.993c0.201,0.256,0.206,0.58,0.008,0.939c-0.057,0.102,0.028,0.312,0.098,0.45
		c0.384,0.773,0.906,1.447,1.447,2.122c0.416,0.522,0.623,1.19,0.6,1.915c-0.027,0.777-0.136,1.506-0.484,2.22
		c-0.277,0.564-0.378,1.214-0.626,1.794c-0.335,0.781-0.841,1.404-1.732,1.637c-0.477,0.125-0.91,0.434-1.389,0.533
		c-0.675,0.143-1.374,0.164-2.063,0.24c-0.203,0.022-0.402,0.052-0.604,0.08c-1.115,0.154-2.152-0.238-3.221-0.432
		c-0.551-0.1-1.115-0.127-1.671-0.211c-1.114-0.172-2.109-0.63-3.015-1.289c-0.06-0.045-0.115-0.1-0.162-0.157
		c-0.069-0.086-0.128-0.179-0.177-0.294c1.254,1.172,2.845,1.412,4.417,1.697C87.051,59.25,87.065,59.209,87.079,59.167z
		 M92.361,51.377c-0.418,0.322-0.403,0.846-0.541,1.258c-0.132-0.107-0.25-0.201-0.367-0.298c-0.16-0.132-0.391-0.235-0.46-0.405
		c-0.105-0.266-0.103-0.576-0.151-0.908c-0.159,0.039-0.334,0.059-0.492,0.123c-0.685,0.273-1.307-0.012-1.942-0.191
		c-0.099-0.028-0.255-0.048-0.313,0.006c-0.282,0.258-0.696,0.451-0.544,0.967c0.023,0.076-0.068,0.184-0.096,0.278
		c-0.048,0.167-0.113,0.333-0.127,0.503c-0.076,0.957,0.16,1.875,0.461,2.761c0.103,0.306,0.233,0.753,0.696,0.813
		c1.115,0.143,2.23,0.283,3.35,0.406c0.685,0.073,0.696,0.006,1.05-0.568c0.161-0.258,0.108-0.495,0.159-0.74
		c0.085-0.396,0.219-0.782,0.3-1.18c0.065-0.32,0.109-0.652,0.118-0.979c0.009-0.318,0.047-0.679-0.081-0.949
		C93.184,51.861,92.866,51.503,92.361,51.377z M89.99,42.966c-0.31,0.131-0.573,0.345-0.728,0.284
		c-0.264-0.105-0.386,0.029-0.515,0.152c-0.366,0.348-0.435,0.881-0.14,1.29c0.543,0.75,1.371,1.072,2.201,1.371
		c0.041,0.015,0.223-0.163,0.21-0.231c-0.055-0.326-0.085-0.637,0.063-0.95c0.039-0.081,0.006-0.196,0.008-0.296
		C91.095,43.719,90.497,43.295,89.99,42.966z"/>
</g>
<path style="fill-rule:evenodd;clip-rule:evenodd;" d="M49.522,68.623c0.349,0.208,0.569,0.056,0.712-0.189
	c0.21-0.368,0.371-0.764,0.57-1.137c0.104-0.197,0.236-0.381,0.374-0.557c0.658-0.836,0.966-1.853,1.45-2.779
	c0.338-0.648,0.611-1.33,0.906-2c0.033-0.074,0.059-0.18,0.031-0.249c-0.222-0.562,0.072-1.007,0.309-1.474
	c0.241-0.472,0.455-0.955,0.686-1.432c0.318-0.664,0.646-1.322,0.96-1.987c0.179-0.376,0.326-0.767,0.508-1.142
	c0.21-0.432,0.461-0.844,0.656-1.281c0.17-0.387,0.266-0.808,0.433-1.195c0.395-0.918,0.643-1.875,0.834-2.85
	c0.051-0.268,0.083-0.549,0.057-0.819c-0.021-0.216-0.165-0.352-0.405-0.17c-0.375,0.282-0.764,0.547-1.133,0.833
	c-0.842,0.65-1.677,1.308-2.511,1.966c-0.5,0.393-0.985,0.805-1.493,1.186c-0.216,0.162-0.478,0.264-0.714,0.402
	c-0.352,0.208-0.692,0.438-1.05,0.632c-0.41,0.224-0.831,0.425-1.253,0.624c-0.459,0.221-0.921,0.437-1.389,0.637
	c-0.535,0.23-1.065,0.493-1.624,0.646c-1.05,0.291-2.39,0.053-3.109-0.925c-0.142-0.192-0.339-0.356-0.539-0.489
	c-0.095-0.062-0.275-0.059-0.388-0.013c-0.845,0.349-1.676,0.732-2.523,1.069c-0.39,0.154-0.797,0.173-1.221,0.027
	c-0.377-0.129-0.785-0.181-1.182-0.254c-0.814-0.149-1.318-0.672-1.77-1.324c-0.529-0.766-0.854-1.615-1.198-2.463
	c-0.037-0.088-0.087-0.177-0.151-0.244c-0.154-0.162-0.32-0.22-0.477,0.002c-0.043,0.062-0.092,0.121-0.131,0.185
	c-0.281,0.47-0.564,0.94-0.843,1.414c-0.164,0.278-0.27,0.612-0.488,0.836c-0.445,0.452-0.802,1.022-1.493,1.188
	c-0.253,0.059-0.482,0.222-0.712,0.356c-0.593,0.344-1.21,0.621-1.85,0.88c-0.987,0.399-1.976,0.469-3.006,0.326
	c-0.336-0.048-0.558,0.151-0.781,0.36c-0.428,0.402-0.896,0.727-1.508,0.804c-0.43,0.054-0.853,0.153-1.278,0.241
	c-0.392,0.081-0.65-0.019-0.854-0.408c-0.409-0.784-0.875-1.539-1.324-2.303c-0.142-0.244-0.273-0.51-0.465-0.713
	c-0.327-0.35-0.664-0.254-0.768,0.206c-0.092,0.405-0.15,0.819-0.213,1.23c-0.101,0.649-0.347,1.177-1.033,1.411
	c-0.521,0.178-1.014,0.452-1.543,0.592c-0.331,0.085-0.711,0.03-1.061-0.014c-0.389-0.049-0.768-0.187-1.157-0.235
	c-0.872-0.108-1.749-0.171-2.622-0.28c-0.589-0.074-1.219-0.096-1.753-0.32c-0.745-0.314-1.539-0.309-2.289-0.537
	c-0.576-0.176-1.101-0.439-1.563-0.84c-0.276-0.239-0.628-0.393-0.914-0.623c-0.358-0.291-0.749-0.577-1.014-0.947
	c-0.328-0.461-0.579-0.988-0.793-1.515c-0.142-0.349-0.181-0.745-0.227-1.126c-0.146-1.202,0.08-2.335,0.691-3.386
	c0.247-0.423,0.483-0.852,0.749-1.262c0.12-0.185,0.289-0.338,0.447-0.493c0.449-0.45,0.893-0.91,1.365-1.335
	c0.424-0.38,0.911-0.692,1.328-1.081c0.83-0.773,1.784-1.372,2.721-2c0.555-0.373,1.062-0.824,1.637-1.161
	c0.854-0.501,1.748-0.934,2.626-1.392c0.209-0.108,0.437-0.183,0.63-0.311c0.115-0.077,0.241-0.217,0.26-0.344
	c0.075-0.546,0.07-1.107,0.177-1.647c0.155-0.789,0.367-1.568,0.583-2.345c0.121-0.44,0.279-0.874,0.454-1.296
	c0.229-0.559,0.501-1.1,0.735-1.657c0.174-0.409,0.279-0.849,0.478-1.243c0.452-0.894,0.929-1.776,1.421-2.648
	c0.321-0.569,0.653-1.137,1.041-1.662c0.299-0.405,0.691-0.742,1.041-1.108c0.21-0.221,0.388-0.492,0.636-0.651
	c0.812-0.519,1.648-0.999,2.476-1.491c0.064-0.039,0.144-0.056,0.196-0.106c0.335-0.317,0.733-0.3,1.055-0.068
	c0.326,0.236,0.441,0.637,0.433,1.057c-0.018,0.797-0.06,1.595-0.028,2.39c0.03,0.712,0.146,1.419,0.222,2.128
	c0.047,0.422-0.003,0.812-0.186,1.215c-0.14,0.308-0.109,0.69-0.178,1.034c-0.059,0.297-0.157,0.586-0.228,0.881
	c-0.072,0.301-0.114,0.609-0.202,0.905c-0.074,0.25-0.208,0.482-0.286,0.731c-0.067,0.216-0.101,0.443-0.136,0.668
	c-0.034,0.204,0.008,0.442-0.082,0.613c-0.463,0.903-0.698,1.869-0.861,2.86c-0.021,0.134-0.087,0.262-0.111,0.396
	c-0.05,0.273-0.082,0.551-0.124,0.827c-0.023,0.146-0.041,0.292-0.071,0.436c-0.086,0.397-0.211,0.788-0.25,1.187
	c-0.022,0.217,0.073,0.461,0.165,0.67c0.114,0.262,0.286,0.499,0.422,0.753c0.304,0.57,0.144,1.591-0.253,2.106
	c-0.256,0.336-0.565,0.557-0.953,0.642c-0.603,0.133-0.859,0.569-1.083,1.076c-0.275,0.624-0.169,1.222,0.076,1.812
	c0.286,0.691,0.574,1.382,0.894,2.058c0.227,0.476,0.506,0.924,0.762,1.385c0.041,0,0.081-0.001,0.121-0.002
	c0.082-0.231,0.171-0.459,0.246-0.692c0.215-0.67,0.379-1.36,0.647-2.008c0.271-0.653,0.649-1.26,0.966-1.893
	c0.187-0.372,0.293-0.794,0.527-1.127c0.646-0.914,1.055-1.979,1.9-2.776c0.719-0.675,1.481-1.257,2.323-1.758
	c0.474-0.282,0.919-0.616,1.371-0.936c0.725-0.512,1.538-0.816,2.396-1.015c0.292-0.068,0.586-0.141,0.882-0.153
	c0.545-0.022,0.833,0.215,1.069,0.705c0.194,0.405,0.279,0.812,0.273,1.262c-0.008,0.488,0.249,0.645,0.715,0.49
	c0.654-0.218,0.872-0.097,0.98,0.597c0.076,0.493,0.1,0.994,0.17,1.487c0.098,0.67,0.221,1.336,0.329,2.005
	c0.148,0.91,0.282,1.824,0.447,2.73c0.048,0.256,0.239,0.49,0.271,0.745c0.117,0.956,0.588,1.791,0.919,2.667
	c0.273,0.723,0.815,1.295,1.488,1.711c0.026,0.016,0.058,0.027,0.084,0.045c0.602,0.381,0.86,0.385,1.346-0.14
	c0.568-0.616,0.946-1.339,1.1-2.19c0.116-0.657,0.33-1.3,0.529-1.94c0.216-0.691,0.473-1.369,0.697-2.057
	c0.135-0.415,0.241-0.838,0.36-1.258c0.016-0.051,0.022-0.107,0.048-0.152c0.384-0.674,0.518-1.436,0.771-2.156
	c0.211-0.601,0.706-0.958,1.229-1.276c0.444-0.271,0.886-0.547,1.333-0.816c0.234-0.141,0.463-0.296,0.713-0.403
	c0.459-0.195,0.898,0.064,1.038,0.55c0.12,0.417,0.118,0.812-0.004,1.226c-0.076,0.253-0.053,0.534-0.119,0.79
	c-0.137,0.513-0.296,1.02-0.458,1.526c-0.258,0.799-0.517,1.598-0.795,2.39c-0.078,0.229-0.215,0.44-0.343,0.65
	c-0.464,0.764-0.964,1.509-1.396,2.292c-0.288,0.526-0.387,1.104-0.091,1.688c0.516,1.012,0.57,0.726,1.806,0.608
	c0.413-0.04,0.817-0.216,1.22-0.348c0.632-0.208,1.076-0.695,1.59-1.079c0.424-0.318,0.861-0.62,1.293-0.928
	c0.215-0.154,0.437-0.301,0.646-0.462c0.634-0.483,1.248-0.989,1.894-1.456c1.146-0.828,2.29-1.661,3.467-2.443
	c0.672-0.445,1.401-0.81,2.12-1.179c0.218-0.11,0.826,0.4,1.076,0.386c0.221-0.012,2.477,1.58,2.447,1.788
	c-0.034,0.24-0.109,0.474-0.167,0.71c-0.073,0.306-0.127,0.618-0.222,0.917c-0.165,0.517-0.349,1.029-0.535,1.538
	c-0.143,0.387-0.289,0.772-0.459,1.146c-0.214,0.475-0.438,0.947-0.684,1.406c-0.279,0.521-0.605,1.018-0.875,1.543
	c-0.233,0.453-0.39,0.943-0.626,1.393c-0.712,1.359-1.448,2.703-2.17,4.057c-0.12,0.225-0.197,0.473-0.314,0.699
	c-0.142,0.272-0.308,0.532-0.458,0.8c-0.402,0.713-0.805,1.426-1.201,2.144c-0.216,0.389-0.453,0.771-0.617,1.183
	c-0.248,0.622-0.527,1.212-0.943,1.751c-0.274,0.354-0.396,0.822-0.614,1.225c-0.291,0.541-0.628,1.059-0.912,1.605
	c-0.181,0.346-0.293,0.729-0.446,1.09c-0.508,1.209-1.02,2.417-1.531,3.624c-0.411,0.968-0.789,1.954-1.257,2.894
	c-0.173,0.348-0.526,0.643-0.861,0.867c-0.813,0.544-3.487,0.098-4.331,0.595c-0.114,0.066-0.312,0.067-0.433,0.016
	c-0.066-0.029-0.106-0.257-0.067-0.36c0.092-0.242,0.188-0.523,0.374-0.688c0.699-0.625,1.09-1.438,1.469-2.262
	c0.533-1.16,1.054-2.328,1.581-3.49c0.226-0.501,0.438-1.01,0.689-1.501C49.082,69.254,49.307,68.959,49.522,68.623z M13.783,54.874
	c0.193-0.114,0.442-0.18,0.546-0.339c0.279-0.424,0.522-0.878,0.735-1.34c0.217-0.461,0.385-0.943,0.568-1.419
	c0.237-0.609,0.575-1.173,0.691-1.839c0.103-0.589,0.035-1.137-0.113-1.694c-0.076-0.286-0.149-0.573-0.232-0.856
	c-0.058-0.202-0.074-0.447-0.2-0.596c-0.514-0.607-0.56-1.395-0.847-2.088c-0.205-0.493-0.26-1.048-0.419-1.564
	c-0.202-0.652-0.233-0.653-0.818-0.336c-0.038,0.021-0.078,0.036-0.116,0.056c-0.469,0.248-0.954,0.468-1.4,0.75
	c-0.376,0.237-0.705,0.549-1.061,0.82c-0.245,0.188-0.481,0.403-0.758,0.53c-0.448,0.206-0.858,0.435-1.21,0.791
	c-0.388,0.392-0.843,0.718-1.22,1.119c-0.327,0.345-0.628,0.728-0.865,1.136c-0.286,0.493-0.578,1.011-0.714,1.556
	c-0.199,0.792,0.197,1.476,0.67,2.085c0.658,0.846,1.548,1.409,2.506,1.836c0.795,0.355,1.634,0.615,2.465,0.889
	C12.564,54.56,13.154,54.699,13.783,54.874z M26.432,49.328c0.021,0.007,0.042,0.013,0.064,0.02c0.029,0.394,0.043,0.79,0.092,1.18
	c0.023,0.186,0.094,0.374,0.184,0.541c0.16,0.297,0.373,0.312,0.609,0.064c0.151-0.162,0.284-0.339,0.439-0.494
	c0.268-0.267,0.575-0.498,0.812-0.789c0.349-0.425,0.671-0.878,0.968-1.342c0.413-0.643,0.851-1.277,1.171-1.966
	c0.348-0.747,0.568-1.554,0.854-2.332c0.257-0.701,0.197-1.405,0.035-2.107c-0.024-0.102-0.182-0.244-0.276-0.243
	c-0.221,0.002-0.472,0.029-0.651,0.141c-0.238,0.146-0.428,0.371-0.621,0.579c-0.621,0.668-1.237,1.34-1.847,2.017
	c-0.089,0.1-0.137,0.237-0.198,0.36c-0.075,0.15-0.139,0.306-0.215,0.454c-0.217,0.413-0.479,0.806-0.649,1.237
	c-0.204,0.521-0.333,1.073-0.487,1.614C26.615,48.615,26.525,48.973,26.432,49.328z M31.454,49.75
	c-0.169,0.064-0.293,0.076-0.362,0.143c-0.503,0.496-1,1-1.493,1.507c-0.436,0.448-0.857,0.908-1.295,1.355
	c-0.296,0.3-0.284,0.542,0.067,0.788c0.148,0.104,0.301,0.207,0.461,0.288c0.332,0.167,0.653,0.238,0.939-0.111
	c0.111-0.138,0.296-0.216,0.415-0.347c0.147-0.162,0.299-0.337,0.384-0.532c0.179-0.416,0.342-0.845,0.462-1.28
	C31.19,50.999,31.301,50.423,31.454,49.75z M18.896,37.65c-0.01,0.002-0.019,0.002-0.027,0.002c0.021,0.168-0.004,0.362,0.073,0.494
	c0.074,0.123,0.249,0.228,0.393,0.251c0.091,0.014,0.276-0.121,0.302-0.219c0.217-0.831,0.411-1.668,0.603-2.505
	c0.016-0.067-0.014-0.187-0.062-0.215c-0.055-0.033-0.168-0.013-0.232,0.025c-0.209,0.124-0.441,0.235-0.604,0.407
	c-0.163,0.17-0.319,0.395-0.363,0.618C18.902,36.878,18.92,37.268,18.896,37.65z"/>
</svg>
