<?xml version="1.0" encoding="iso-8859-1"?>
<!-- Generator: Adobe Illustrator 18.1.1, SVG Export Plug-In . SVG Version: 6.00 Build 0)  -->
<svg version="1.1" id="Layer_1" xmlns="http://www.w3.org/2000/svg" xmlns:xlink="http://www.w3.org/1999/xlink" x="0px" y="0px"
	 viewBox="0 0 100 100" style="enable-background:new 0 0 100 100;" xml:space="preserve">
<g>
	<path style="fill-rule:evenodd;clip-rule:evenodd;" d="M85.445,48.975c0.1,0.188,0.166,0.313,0.195,0.366
		c0.482-0.092,0.904-0.161,1.326-0.257c0.186-0.041,0.357-0.165,0.541-0.192c0.229-0.036,0.379,0.037,0.311,0.342
		c-0.035,0.161,0.047,0.352,0.074,0.526c0.041,0.012,0.082,0.023,0.125,0.037c0.068-0.112,0.152-0.218,0.193-0.336
		c0.121-0.341,0.219-0.688,0.326-1.028c0.078-0.242,0.27-0.279,0.482-0.248c0.217,0.034,0.465,0.024,0.492,0.342
		c0.029,0.286,0.121,0.572,0.105,0.854c-0.043,0.682,0.178,1.315,0.416,1.909c0.285,0.703,0.779,1.309,1.684,1.181
		c0.559-0.081,1.117-0.21,1.658-0.367c0.367-0.104,0.711-0.286,1.057-0.448c0.381-0.18,0.574-0.481,0.607-0.913
		c0.031-0.437,0.117-0.87,0.174-1.305c0.01-0.081-0.02-0.168-0.039-0.251c-0.074-0.291-0.141-0.585-0.229-0.871
		c-0.193-0.612-0.385-1.223-0.601-1.826c-0.149-0.404-0.361-0.785-0.508-1.189c-0.199-0.547-0.613-0.822-1.123-1.035
		c-0.336-0.139-0.623-0.392-0.945-0.561c-0.641-0.331-1.314-0.542-2.023-0.694c-0.777-0.168-1.545-0.071-2.311-0.065
		c-0.521,0.005-1.039,0.185-1.562,0.26c-0.299,0.041-0.605,0.036-0.906,0.022c-0.072-0.005-0.164-0.12-0.205-0.203
		c-0.096-0.201-0.121-0.451-0.258-0.611c-0.352-0.414-0.246-0.9-0.271-1.359c-0.037-0.667-0.031-1.336-0.035-2.005
		c-0.006-0.924-0.014-1.85,0.004-2.775c0.01-0.415,0.076-0.827,0.117-1.241c0.006-0.062,0.016-0.125,0.004-0.184
		c-0.107-0.603,0.145-0.918,0.736-0.95c0.18-0.011,0.359-0.068,0.529-0.126c0.322-0.111,0.641-0.238,0.957-0.362
		c0.047-0.016,0.105-0.03,0.131-0.064c0.471-0.709,1.32-0.674,1.99-0.963c0.703-0.302,1.486-0.194,2.248-0.048
		c0.77,0.148,1.553,0.227,2.324,0.359c0.453,0.079,0.896,0.279,1.348,0.295c0.609,0.023,1.01,0.501,1.564,0.61
		c0.326,0.064,0.656,0.093,0.98,0.164c0.189,0.042,0.377,0.114,0.541,0.215c0.066,0.042,0.113,0.209,0.088,0.293
		c-0.201,0.673-0.633,1.195-1.17,1.628c-0.291,0.232-0.402,0.59-0.225,0.953c0.043,0.091,0.078,0.232,0.037,0.312
		c-0.303,0.618-0.771,1.089-1.377,1.406c-0.166,0.086-0.393,0.097-0.584,0.074c-0.418-0.043-0.832-0.142-1.25-0.193
		c-0.328-0.041-0.67-0.017-0.996-0.072c-0.91-0.163-1.816-0.354-2.725-0.535c-0.256-0.051-0.383,0.044-0.369,0.311
		c0.002,0.014-0.002,0.024-0.002,0.039c0.004,0.845,0.029,0.857,0.865,0.781c1.369-0.122,2.697,0.072,3.99,0.533
		c0.049,0.017,0.094,0.037,0.137,0.064c1.148,0.715,2.27,1.471,3.014,2.643c0.318,0.501,0.523,1.082,0.896,1.531
		c0.414,0.499,0.564,1.088,0.799,1.654c0.088,0.214,0.105,0.456,0.152,0.686c0.01,0.047-0.016,0.109,0.006,0.144
		c0.406,0.699,0.58,1.478,0.609,2.256c0.031,0.816-0.033,1.651-0.182,2.457c-0.147,0.794-0.547,1.535-1.09,2.121
		c-0.73,0.786-1.635,1.364-2.666,1.728c-0.275,0.094-0.512,0.296-0.783,0.403c-0.93,0.364-1.91,0.5-2.902,0.518
		c-1.008,0.016-2.023,0.036-3.023-0.059c-1.316-0.124-2.584-0.505-3.672-1.289c-0.41-0.297-0.711-0.744-1.059-1.122
		c-0.096-0.105-0.195-0.212-0.277-0.33c-0.076-0.111-0.184-0.235-0.188-0.358c-0.027-1.057-0.02-2.103,0.941-2.843
		C84.938,49.498,85.17,49.236,85.445,48.975z"/>
</g>
<path style="fill-rule:evenodd;clip-rule:evenodd;" d="M47.795,67.862c0.349,0.208,0.569,0.055,0.712-0.189
	c0.21-0.368,0.372-0.763,0.57-1.137c0.104-0.196,0.236-0.381,0.373-0.557c0.659-0.836,0.966-1.854,1.45-2.779
	c0.339-0.648,0.611-1.33,0.908-1.999c0.033-0.074,0.057-0.18,0.031-0.25c-0.223-0.562,0.07-1.007,0.309-1.474
	c0.24-0.471,0.455-0.955,0.684-1.432c0.32-0.665,0.648-1.321,0.961-1.986c0.178-0.377,0.326-0.768,0.508-1.142
	c0.209-0.432,0.461-0.844,0.656-1.281c0.17-0.388,0.264-0.809,0.432-1.196c0.396-0.917,0.645-1.875,0.834-2.849
	c0.053-0.269,0.084-0.55,0.059-0.819c-0.021-0.216-0.166-0.353-0.406-0.171c-0.375,0.282-0.764,0.547-1.133,0.834
	c-0.842,0.65-1.676,1.307-2.51,1.966c-0.502,0.393-0.986,0.805-1.494,1.186c-0.216,0.162-0.479,0.263-0.715,0.402
	c-0.351,0.208-0.691,0.436-1.05,0.631c-0.409,0.223-0.83,0.424-1.253,0.624c-0.458,0.22-0.92,0.438-1.388,0.638
	c-0.536,0.229-1.065,0.492-1.625,0.646c-1.05,0.29-2.388,0.053-3.108-0.926c-0.143-0.191-0.339-0.356-0.539-0.489
	c-0.096-0.061-0.275-0.059-0.388-0.013c-0.846,0.349-1.675,0.733-2.523,1.07c-0.39,0.154-0.797,0.172-1.22,0.027
	c-0.379-0.129-0.786-0.181-1.184-0.255c-0.812-0.147-1.319-0.672-1.769-1.324c-0.529-0.766-0.854-1.615-1.198-2.462
	c-0.037-0.089-0.087-0.177-0.151-0.245c-0.155-0.161-0.319-0.22-0.476,0.003c-0.045,0.061-0.094,0.12-0.131,0.184
	c-0.282,0.471-0.566,0.941-0.844,1.414c-0.164,0.279-0.269,0.612-0.488,0.837c-0.446,0.451-0.802,1.021-1.494,1.187
	c-0.252,0.06-0.482,0.222-0.711,0.356c-0.594,0.345-1.211,0.623-1.851,0.881c-0.986,0.399-1.976,0.469-3.005,0.325
	c-0.336-0.047-0.558,0.151-0.781,0.36c-0.429,0.402-0.896,0.727-1.508,0.804c-0.43,0.054-0.854,0.154-1.278,0.242
	c-0.393,0.08-0.65-0.021-0.854-0.409c-0.408-0.784-0.875-1.539-1.322-2.304c-0.145-0.243-0.274-0.508-0.467-0.712
	c-0.326-0.349-0.664-0.254-0.768,0.207c-0.092,0.405-0.149,0.818-0.211,1.23c-0.101,0.648-0.348,1.176-1.034,1.41
	c-0.521,0.178-1.013,0.452-1.544,0.592c-0.33,0.085-0.711,0.03-1.061-0.013c-0.39-0.05-0.769-0.188-1.158-0.236
	c-0.872-0.108-1.749-0.17-2.621-0.281c-0.59-0.072-1.219-0.093-1.754-0.318c-0.744-0.316-1.539-0.311-2.287-0.538
	c-0.577-0.175-1.103-0.439-1.564-0.839c-0.277-0.241-0.628-0.393-0.914-0.623c-0.359-0.291-0.748-0.578-1.014-0.948
	c-0.328-0.46-0.579-0.988-0.793-1.514c-0.141-0.351-0.18-0.746-0.228-1.127c-0.145-1.202,0.08-2.336,0.691-3.386
	c0.247-0.422,0.484-0.852,0.751-1.262c0.118-0.185,0.287-0.338,0.445-0.492c0.451-0.45,0.892-0.911,1.366-1.336
	c0.424-0.381,0.91-0.692,1.327-1.081c0.83-0.773,1.785-1.371,2.722-2c0.554-0.372,1.062-0.824,1.638-1.162
	c0.853-0.499,1.747-0.934,2.625-1.392c0.208-0.107,0.436-0.182,0.629-0.311c0.115-0.076,0.242-0.217,0.26-0.344
	c0.076-0.547,0.071-1.108,0.177-1.648c0.156-0.788,0.368-1.568,0.583-2.346c0.122-0.439,0.279-0.873,0.454-1.295
	c0.229-0.559,0.501-1.101,0.736-1.657c0.173-0.409,0.279-0.85,0.477-1.243c0.451-0.894,0.928-1.776,1.421-2.647
	c0.321-0.569,0.653-1.138,1.041-1.662c0.299-0.405,0.691-0.742,1.041-1.108c0.21-0.222,0.387-0.492,0.636-0.652
	c0.81-0.519,1.646-0.999,2.476-1.491c0.063-0.038,0.144-0.056,0.195-0.105c0.336-0.317,0.735-0.301,1.056-0.068
	c0.325,0.235,0.441,0.637,0.433,1.057c-0.017,0.796-0.059,1.594-0.028,2.39c0.028,0.711,0.146,1.418,0.222,2.129
	c0.046,0.42-0.003,0.811-0.185,1.214c-0.14,0.308-0.108,0.689-0.178,1.033c-0.059,0.297-0.157,0.587-0.229,0.882
	c-0.071,0.3-0.114,0.608-0.202,0.904c-0.072,0.251-0.207,0.483-0.285,0.732c-0.067,0.217-0.102,0.442-0.136,0.667
	c-0.034,0.204,0.007,0.442-0.083,0.613c-0.463,0.904-0.697,1.869-0.859,2.86c-0.022,0.134-0.09,0.262-0.112,0.396
	c-0.05,0.275-0.083,0.553-0.125,0.828c-0.021,0.146-0.04,0.294-0.07,0.438c-0.086,0.396-0.212,0.787-0.251,1.187
	c-0.021,0.217,0.074,0.46,0.166,0.671c0.114,0.26,0.286,0.499,0.422,0.752c0.303,0.57,0.143,1.592-0.253,2.107
	c-0.257,0.336-0.565,0.557-0.954,0.642c-0.601,0.133-0.858,0.569-1.083,1.076c-0.274,0.624-0.168,1.222,0.077,1.812
	c0.286,0.69,0.573,1.382,0.893,2.057c0.226,0.477,0.506,0.925,0.763,1.387c0.04-0.002,0.081-0.002,0.12-0.003
	c0.084-0.229,0.171-0.459,0.246-0.692c0.215-0.67,0.38-1.359,0.648-2.007c0.269-0.653,0.649-1.261,0.966-1.893
	c0.186-0.372,0.292-0.794,0.526-1.128c0.646-0.914,1.055-1.979,1.902-2.775c0.718-0.675,1.481-1.258,2.322-1.758
	c0.474-0.283,0.918-0.617,1.37-0.936c0.726-0.512,1.54-0.815,2.396-1.016c0.29-0.067,0.586-0.142,0.882-0.153
	c0.545-0.022,0.833,0.216,1.068,0.705c0.195,0.405,0.279,0.812,0.273,1.262c-0.008,0.489,0.25,0.646,0.716,0.49
	c0.654-0.218,0.871-0.098,0.981,0.598c0.075,0.491,0.098,0.993,0.17,1.486c0.097,0.669,0.219,1.337,0.328,2.006
	c0.147,0.91,0.281,1.824,0.447,2.73c0.048,0.256,0.24,0.489,0.271,0.745c0.118,0.955,0.589,1.79,0.919,2.667
	c0.273,0.722,0.815,1.294,1.489,1.71c0.026,0.016,0.058,0.027,0.084,0.045c0.601,0.38,0.859,0.385,1.345-0.14
	c0.569-0.615,0.947-1.339,1.1-2.189c0.117-0.658,0.33-1.301,0.53-1.94c0.216-0.692,0.473-1.37,0.697-2.058
	c0.135-0.415,0.241-0.84,0.36-1.258c0.016-0.052,0.022-0.107,0.047-0.153c0.385-0.672,0.52-1.436,0.771-2.156
	c0.212-0.601,0.707-0.957,1.229-1.275c0.446-0.271,0.888-0.547,1.334-0.816c0.233-0.142,0.463-0.297,0.712-0.403
	c0.46-0.195,0.9,0.065,1.038,0.55c0.12,0.416,0.118,0.812-0.004,1.227c-0.076,0.253-0.052,0.534-0.119,0.79
	c-0.136,0.513-0.296,1.02-0.458,1.524c-0.258,0.801-0.516,1.599-0.793,2.393c-0.08,0.228-0.216,0.439-0.344,0.648
	c-0.465,0.765-0.965,1.51-1.396,2.293c-0.288,0.525-0.388,1.104-0.091,1.687c0.515,1.012,0.57,0.725,1.806,0.608
	c0.414-0.04,0.816-0.215,1.219-0.349c0.632-0.207,1.077-0.694,1.59-1.077c0.425-0.318,0.862-0.62,1.294-0.929
	c0.215-0.154,0.436-0.302,0.647-0.462c0.633-0.483,1.248-0.989,1.893-1.456c1.146-0.828,2.291-1.661,3.467-2.443
	c0.672-0.445,1.402-0.811,2.121-1.179c0.217-0.11,0.826,0.401,1.076,0.386c0.221-0.013,2.477,1.58,2.447,1.789
	c-0.035,0.238-0.109,0.473-0.168,0.709c-0.072,0.307-0.127,0.619-0.221,0.918c-0.166,0.516-0.35,1.029-0.537,1.538
	c-0.141,0.387-0.289,0.771-0.459,1.146c-0.213,0.475-0.436,0.947-0.682,1.405c-0.279,0.521-0.607,1.018-0.877,1.543
	c-0.232,0.453-0.389,0.944-0.625,1.394c-0.711,1.358-1.449,2.702-2.17,4.056c-0.119,0.225-0.197,0.472-0.314,0.7
	c-0.143,0.272-0.307,0.532-0.457,0.799c-0.402,0.713-0.807,1.427-1.203,2.144c-0.215,0.39-0.453,0.771-0.617,1.184
	c-0.248,0.622-0.527,1.211-0.943,1.75c-0.273,0.354-0.395,0.821-0.613,1.225c-0.291,0.541-0.629,1.058-0.912,1.604
	c-0.18,0.347-0.293,0.729-0.445,1.092c-0.508,1.208-1.02,2.416-1.533,3.622c-0.41,0.969-0.788,1.955-1.257,2.895
	c-0.173,0.349-0.526,0.642-0.862,0.866c-0.812,0.546-3.486,0.099-4.329,0.596c-0.114,0.066-0.312,0.068-0.433,0.016
	c-0.066-0.029-0.108-0.257-0.068-0.359c0.093-0.243,0.189-0.524,0.374-0.689c0.7-0.624,1.091-1.438,1.469-2.262
	c0.533-1.16,1.055-2.328,1.581-3.49c0.228-0.502,0.438-1.011,0.689-1.5C47.354,68.494,47.579,68.198,47.795,67.862z M12.056,54.114
	c0.193-0.116,0.441-0.181,0.545-0.34c0.28-0.423,0.521-0.878,0.736-1.341c0.216-0.459,0.384-0.941,0.568-1.418
	c0.237-0.609,0.575-1.173,0.691-1.838c0.102-0.589,0.035-1.138-0.112-1.695c-0.076-0.285-0.15-0.572-0.234-0.856
	c-0.058-0.201-0.073-0.446-0.199-0.595c-0.514-0.607-0.56-1.396-0.848-2.088c-0.205-0.494-0.259-1.05-0.419-1.565
	c-0.2-0.652-0.233-0.653-0.817-0.336c-0.039,0.021-0.078,0.036-0.116,0.055c-0.469,0.247-0.954,0.469-1.401,0.75
	c-0.376,0.236-0.703,0.55-1.062,0.82c-0.244,0.187-0.481,0.403-0.757,0.529c-0.447,0.206-0.859,0.437-1.211,0.791
	c-0.388,0.392-0.842,0.718-1.22,1.119c-0.326,0.345-0.627,0.728-0.864,1.136C5.05,47.736,4.758,48.255,4.622,48.8
	c-0.199,0.792,0.198,1.476,0.67,2.084c0.659,0.846,1.548,1.409,2.506,1.836c0.796,0.355,1.635,0.615,2.465,0.89
	C10.835,53.799,11.426,53.938,12.056,54.114z M24.704,48.567c0.021,0.007,0.043,0.013,0.065,0.019
	c0.029,0.395,0.043,0.789,0.092,1.18c0.023,0.186,0.094,0.375,0.184,0.541c0.16,0.298,0.374,0.314,0.611,0.065
	c0.149-0.162,0.282-0.339,0.438-0.493c0.267-0.268,0.574-0.498,0.812-0.79c0.349-0.424,0.671-0.878,0.969-1.341
	c0.412-0.643,0.85-1.277,1.171-1.967c0.347-0.746,0.567-1.554,0.853-2.332c0.257-0.7,0.197-1.404,0.035-2.106
	c-0.023-0.103-0.182-0.244-0.276-0.242c-0.22,0.003-0.472,0.029-0.651,0.14c-0.236,0.146-0.428,0.372-0.62,0.579
	c-0.622,0.668-1.237,1.341-1.848,2.018c-0.09,0.1-0.137,0.237-0.197,0.359c-0.075,0.151-0.138,0.307-0.216,0.454
	c-0.216,0.414-0.48,0.807-0.647,1.237c-0.205,0.521-0.333,1.073-0.488,1.614C24.887,47.854,24.798,48.213,24.704,48.567z
	 M29.727,48.99c-0.169,0.064-0.293,0.075-0.363,0.143c-0.503,0.496-1,1-1.492,1.508c-0.436,0.448-0.857,0.908-1.295,1.354
	c-0.295,0.3-0.285,0.543,0.066,0.788c0.149,0.104,0.301,0.207,0.462,0.288c0.333,0.168,0.653,0.239,0.939-0.112
	c0.111-0.137,0.296-0.214,0.416-0.346c0.147-0.162,0.299-0.336,0.383-0.531c0.18-0.417,0.342-0.845,0.463-1.281
	C29.461,50.237,29.573,49.663,29.727,48.99z M17.169,36.89c-0.01,0.001-0.019,0.002-0.028,0.002
	c0.021,0.168-0.004,0.362,0.074,0.494c0.074,0.124,0.25,0.229,0.393,0.252c0.092,0.014,0.275-0.122,0.301-0.22
	c0.218-0.831,0.411-1.668,0.603-2.506c0.016-0.066-0.014-0.187-0.061-0.215c-0.055-0.033-0.168-0.013-0.232,0.025
	c-0.21,0.122-0.441,0.234-0.605,0.406c-0.162,0.17-0.318,0.395-0.363,0.617C17.174,36.118,17.191,36.509,17.169,36.89z"/>
<g>
	<path style="fill-rule:evenodd;clip-rule:evenodd;" d="M73.768,54.613c0.062-2.117,0.088-4.138,0.191-6.15
		c0.084-1.61,0.279-3.212,0.387-4.822c0.043-0.65,0-1.319-0.027-1.978c-0.039-0.951-0.105-1.903-0.152-2.857
		c-0.039-0.791-0.029-1.589-0.111-2.369c-0.09-0.828-0.258-1.641-0.395-2.457c-0.01-0.065-0.043-0.133-0.037-0.19
		c0.164-1.221-0.428-2.064-0.83-2.955c-0.24-0.532-0.5-0.991-0.432-1.636c0.035-0.307,0.094-0.636,0.217-0.882
		c0.428-0.847,0.629-1.995,1.502-2.271c0.02-0.007,0.039-0.038,0.057-0.057c0.598-0.597,0.812-0.536,1.289,0.188
		c0.549,0.845,0.721,1.927,1.02,2.931c0.08,0.274,0.129,0.564,0.203,0.841c0.02,0.071,0.061,0.155,0.109,0.188
		c0.467,0.318,0.928,0.663,1.412,0.931c0.367,0.208,0.766,0.311,1.148,0.469c0.684,0.285,1.184,0.753,1.24,1.896
		c0.055,1.061,0.082,2.1-0.078,3.143c-0.033,0.217,0.029,0.468-0.01,0.681c-0.148,0.845-0.32,1.685-0.484,2.524
		c-0.174,0.878-0.338,1.758-0.523,2.633c-0.084,0.39-0.205,0.766-0.311,1.146c-0.017,0.061-0.043,0.122-0.049,0.185
		c-0.145,1.393-0.332,2.779-0.422,4.178c-0.109,1.693-0.137,3.395-0.191,5.095c-0.037,1.101-0.051,2.204-0.088,3.306
		c-0.02,0.651-0.664,1.281-1.236,1.189c-0.439-0.072-0.842,0.057-1.256,0.245c-0.42,0.189-0.809,0.167-1.281-0.068
		c-0.795-0.398-0.613-1.317-0.797-2.038C73.744,55.304,73.781,54.895,73.768,54.613z"/>
</g>
</svg>
