<?xml version="1.0" encoding="iso-8859-1"?>
<!-- Generator: Adobe Illustrator 18.1.1, SVG Export Plug-In . SVG Version: 6.00 Build 0)  -->
<svg version="1.1" id="Layer_1" xmlns="http://www.w3.org/2000/svg" xmlns:xlink="http://www.w3.org/1999/xlink" x="0px" y="0px"
	 viewBox="0 0 100 100" style="enable-background:new 0 0 100 100;" xml:space="preserve">
<path style="fill-rule:evenodd;clip-rule:evenodd;" d="M96.882,49.72c-0.41-0.772-0.99-1.456-1.514-2.165
	c-0.089-0.121-0.27-0.174-0.414-0.264c-0.086-0.158-0.15-0.382-0.295-0.53c-0.463-0.481-0.934-0.961-1.441-1.393
	c-0.391-0.331-0.821-0.628-1.271-0.874c-0.726-0.396-1.461-0.793-2.231-1.082c-0.728-0.274-1.503-0.411-2.39-0.643
	c-0.778-0.048-0.526-0.392-0.549-0.845c-0.012-0.259-0.001-0.335,0.039-0.403c0.211-1.617,1.15-2.655,3.35-2.943
	c0.819-0.176,1.77-0.072,2.408,0.041c0.057-0.001,0.114,0,0.175,0c0.141,0.004,0.291-0.005,0.42-0.054
	c0.322-0.123,0.669-0.225,0.942-0.425c0.458-0.33,0.871-0.723,1.29-1.103c0.068-0.065,0.12-0.252,0.077-0.311
	c-0.239-0.339-0.517-0.646-0.764-0.978c-0.19-0.256-0.363-0.504-0.738-0.467c-0.25,0.026-0.514,0.075-0.751,0.022
	c-0.988-0.209-1.926,0.044-2.873,0.251c-1.181,0.258-2.362,0.509-3.545,0.758c-1.402,0.293-2.656,0.916-3.835,1.71
	c-0.146,0.1-0.29,0.23-0.385,0.382c-0.344,0.542-0.721,1.075-0.977,1.659c-0.295,0.67-0.653,1.334-0.662,2.104
	c-0.01,0.778-0.129,1.539-0.475,2.248c-0.222,0.449-0.118,0.883,0.068,1.309c0.191,0.427,0.11,0.96,0.329,1.373
	c0.167,0.315,0.42,1.327,0.552,1.657c0.277,0.693,0.646,2.174,1.138,3.158c0.904,1.805,2.489,2.892,4.246,3.722
	c0.758,0.359,1.601,0.538,2.404,0.792c0.095,0.029,0.198,0.047,0.294,0.036c0.631-0.067,1.258-0.158,1.889-0.211
	c0.273-0.022,0.556,0.043,0.833,0.029c0.831-0.038,1.688,0.061,2.457-0.387c0.022-0.015,0.06,0.003,0.083-0.008
	c0.84-0.363,1.805-0.51,2.166-1.581c0.194-0.581,0.502-1.113,0.549-1.754C97.557,51.541,97.341,50.583,96.882,49.72z M92.139,51.796
	c-0.118,0.283-0.251,0.565-0.435,0.807c-0.073,0.094-0.319,0.136-0.448,0.091c-0.528-0.182-1.084-0.341-1.546-0.636
	c-0.317-0.205-0.537-0.6-0.726-0.95c-0.288-0.527-0.525-1.087-0.757-1.645c-0.162-0.394-0.28-0.806-0.361-1.244
	c0.973,0.135,1.869,0.178,2.737,0.648c0.861,0.467,1.346,1.189,1.868,1.99C92.373,51.141,92.274,51.478,92.139,51.796z"/>
<path style="fill-rule:evenodd;clip-rule:evenodd;" d="M49.213,68.246c0.349,0.209,0.569,0.056,0.712-0.189
	c0.21-0.368,0.372-0.763,0.57-1.137c0.105-0.196,0.236-0.38,0.373-0.558c0.659-0.834,0.966-1.852,1.45-2.778
	c0.339-0.647,0.611-1.329,0.908-1.999c0.032-0.074,0.057-0.181,0.03-0.249c-0.222-0.562,0.071-1.007,0.31-1.474
	c0.239-0.472,0.455-0.955,0.684-1.433c0.32-0.663,0.647-1.32,0.961-1.987c0.178-0.376,0.325-0.767,0.508-1.14
	c0.209-0.433,0.461-0.845,0.655-1.282c0.171-0.387,0.265-0.809,0.433-1.197c0.396-0.916,0.644-1.873,0.834-2.848
	c0.053-0.269,0.084-0.55,0.058-0.819c-0.021-0.216-0.165-0.352-0.406-0.17c-0.374,0.282-0.763,0.547-1.132,0.833
	c-0.842,0.651-1.677,1.309-2.511,1.967c-0.501,0.394-0.985,0.806-1.493,1.186c-0.216,0.162-0.479,0.264-0.715,0.403
	c-0.352,0.207-0.691,0.436-1.05,0.631c-0.409,0.223-0.83,0.425-1.253,0.624c-0.458,0.22-0.92,0.436-1.388,0.637
	c-0.536,0.23-1.065,0.493-1.625,0.647c-1.05,0.29-2.388,0.052-3.108-0.926c-0.143-0.192-0.339-0.357-0.539-0.489
	c-0.096-0.062-0.275-0.061-0.388-0.014c-0.846,0.35-1.675,0.732-2.523,1.07c-0.39,0.154-0.797,0.174-1.22,0.027
	c-0.379-0.129-0.786-0.182-1.184-0.254c-0.812-0.149-1.319-0.672-1.769-1.325c-0.529-0.765-0.854-1.615-1.198-2.462
	c-0.037-0.089-0.087-0.178-0.151-0.245c-0.155-0.16-0.319-0.219-0.476,0.003c-0.045,0.061-0.094,0.119-0.131,0.184
	c-0.282,0.472-0.566,0.941-0.844,1.414c-0.164,0.28-0.27,0.612-0.488,0.836c-0.446,0.452-0.802,1.024-1.494,1.19
	c-0.252,0.058-0.482,0.221-0.711,0.354c-0.594,0.344-1.211,0.623-1.851,0.88c-0.986,0.399-1.976,0.469-3.005,0.327
	c-0.336-0.048-0.558,0.151-0.781,0.359c-0.429,0.403-0.896,0.727-1.508,0.805c-0.43,0.053-0.853,0.154-1.278,0.24
	c-0.393,0.082-0.65-0.019-0.854-0.407c-0.408-0.785-0.875-1.539-1.322-2.304c-0.145-0.244-0.273-0.509-0.467-0.713
	c-0.326-0.349-0.664-0.253-0.767,0.207c-0.092,0.404-0.148,0.818-0.211,1.23c-0.102,0.649-0.348,1.177-1.034,1.41
	c-0.521,0.179-1.013,0.453-1.544,0.592c-0.33,0.086-0.711,0.031-1.061-0.013c-0.39-0.049-0.769-0.188-1.158-0.235
	c-0.872-0.109-1.749-0.171-2.621-0.281c-0.59-0.073-1.219-0.094-1.754-0.32c-0.744-0.313-1.539-0.309-2.287-0.536
	c-0.577-0.175-1.103-0.439-1.564-0.84c-0.277-0.239-0.628-0.394-0.914-0.623c-0.359-0.291-0.748-0.578-1.014-0.947
	c-0.328-0.46-0.579-0.988-0.793-1.515c-0.141-0.35-0.18-0.746-0.228-1.126c-0.145-1.203,0.08-2.335,0.691-3.387
	c0.247-0.422,0.484-0.851,0.751-1.261c0.118-0.185,0.287-0.338,0.445-0.494c0.451-0.449,0.892-0.91,1.366-1.334
	c0.424-0.381,0.91-0.692,1.327-1.081c0.83-0.773,1.785-1.373,2.722-2c0.554-0.374,1.062-0.824,1.638-1.161
	c0.853-0.5,1.747-0.934,2.625-1.393c0.208-0.107,0.437-0.183,0.629-0.31c0.115-0.077,0.242-0.219,0.26-0.344
	c0.076-0.547,0.071-1.107,0.177-1.648c0.156-0.787,0.368-1.567,0.583-2.345c0.122-0.44,0.279-0.873,0.454-1.296
	c0.229-0.559,0.501-1.1,0.736-1.657c0.173-0.409,0.279-0.849,0.478-1.243c0.451-0.894,0.928-1.775,1.421-2.649
	c0.321-0.567,0.653-1.136,1.041-1.661c0.299-0.406,0.691-0.741,1.041-1.109c0.21-0.22,0.387-0.491,0.636-0.651
	c0.811-0.518,1.646-0.998,2.476-1.49c0.063-0.039,0.144-0.056,0.195-0.106c0.336-0.317,0.735-0.3,1.056-0.067
	c0.325,0.234,0.441,0.635,0.433,1.056c-0.017,0.796-0.059,1.594-0.028,2.39c0.028,0.712,0.146,1.419,0.222,2.129
	c0.046,0.421-0.003,0.812-0.186,1.214c-0.14,0.309-0.108,0.69-0.178,1.033c-0.059,0.298-0.157,0.586-0.229,0.882
	c-0.071,0.301-0.114,0.609-0.202,0.905c-0.072,0.25-0.207,0.482-0.285,0.731c-0.067,0.215-0.102,0.443-0.136,0.667
	c-0.034,0.204,0.007,0.441-0.083,0.612c-0.463,0.903-0.697,1.87-0.859,2.861c-0.023,0.135-0.09,0.262-0.112,0.396
	c-0.05,0.273-0.083,0.553-0.125,0.827c-0.021,0.146-0.04,0.293-0.07,0.437c-0.086,0.397-0.212,0.788-0.251,1.188
	c-0.021,0.216,0.074,0.459,0.166,0.67c0.114,0.262,0.286,0.498,0.422,0.753c0.303,0.571,0.144,1.592-0.253,2.107
	c-0.257,0.336-0.565,0.556-0.954,0.641c-0.601,0.134-0.858,0.57-1.083,1.077c-0.274,0.624-0.168,1.22,0.077,1.812
	c0.286,0.692,0.573,1.383,0.892,2.058c0.227,0.476,0.506,0.924,0.763,1.386c0.04-0.001,0.081-0.002,0.12-0.002
	c0.084-0.229,0.171-0.46,0.246-0.692c0.215-0.67,0.38-1.359,0.648-2.008c0.27-0.652,0.649-1.26,0.966-1.895
	c0.186-0.37,0.292-0.794,0.526-1.126c0.647-0.913,1.055-1.979,1.902-2.775c0.718-0.676,1.48-1.259,2.322-1.758
	c0.474-0.282,0.918-0.617,1.37-0.936c0.726-0.513,1.54-0.816,2.396-1.016c0.29-0.068,0.586-0.141,0.882-0.153
	c0.545-0.023,0.833,0.215,1.068,0.705c0.195,0.405,0.279,0.812,0.273,1.262c-0.008,0.489,0.25,0.646,0.716,0.49
	c0.654-0.218,0.871-0.098,0.981,0.598c0.075,0.491,0.098,0.993,0.17,1.487c0.097,0.669,0.219,1.335,0.328,2.005
	c0.147,0.909,0.281,1.823,0.447,2.729c0.048,0.257,0.24,0.489,0.271,0.745c0.118,0.956,0.589,1.79,0.919,2.667
	c0.273,0.724,0.815,1.294,1.489,1.711c0.026,0.016,0.058,0.027,0.084,0.045c0.601,0.381,0.859,0.385,1.345-0.14
	c0.569-0.616,0.947-1.339,1.1-2.191c0.117-0.656,0.33-1.301,0.53-1.94c0.216-0.691,0.473-1.368,0.697-2.057
	c0.135-0.415,0.241-0.838,0.36-1.258c0.016-0.051,0.023-0.106,0.047-0.152c0.385-0.674,0.52-1.436,0.771-2.156
	c0.212-0.601,0.707-0.958,1.229-1.277c0.446-0.27,0.888-0.547,1.334-0.814c0.233-0.142,0.463-0.298,0.712-0.403
	c0.46-0.195,0.9,0.063,1.038,0.549c0.12,0.418,0.118,0.812-0.004,1.227c-0.076,0.254-0.052,0.534-0.119,0.79
	c-0.136,0.513-0.296,1.02-0.458,1.525c-0.258,0.799-0.516,1.6-0.793,2.392c-0.08,0.227-0.216,0.439-0.344,0.65
	c-0.465,0.764-0.965,1.508-1.396,2.291c-0.288,0.525-0.388,1.104-0.091,1.687c0.515,1.012,0.57,0.727,1.806,0.608
	c0.414-0.039,0.816-0.216,1.219-0.348c0.632-0.208,1.077-0.695,1.59-1.078c0.425-0.317,0.862-0.619,1.294-0.929
	c0.215-0.153,0.436-0.301,0.647-0.462c0.633-0.484,1.248-0.988,1.893-1.455c1.146-0.828,2.29-1.662,3.467-2.443
	c0.672-0.445,1.401-0.811,2.12-1.181c0.217-0.109,0.827,0.401,1.076,0.388c0.221-0.013,2.477,1.58,2.447,1.787
	c-0.035,0.239-0.109,0.475-0.167,0.71c-0.073,0.307-0.127,0.619-0.222,0.919c-0.166,0.516-0.349,1.028-0.536,1.537
	c-0.142,0.387-0.289,0.771-0.459,1.146c-0.213,0.475-0.437,0.945-0.683,1.405c-0.278,0.521-0.608,1.018-0.876,1.543
	c-0.232,0.453-0.39,0.943-0.625,1.393c-0.712,1.359-1.449,2.703-2.17,4.057c-0.12,0.225-0.197,0.472-0.314,0.698
	c-0.143,0.272-0.308,0.532-0.458,0.801c-0.402,0.714-0.806,1.425-1.202,2.144c-0.215,0.388-0.453,0.771-0.617,1.182
	c-0.248,0.623-0.527,1.212-0.943,1.751c-0.273,0.354-0.396,0.822-0.613,1.225c-0.291,0.541-0.629,1.059-0.912,1.605
	c-0.18,0.347-0.294,0.729-0.446,1.091c-0.508,1.209-1.019,2.417-1.532,3.623c-0.41,0.969-0.788,1.953-1.257,2.895
	c-0.173,0.347-0.526,0.642-0.862,0.866c-0.812,0.545-3.486,0.099-4.329,0.596c-0.114,0.066-0.312,0.067-0.433,0.016
	c-0.066-0.03-0.107-0.258-0.068-0.36c0.093-0.242,0.189-0.523,0.374-0.688c0.7-0.625,1.091-1.438,1.469-2.262
	c0.533-1.16,1.055-2.328,1.581-3.49c0.228-0.502,0.438-1.011,0.689-1.502C48.771,68.877,48.996,68.583,49.213,68.246z
	 M13.474,54.498c0.193-0.115,0.441-0.18,0.545-0.339c0.28-0.424,0.521-0.877,0.736-1.34c0.216-0.46,0.384-0.943,0.568-1.419
	c0.237-0.61,0.575-1.173,0.691-1.839c0.103-0.589,0.035-1.138-0.112-1.693c-0.076-0.287-0.15-0.574-0.234-0.857
	c-0.058-0.203-0.073-0.446-0.199-0.596c-0.514-0.608-0.56-1.396-0.848-2.088c-0.205-0.493-0.259-1.048-0.419-1.563
	c-0.2-0.654-0.233-0.654-0.817-0.337c-0.039,0.021-0.078,0.035-0.116,0.056c-0.469,0.247-0.954,0.468-1.401,0.75
	c-0.376,0.237-0.703,0.55-1.061,0.82c-0.244,0.187-0.482,0.403-0.757,0.529c-0.447,0.205-0.859,0.436-1.211,0.791
	c-0.388,0.392-0.842,0.718-1.22,1.118c-0.326,0.344-0.627,0.729-0.864,1.137c-0.286,0.493-0.578,1.011-0.715,1.556
	c-0.199,0.792,0.198,1.477,0.67,2.086c0.659,0.845,1.548,1.408,2.506,1.835c0.796,0.354,1.635,0.615,2.465,0.889
	C12.253,54.184,12.844,54.322,13.474,54.498z M26.121,48.951c0.021,0.007,0.043,0.013,0.064,0.02
	c0.029,0.395,0.043,0.79,0.092,1.181c0.024,0.185,0.094,0.375,0.184,0.54c0.16,0.297,0.374,0.315,0.611,0.065
	c0.149-0.161,0.282-0.339,0.438-0.494c0.267-0.267,0.574-0.499,0.812-0.788c0.349-0.427,0.671-0.879,0.969-1.343
	c0.412-0.642,0.85-1.277,1.171-1.966c0.347-0.747,0.567-1.554,0.853-2.332c0.257-0.7,0.197-1.405,0.035-2.106
	c-0.023-0.102-0.182-0.245-0.276-0.243c-0.22,0.003-0.472,0.03-0.651,0.142c-0.236,0.145-0.428,0.37-0.62,0.579
	c-0.622,0.667-1.237,1.339-1.848,2.017c-0.09,0.099-0.137,0.236-0.197,0.36c-0.075,0.15-0.138,0.306-0.216,0.453
	c-0.216,0.413-0.479,0.806-0.647,1.237c-0.205,0.521-0.333,1.074-0.488,1.614C26.305,48.239,26.216,48.597,26.121,48.951z
	 M31.145,49.374c-0.169,0.064-0.293,0.076-0.363,0.143c-0.503,0.496-1,1.001-1.492,1.508c-0.436,0.448-0.858,0.908-1.295,1.354
	c-0.295,0.301-0.285,0.543,0.066,0.789c0.149,0.104,0.301,0.206,0.462,0.288c0.333,0.168,0.653,0.238,0.938-0.112
	c0.111-0.137,0.296-0.214,0.416-0.346c0.146-0.162,0.299-0.336,0.383-0.532c0.18-0.416,0.342-0.845,0.463-1.281
	C30.879,50.622,30.99,50.047,31.145,49.374z M18.587,37.274c-0.01,0.001-0.02,0.002-0.028,0.002
	c0.021,0.167-0.004,0.361,0.074,0.494c0.074,0.122,0.25,0.229,0.393,0.251c0.092,0.013,0.275-0.122,0.301-0.219
	c0.218-0.832,0.411-1.669,0.604-2.506c0.016-0.066-0.014-0.187-0.062-0.217c-0.055-0.031-0.168-0.013-0.233,0.025
	c-0.21,0.124-0.44,0.234-0.605,0.408c-0.162,0.169-0.318,0.395-0.363,0.616C18.592,36.502,18.608,36.893,18.587,37.274z"/>
<g>
	<path style="fill-rule:evenodd;clip-rule:evenodd;" d="M73.087,55.74c0.062-2.146,0.089-4.193,0.194-6.231
		c0.085-1.635,0.281-3.257,0.391-4.889c0.044-0.662,0-1.338-0.026-2.005c-0.041-0.967-0.107-1.933-0.156-2.897
		c-0.039-0.801-0.029-1.611-0.112-2.403c-0.09-0.84-0.262-1.66-0.399-2.489c-0.01-0.066-0.044-0.135-0.037-0.193
		c0.166-1.237-0.435-2.09-0.842-2.995c-0.243-0.541-0.507-1.006-0.436-1.659c0.032-0.308,0.093-0.645,0.219-0.893
		c0.432-0.858,0.635-2.02,1.521-2.304c0.021-0.007,0.04-0.037,0.059-0.058c0.605-0.601,0.823-0.543,1.304,0.194
		c0.559,0.854,0.732,1.952,1.035,2.971c0.082,0.274,0.133,0.568,0.207,0.85c0.019,0.074,0.062,0.157,0.111,0.191
		c0.473,0.324,0.939,0.672,1.43,0.944c0.373,0.208,0.775,0.312,1.164,0.474c0.694,0.289,1.2,0.764,1.259,1.924
		c0.055,1.072,0.082,2.127-0.079,3.183c-0.034,0.222,0.028,0.474-0.01,0.69c-0.152,0.857-0.326,1.707-0.493,2.56
		c-0.175,0.89-0.342,1.783-0.53,2.668c-0.084,0.396-0.208,0.775-0.315,1.163c-0.017,0.062-0.041,0.123-0.048,0.188
		c-0.148,1.41-0.338,2.816-0.428,4.234c-0.11,1.716-0.14,3.441-0.195,5.163c-0.036,1.116-0.052,2.234-0.088,3.352
		c-0.021,0.658-0.674,1.298-1.254,1.203c-0.446-0.072-0.853,0.059-1.273,0.249c-0.426,0.192-0.818,0.169-1.298-0.07
		c-0.806-0.401-0.62-1.335-0.808-2.062C73.062,56.44,73.101,56.025,73.087,55.74z"/>
</g>
</svg>
