<?xml version="1.0" encoding="iso-8859-1"?>
<!-- Generator: Adobe Illustrator 18.1.1, SVG Export Plug-In . SVG Version: 6.00 Build 0)  -->
<svg version="1.1" id="Layer_1" xmlns="http://www.w3.org/2000/svg" xmlns:xlink="http://www.w3.org/1999/xlink" x="0px" y="0px"
	 viewBox="0 0 100 100" style="enable-background:new 0 0 100 100;" xml:space="preserve">
<g>
	<path style="fill-rule:evenodd;clip-rule:evenodd;" d="M95.584,34.007c0.354,0.03,0.646,0.036,0.929,0.086
		c0.487,0.086,0.569,0.341,0.256,0.702c-0.259,0.295-0.566,0.57-0.752,0.909c-0.262,0.475-0.472,0.989-0.634,1.508
		c-0.182,0.59-0.288,1.203-0.428,1.806c-0.096,0.415-0.188,0.829-0.282,1.241c-0.128,0.563-0.28,1.123-0.382,1.69
		c-0.15,0.815-0.251,1.637-0.402,2.451c-0.082,0.456-0.223,0.902-0.34,1.352c-0.003,0.014-0.006,0.027-0.007,0.041
		c-0.146,1.083-0.29,2.167-0.437,3.251c-0.024,0.185-0.041,0.37-0.07,0.553c-0.074,0.461-0.057,0.481,0.407,0.424
		c0.078-0.009,0.153-0.022,0.241-0.035c0.244,0.538-0.021,0.945-0.332,1.3c-0.596,0.685-1.107,1.417-1.401,2.278
		c-0.066,0.192-0.002,0.457,0.072,0.662c0.088,0.243,0.021,0.383-0.137,0.566c-0.4,0.467-0.958,0.537-1.499,0.664
		c-0.624,0.146-1.247,0.295-1.875,0.426c-0.147,0.029-0.332,0.043-0.456-0.021c-1.163-0.604-1.392-1.328-0.968-2.568
		c0.35-1.026,0.631-2.081,0.86-3.143c0.376-1.731,0.692-3.475,1.012-5.217c0.175-0.948,0.288-1.906,0.466-2.852
		c0.171-0.918,0.385-1.829,0.581-2.743c0.125-0.579,0.231-1.162,0.379-1.736c0.134-0.526,0.279-1.054,0.482-1.557
		c0.122-0.302-0.008-0.368-0.232-0.402c-0.399-0.059-0.802-0.123-1.203-0.142c-1.276-0.063-2.554-0.108-3.828-0.161
		c-0.174-0.005-0.35-0.008-0.517-0.042c-0.596-0.123-1.168,0.047-1.751,0.094c-0.13,0.012-0.29,0.043-0.386-0.016
		c-0.436-0.275-0.863-0.566-1.274-0.878c-0.174-0.133-0.188-0.273,0.06-0.429c0.223-0.14,0.401-0.377,0.54-0.608
		c0.171-0.281,0.376-0.421,0.692-0.33c0.604,0.177,1.017-0.012,1.342-0.557c0.492-0.824,1.28-1.177,2.216-1.297
		c0.834-0.107,1.657-0.176,2.503-0.045c0.533,0.083,1.091-0.012,1.627,0.059c1.647,0.224,3.288,0.489,4.932,0.736
		c0.038,0.005,0.076,0.018,0.116,0.021c0.612,0.039,0.766,0.308,0.501,0.899c-0.081,0.181-0.195,0.348-0.299,0.52
		C95.815,33.623,95.722,33.779,95.584,34.007z"/>
</g>
<g>
	<path style="fill-rule:evenodd;clip-rule:evenodd;" d="M72.674,58.176c0.068-2.281,0.096-4.457,0.207-6.624
		c0.091-1.737,0.3-3.461,0.416-5.196c0.047-0.703,0-1.421-0.027-2.13c-0.044-1.027-0.115-2.053-0.168-3.08
		c-0.041-0.852-0.029-1.712-0.118-2.554c-0.096-0.892-0.278-1.766-0.424-2.646c-0.012-0.07-0.048-0.143-0.04-0.206
		c0.176-1.315-0.463-2.222-0.896-3.184c-0.258-0.574-0.538-1.068-0.463-1.763c0.035-0.327,0.1-0.684,0.233-0.948
		c0.458-0.913,0.675-2.149,1.616-2.448c0.023-0.007,0.042-0.041,0.062-0.061c0.643-0.641,0.875-0.578,1.386,0.206
		c0.593,0.909,0.777,2.075,1.1,3.157c0.088,0.293,0.141,0.604,0.22,0.904c0.02,0.078,0.066,0.167,0.117,0.203
		c0.505,0.345,1,0.714,1.521,1.004c0.396,0.221,0.825,0.333,1.237,0.504c0.739,0.307,1.275,0.811,1.339,2.043
		c0.058,1.142,0.087,2.261-0.085,3.385c-0.035,0.234,0.03,0.502-0.01,0.732c-0.162,0.912-0.347,1.815-0.525,2.72
		c-0.186,0.946-0.362,1.896-0.563,2.837c-0.089,0.42-0.221,0.824-0.334,1.235c-0.019,0.066-0.045,0.131-0.052,0.2
		c-0.156,1.499-0.358,2.993-0.456,4.5c-0.115,1.823-0.146,3.658-0.205,5.487c-0.039,1.188-0.057,2.375-0.094,3.562
		c-0.023,0.701-0.717,1.381-1.333,1.281c-0.474-0.078-0.906,0.062-1.354,0.264c-0.451,0.205-0.87,0.18-1.379-0.074
		c-0.856-0.428-0.66-1.42-0.858-2.193C72.647,58.92,72.689,58.479,72.674,58.176z"/>
</g>
<path style="fill-rule:evenodd;clip-rule:evenodd;" d="M48.522,68.98c0.349,0.209,0.569,0.057,0.712-0.189
	c0.21-0.367,0.371-0.763,0.57-1.137c0.104-0.196,0.236-0.381,0.374-0.557c0.658-0.836,0.966-1.853,1.45-2.779
	c0.338-0.646,0.611-1.33,0.906-1.999c0.033-0.074,0.059-0.181,0.031-0.249c-0.222-0.563,0.072-1.008,0.309-1.475
	c0.241-0.471,0.455-0.955,0.686-1.432c0.318-0.664,0.646-1.321,0.96-1.986c0.179-0.377,0.326-0.768,0.508-1.142
	c0.21-0.432,0.461-0.845,0.656-1.282c0.17-0.387,0.266-0.807,0.433-1.195c0.395-0.917,0.643-1.875,0.834-2.849
	c0.051-0.269,0.083-0.55,0.057-0.82c-0.021-0.215-0.165-0.351-0.405-0.169c-0.375,0.282-0.764,0.547-1.133,0.833
	c-0.842,0.65-1.677,1.308-2.511,1.966c-0.5,0.394-0.985,0.805-1.493,1.187c-0.216,0.163-0.478,0.263-0.714,0.402
	c-0.352,0.208-0.692,0.437-1.05,0.632c-0.41,0.223-0.831,0.424-1.253,0.625c-0.459,0.219-0.921,0.436-1.389,0.635
	c-0.535,0.23-1.065,0.494-1.624,0.648c-1.05,0.289-2.39,0.053-3.109-0.927c-0.142-0.192-0.339-0.356-0.539-0.488
	c-0.095-0.062-0.275-0.06-0.388-0.014c-0.845,0.349-1.676,0.733-2.523,1.07c-0.39,0.154-0.797,0.172-1.221,0.027
	c-0.377-0.13-0.785-0.181-1.182-0.255c-0.814-0.148-1.318-0.671-1.77-1.324c-0.529-0.765-0.854-1.615-1.198-2.462
	c-0.037-0.089-0.087-0.177-0.151-0.245c-0.154-0.161-0.32-0.219-0.477,0.003c-0.043,0.062-0.092,0.12-0.131,0.184
	c-0.281,0.471-0.564,0.941-0.843,1.415c-0.164,0.277-0.27,0.612-0.488,0.836c-0.445,0.451-0.802,1.022-1.493,1.188
	c-0.253,0.059-0.482,0.222-0.712,0.355c-0.593,0.344-1.21,0.623-1.85,0.881c-0.987,0.398-1.976,0.469-3.006,0.325
	c-0.336-0.047-0.558,0.152-0.781,0.36c-0.428,0.402-0.896,0.727-1.508,0.804c-0.43,0.055-0.853,0.154-1.278,0.241
	c-0.392,0.082-0.65-0.02-0.854-0.408c-0.409-0.784-0.875-1.539-1.324-2.303c-0.142-0.244-0.273-0.508-0.465-0.713
	c-0.327-0.349-0.664-0.254-0.768,0.207c-0.092,0.404-0.15,0.818-0.213,1.23c-0.101,0.648-0.347,1.177-1.033,1.41
	c-0.521,0.179-1.014,0.452-1.543,0.592c-0.331,0.086-0.711,0.031-1.061-0.013c-0.389-0.05-0.768-0.187-1.157-0.236
	c-0.872-0.108-1.749-0.171-2.622-0.28c-0.589-0.073-1.219-0.094-1.753-0.32c-0.745-0.314-1.539-0.309-2.289-0.537
	c-0.576-0.175-1.101-0.439-1.563-0.84c-0.276-0.238-0.628-0.393-0.914-0.622c-0.358-0.291-0.749-0.578-1.014-0.948
	c-0.328-0.46-0.579-0.986-0.793-1.514c-0.142-0.35-0.181-0.746-0.227-1.126c-0.146-1.203,0.08-2.336,0.691-3.387
	c0.247-0.422,0.483-0.851,0.749-1.261c0.12-0.184,0.289-0.338,0.447-0.493c0.449-0.45,0.893-0.911,1.365-1.335
	c0.424-0.38,0.911-0.693,1.328-1.081c0.83-0.773,1.784-1.372,2.721-2c0.555-0.373,1.062-0.824,1.637-1.161
	c0.854-0.5,1.748-0.934,2.626-1.392c0.209-0.108,0.437-0.182,0.63-0.31c0.115-0.077,0.241-0.218,0.26-0.344
	c0.075-0.546,0.07-1.108,0.177-1.647c0.155-0.789,0.367-1.568,0.583-2.345c0.121-0.44,0.279-0.874,0.454-1.296
	c0.229-0.559,0.501-1.1,0.735-1.657c0.174-0.409,0.279-0.85,0.478-1.243c0.452-0.894,0.929-1.776,1.421-2.648
	c0.321-0.569,0.653-1.137,1.041-1.663c0.299-0.405,0.691-0.741,1.041-1.108c0.21-0.221,0.388-0.491,0.636-0.651
	c0.812-0.519,1.648-0.998,2.476-1.491c0.064-0.039,0.144-0.056,0.196-0.106c0.335-0.317,0.733-0.3,1.055-0.069
	c0.326,0.236,0.441,0.637,0.433,1.057c-0.018,0.796-0.06,1.595-0.028,2.39c0.03,0.711,0.146,1.419,0.222,2.128
	c0.047,0.422-0.003,0.811-0.186,1.214c-0.14,0.309-0.109,0.69-0.178,1.034c-0.059,0.297-0.157,0.586-0.228,0.882
	c-0.072,0.3-0.114,0.608-0.202,0.905c-0.074,0.25-0.208,0.482-0.286,0.73c-0.067,0.216-0.101,0.443-0.136,0.667
	c-0.034,0.205,0.008,0.442-0.082,0.614c-0.463,0.903-0.698,1.869-0.861,2.859c-0.021,0.135-0.087,0.262-0.111,0.396
	c-0.05,0.274-0.082,0.552-0.124,0.827c-0.023,0.146-0.041,0.293-0.071,0.437c-0.086,0.396-0.211,0.788-0.25,1.187
	c-0.022,0.217,0.073,0.46,0.165,0.671c0.114,0.261,0.286,0.499,0.422,0.752c0.304,0.571,0.144,1.592-0.253,2.107
	c-0.256,0.335-0.565,0.556-0.953,0.641c-0.603,0.134-0.859,0.569-1.083,1.076c-0.275,0.624-0.169,1.221,0.076,1.812
	c0.286,0.691,0.574,1.382,0.894,2.057c0.227,0.476,0.506,0.924,0.762,1.385c0.041,0,0.081-0.001,0.121-0.002
	c0.082-0.23,0.171-0.459,0.246-0.692c0.215-0.67,0.379-1.36,0.647-2.007c0.271-0.652,0.649-1.26,0.966-1.894
	c0.187-0.371,0.293-0.794,0.527-1.127c0.646-0.915,1.055-1.979,1.9-2.776c0.719-0.675,1.481-1.258,2.323-1.758
	c0.474-0.282,0.919-0.616,1.371-0.935c0.725-0.512,1.538-0.816,2.396-1.015c0.292-0.068,0.586-0.142,0.882-0.154
	c0.545-0.022,0.833,0.215,1.069,0.705c0.194,0.406,0.279,0.813,0.273,1.262c-0.008,0.489,0.249,0.646,0.715,0.49
	c0.654-0.218,0.872-0.097,0.98,0.597c0.076,0.493,0.1,0.993,0.17,1.487c0.098,0.67,0.221,1.336,0.329,2.005
	c0.148,0.91,0.282,1.824,0.447,2.73c0.048,0.256,0.239,0.489,0.271,0.745c0.117,0.956,0.588,1.79,0.919,2.667
	c0.273,0.723,0.815,1.294,1.488,1.71c0.026,0.017,0.058,0.028,0.084,0.045c0.602,0.381,0.86,0.385,1.346-0.139
	c0.568-0.616,0.946-1.34,1.1-2.191c0.116-0.657,0.33-1.3,0.529-1.94c0.216-0.691,0.473-1.369,0.697-2.057
	c0.135-0.415,0.241-0.839,0.36-1.258c0.016-0.051,0.022-0.107,0.048-0.153c0.384-0.673,0.518-1.436,0.771-2.156
	c0.211-0.601,0.706-0.958,1.229-1.276c0.444-0.27,0.886-0.547,1.333-0.816c0.234-0.141,0.463-0.297,0.713-0.403
	c0.459-0.196,0.898,0.064,1.038,0.549c0.12,0.417,0.118,0.812-0.004,1.227c-0.076,0.253-0.053,0.534-0.119,0.79
	c-0.137,0.513-0.296,1.02-0.458,1.525c-0.258,0.799-0.517,1.599-0.795,2.391c-0.078,0.229-0.215,0.44-0.343,0.65
	c-0.464,0.764-0.964,1.508-1.396,2.292c-0.288,0.525-0.387,1.105-0.091,1.688c0.516,1.011,0.57,0.725,1.806,0.607
	c0.413-0.039,0.817-0.216,1.22-0.348c0.632-0.207,1.076-0.695,1.59-1.078c0.424-0.318,0.861-0.62,1.293-0.929
	c0.215-0.154,0.437-0.301,0.646-0.462c0.634-0.483,1.248-0.989,1.894-1.456c1.146-0.828,2.29-1.661,3.467-2.443
	c0.672-0.446,1.401-0.811,2.12-1.18c0.218-0.11,0.826,0.4,1.076,0.386c0.221-0.012,2.476,1.58,2.447,1.788
	c-0.034,0.24-0.109,0.474-0.167,0.711c-0.073,0.306-0.127,0.618-0.222,0.917c-0.165,0.517-0.349,1.03-0.535,1.538
	c-0.143,0.386-0.289,0.772-0.459,1.147c-0.214,0.475-0.438,0.945-0.684,1.404c-0.279,0.523-0.605,1.018-0.875,1.544
	c-0.233,0.452-0.39,0.942-0.626,1.393c-0.712,1.357-1.448,2.701-2.17,4.055c-0.12,0.225-0.197,0.473-0.314,0.699
	c-0.142,0.271-0.308,0.533-0.458,0.8c-0.402,0.714-0.805,1.427-1.201,2.144c-0.216,0.389-0.453,0.772-0.617,1.184
	c-0.248,0.621-0.527,1.211-0.943,1.75c-0.274,0.355-0.396,0.822-0.614,1.225c-0.291,0.541-0.628,1.059-0.912,1.605
	c-0.181,0.347-0.293,0.729-0.446,1.091c-0.508,1.208-1.02,2.417-1.531,3.623c-0.411,0.968-0.789,1.954-1.257,2.894
	c-0.173,0.348-0.526,0.642-0.861,0.867c-0.813,0.545-3.487,0.099-4.331,0.595c-0.114,0.066-0.312,0.069-0.433,0.017
	c-0.066-0.029-0.106-0.258-0.067-0.36c0.092-0.243,0.188-0.523,0.374-0.688c0.699-0.625,1.09-1.438,1.469-2.262
	c0.533-1.16,1.054-2.327,1.581-3.49c0.226-0.5,0.438-1.01,0.689-1.5C48.082,69.611,48.307,69.317,48.522,68.98z M12.783,55.232
	c0.193-0.115,0.442-0.18,0.546-0.339c0.279-0.425,0.522-0.879,0.735-1.341c0.217-0.46,0.385-0.942,0.568-1.418
	c0.237-0.609,0.575-1.173,0.691-1.839c0.103-0.588,0.035-1.138-0.113-1.694c-0.076-0.286-0.149-0.573-0.232-0.858
	c-0.058-0.202-0.074-0.447-0.2-0.595c-0.514-0.608-0.56-1.396-0.847-2.088c-0.205-0.494-0.26-1.048-0.419-1.564
	c-0.202-0.652-0.233-0.654-0.818-0.336c-0.038,0.02-0.078,0.036-0.116,0.055c-0.469,0.247-0.954,0.468-1.4,0.75
	c-0.376,0.237-0.705,0.55-1.061,0.82c-0.245,0.188-0.481,0.403-0.758,0.53c-0.448,0.205-0.858,0.435-1.21,0.791
	c-0.388,0.392-0.843,0.718-1.22,1.118c-0.327,0.344-0.628,0.727-0.865,1.136c-0.286,0.494-0.578,1.011-0.714,1.556
	c-0.199,0.792,0.197,1.477,0.67,2.085c0.658,0.845,1.548,1.409,2.506,1.835c0.795,0.356,1.634,0.617,2.465,0.891
	C11.564,54.917,12.154,55.057,12.783,55.232z M25.432,49.685c0.021,0.007,0.042,0.013,0.064,0.02
	c0.029,0.394,0.043,0.79,0.092,1.181c0.023,0.186,0.094,0.374,0.184,0.54c0.16,0.297,0.373,0.314,0.609,0.064
	c0.151-0.16,0.284-0.338,0.439-0.493c0.268-0.267,0.575-0.499,0.812-0.789c0.349-0.425,0.671-0.878,0.968-1.342
	c0.413-0.642,0.851-1.277,1.171-1.966c0.348-0.746,0.568-1.554,0.854-2.331c0.257-0.7,0.197-1.405,0.035-2.108
	c-0.024-0.101-0.182-0.243-0.276-0.243c-0.221,0.002-0.472,0.03-0.651,0.141c-0.238,0.145-0.428,0.372-0.621,0.579
	c-0.621,0.667-1.237,1.34-1.847,2.017c-0.089,0.1-0.137,0.237-0.198,0.361c-0.075,0.15-0.139,0.306-0.215,0.454
	c-0.217,0.413-0.479,0.806-0.649,1.238c-0.204,0.521-0.333,1.073-0.487,1.614C25.615,48.974,25.525,49.331,25.432,49.685z
	 M30.454,50.108c-0.169,0.064-0.293,0.076-0.362,0.143c-0.503,0.496-1,1.001-1.493,1.508c-0.436,0.447-0.857,0.908-1.295,1.354
	c-0.296,0.3-0.284,0.542,0.067,0.788c0.148,0.104,0.301,0.206,0.461,0.288c0.332,0.168,0.653,0.238,0.939-0.112
	c0.111-0.138,0.296-0.214,0.415-0.347c0.147-0.161,0.299-0.336,0.384-0.531c0.179-0.417,0.342-0.845,0.462-1.281
	C30.19,51.357,30.301,50.781,30.454,50.108z M17.896,38.008c-0.01,0.001-0.019,0.001-0.027,0.002
	c0.021,0.167-0.004,0.361,0.073,0.494c0.074,0.122,0.249,0.227,0.393,0.25c0.091,0.014,0.276-0.122,0.302-0.22
	c0.217-0.83,0.411-1.667,0.603-2.504c0.016-0.067-0.014-0.188-0.062-0.216c-0.055-0.033-0.168-0.013-0.232,0.025
	c-0.209,0.124-0.441,0.235-0.604,0.407c-0.163,0.17-0.319,0.395-0.363,0.617C17.902,37.236,17.92,37.626,17.896,38.008z"/>
</svg>
