<?xml version="1.0" encoding="iso-8859-1"?>
<!-- Generator: Adobe Illustrator 18.1.1, SVG Export Plug-In . SVG Version: 6.00 Build 0)  -->
<svg version="1.1" id="Layer_1" xmlns="http://www.w3.org/2000/svg" xmlns:xlink="http://www.w3.org/1999/xlink" x="0px" y="0px"
	 viewBox="0 0 100 100" style="enable-background:new 0 0 100 100;" xml:space="preserve">
<g>
	<path style="fill-rule:evenodd;clip-rule:evenodd;" d="M83.779,53.391c-0.249-0.035-0.447-0.055-0.639-0.096
		c-0.322-0.068-0.643-0.152-0.965-0.229c-0.075-0.018-0.153-0.044-0.23-0.043c-0.513,0.006-0.665-0.119-0.77-0.623
		c-0.178-0.857-0.151-1.656,0.502-2.347c0.129-0.136,0.081-0.426,0.164-0.623c0.15-0.358,0.329-0.705,0.515-1.047
		c0.275-0.51,0.554-1.021,0.856-1.516c0.601-0.978,1.206-1.951,1.832-2.913c0.569-0.877,1.182-1.726,1.748-2.604
		c0.553-0.858,1.051-1.748,1.112-2.805c0.027-0.456-0.211-0.753-0.712-1.087c-0.102,0.154-0.219,0.333-0.336,0.51
		c-0.508,0.764-1.182,1.321-2.041,1.652c-0.398,0.154-0.884-0.178-0.817-0.598c0.058-0.366-0.031-0.455-0.415-0.464
		c-0.485-0.012-1.027-0.035-1.304-0.556c-0.067-0.124-0.084-0.358-0.012-0.459c0.654-0.899,1.581-1.446,2.567-1.899
		c0.456-0.209,0.934-0.375,1.4-0.564c0.047-0.02,0.092-0.059,0.122-0.1c0.312-0.426,0.579-0.893,0.939-1.273
		c0.448-0.474,0.855-0.989,1.481-1.29c0.815-0.394,2.008-0.237,2.576,0.465c0.207,0.257,0.314,0.596,0.472,0.893
		c0.087,0.164,0.184,0.328,0.287,0.481c0.144,0.205,0.358,0.38,0.442,0.605c0.23,0.615,0.601,1.203,0.415,1.921
		c-0.068,0.267,0.009,0.571-0.052,0.843c-0.094,0.407-0.222,0.814-0.391,1.195c-0.446,1-0.825,2.05-1.42,2.955
		c-0.447,0.68-0.534,1.452-0.889,2.144c-0.507,0.995-0.843,2.072-1.438,3.03c-0.154,0.249-0.253,0.534-0.36,0.807
		c-0.156,0.392,0.099,0.481,0.561,0.456c1.509-0.083,3.015-0.221,4.522-0.317c0.633-0.041,1.285-0.12,1.901-0.02
		c0.646,0.106,1.292,0.131,1.938,0.201c0.48,0.051,0.96,0.096,1.44,0.144c0.547,0.054,0.677,0.271,0.42,0.74
		c-0.139,0.255-0.324,0.486-0.462,0.742c-0.156,0.288-0.529,0.474-0.365,0.928c0.053,0.145-0.097,0.449-0.244,0.562
		c-0.444,0.343-0.924,0.641-1.406,0.929c-0.307,0.183-0.628,0.359-0.967,0.462c-0.326,0.098-0.684,0.092-1.028,0.139
		c-0.29,0.038-0.579,0.119-0.867,0.117c-0.426-0.002-0.858-0.125-1.272-0.079c-0.729,0.081-1.447,0.251-2.171,0.384
		c-0.078,0.015-0.157,0.062-0.234,0.055c-0.786-0.068-1.52,0.199-2.271,0.354c-0.737,0.151-1.481,0.287-2.202,0.498
		c-0.47,0.137-0.911,0.383-1.352,0.607c-0.271,0.137-0.574,0.186-0.737-0.045c-0.12-0.173-0.074-0.48-0.058-0.726
		C83.577,53.748,83.68,53.617,83.779,53.391z"/>
</g>
<g>
	<path style="fill-rule:evenodd;clip-rule:evenodd;" d="M73.625,55.561c0.059-1.984,0.083-3.877,0.18-5.763
		c0.079-1.511,0.262-3.011,0.361-4.52c0.042-0.612,0.002-1.237-0.023-1.854c-0.038-0.894-0.1-1.786-0.144-2.679
		c-0.037-0.741-0.028-1.49-0.104-2.222c-0.083-0.776-0.242-1.536-0.369-2.303c-0.01-0.061-0.042-0.124-0.035-0.178
		c0.153-1.145-0.401-1.934-0.779-2.77c-0.224-0.499-0.468-0.929-0.401-1.533c0.03-0.286,0.087-0.596,0.202-0.826
		c0.4-0.794,0.587-1.87,1.405-2.13c0.021-0.006,0.036-0.035,0.055-0.053c0.56-0.557,0.761-0.502,1.206,0.179
		c0.517,0.79,0.678,1.805,0.958,2.745c0.075,0.256,0.12,0.527,0.19,0.787c0.019,0.068,0.058,0.146,0.102,0.177
		c0.438,0.298,0.871,0.621,1.322,0.874c0.345,0.192,0.719,0.289,1.076,0.438c0.643,0.267,1.111,0.706,1.165,1.777
		c0.05,0.993,0.076,1.967-0.074,2.945c-0.031,0.205,0.029,0.437-0.009,0.638c-0.14,0.793-0.301,1.578-0.456,2.366
		c-0.161,0.823-0.315,1.649-0.49,2.468c-0.076,0.365-0.192,0.717-0.29,1.076c-0.017,0.057-0.04,0.113-0.045,0.173
		c-0.138,1.305-0.312,2.604-0.396,3.916c-0.102,1.586-0.129,3.182-0.18,4.774c-0.034,1.032-0.049,2.065-0.081,3.099
		c-0.021,0.611-0.624,1.201-1.159,1.114c-0.412-0.067-0.789,0.054-1.179,0.23c-0.394,0.178-0.757,0.155-1.199-0.066
		c-0.745-0.37-0.574-1.233-0.747-1.907C73.602,56.209,73.639,55.825,73.625,55.561z"/>
</g>
<path style="fill-rule:evenodd;clip-rule:evenodd;" d="M48.213,68.033c0.349,0.208,0.569,0.056,0.712-0.189
	c0.21-0.368,0.372-0.764,0.57-1.137c0.105-0.197,0.236-0.381,0.373-0.557c0.659-0.836,0.966-1.854,1.451-2.779
	c0.338-0.648,0.611-1.33,0.907-1.999c0.032-0.075,0.057-0.181,0.03-0.249c-0.222-0.563,0.071-1.008,0.31-1.475
	c0.24-0.472,0.455-0.955,0.684-1.432c0.32-0.664,0.647-1.321,0.961-1.986c0.178-0.377,0.325-0.768,0.508-1.142
	c0.209-0.433,0.461-0.845,0.655-1.281c0.171-0.388,0.265-0.809,0.433-1.196c0.396-0.917,0.644-1.875,0.834-2.85
	c0.053-0.268,0.084-0.549,0.058-0.819c-0.021-0.216-0.165-0.352-0.406-0.17c-0.374,0.283-0.763,0.547-1.132,0.833
	c-0.842,0.651-1.677,1.308-2.511,1.966c-0.501,0.394-0.985,0.805-1.493,1.186c-0.216,0.162-0.479,0.264-0.713,0.402
	c-0.352,0.209-0.693,0.438-1.051,0.632c-0.41,0.224-0.831,0.425-1.252,0.624c-0.46,0.221-0.922,0.438-1.39,0.637
	c-0.535,0.23-1.065,0.494-1.624,0.647c-1.049,0.29-2.389,0.052-3.109-0.926c-0.141-0.192-0.339-0.356-0.539-0.489
	c-0.094-0.062-0.275-0.059-0.388-0.013c-0.845,0.35-1.675,0.731-2.523,1.069c-0.39,0.155-0.797,0.174-1.22,0.028
	c-0.379-0.13-0.786-0.182-1.184-0.255c-0.812-0.148-1.319-0.672-1.769-1.324c-0.529-0.765-0.854-1.615-1.198-2.463
	c-0.037-0.088-0.087-0.178-0.151-0.244c-0.155-0.161-0.319-0.219-0.476,0.003c-0.044,0.061-0.094,0.12-0.131,0.184
	c-0.282,0.471-0.565,0.94-0.844,1.414c-0.164,0.279-0.269,0.612-0.488,0.836c-0.445,0.452-0.802,1.023-1.494,1.188
	c-0.252,0.059-0.481,0.221-0.711,0.355c-0.593,0.344-1.211,0.622-1.85,0.881c-0.987,0.398-1.976,0.469-3.006,0.325
	c-0.336-0.047-0.558,0.151-0.781,0.36c-0.429,0.402-0.896,0.726-1.508,0.804c-0.43,0.054-0.853,0.153-1.278,0.241
	c-0.393,0.081-0.65-0.02-0.854-0.408c-0.409-0.784-0.875-1.539-1.323-2.303c-0.145-0.244-0.273-0.509-0.466-0.713
	c-0.327-0.35-0.665-0.254-0.769,0.207c-0.091,0.404-0.148,0.818-0.211,1.23c-0.102,0.648-0.348,1.176-1.034,1.41
	c-0.521,0.178-1.013,0.453-1.544,0.592c-0.33,0.085-0.711,0.031-1.061-0.014c-0.39-0.049-0.768-0.188-1.158-0.235
	c-0.872-0.108-1.749-0.171-2.621-0.28c-0.59-0.073-1.219-0.095-1.753-0.32c-0.745-0.313-1.54-0.31-2.288-0.537
	c-0.577-0.175-1.102-0.439-1.564-0.84c-0.277-0.239-0.628-0.393-0.914-0.622c-0.359-0.291-0.748-0.578-1.014-0.948
	c-0.328-0.46-0.579-0.988-0.793-1.515c-0.141-0.349-0.18-0.745-0.227-1.126c-0.146-1.203,0.079-2.335,0.691-3.386
	c0.247-0.423,0.483-0.852,0.75-1.261c0.118-0.184,0.287-0.337,0.445-0.494c0.451-0.45,0.892-0.91,1.366-1.335
	c0.424-0.38,0.91-0.692,1.328-1.081c0.829-0.773,1.784-1.372,2.721-2c0.556-0.373,1.062-0.825,1.638-1.162
	c0.853-0.5,1.747-0.934,2.625-1.392c0.208-0.108,0.437-0.182,0.629-0.311c0.115-0.077,0.242-0.218,0.26-0.344
	c0.076-0.547,0.071-1.107,0.178-1.647c0.155-0.789,0.367-1.568,0.583-2.345c0.121-0.44,0.278-0.874,0.454-1.295
	c0.229-0.559,0.501-1.1,0.735-1.658c0.173-0.409,0.279-0.849,0.478-1.243c0.451-0.894,0.929-1.775,1.421-2.648
	c0.321-0.568,0.653-1.136,1.041-1.662c0.299-0.405,0.691-0.741,1.041-1.108c0.21-0.221,0.387-0.492,0.636-0.651
	c0.811-0.519,1.646-0.999,2.476-1.491c0.065-0.039,0.144-0.057,0.195-0.107c0.336-0.317,0.735-0.3,1.056-0.068
	c0.325,0.235,0.441,0.637,0.433,1.056c-0.017,0.797-0.059,1.595-0.028,2.39c0.028,0.712,0.146,1.419,0.222,2.128
	c0.046,0.421-0.003,0.812-0.186,1.214c-0.14,0.308-0.108,0.69-0.178,1.034c-0.059,0.297-0.157,0.586-0.228,0.882
	c-0.072,0.3-0.115,0.609-0.202,0.904c-0.073,0.251-0.208,0.482-0.286,0.731c-0.067,0.217-0.102,0.444-0.136,0.668
	c-0.034,0.204,0.007,0.442-0.083,0.613c-0.462,0.904-0.697,1.869-0.859,2.86c-0.023,0.135-0.09,0.262-0.112,0.396
	c-0.05,0.274-0.083,0.552-0.125,0.828c-0.021,0.146-0.04,0.293-0.07,0.437c-0.086,0.397-0.212,0.788-0.251,1.188
	c-0.021,0.217,0.074,0.46,0.166,0.67c0.114,0.261,0.286,0.499,0.422,0.753c0.303,0.57,0.144,1.592-0.253,2.107
	c-0.257,0.336-0.565,0.556-0.954,0.642c-0.601,0.133-0.858,0.569-1.083,1.076c-0.274,0.624-0.168,1.222,0.077,1.813
	c0.286,0.691,0.573,1.382,0.892,2.057c0.227,0.476,0.506,0.924,0.763,1.386c0.041,0,0.081-0.002,0.121-0.002
	c0.083-0.23,0.17-0.459,0.246-0.692c0.214-0.67,0.379-1.36,0.648-2.007c0.27-0.653,0.649-1.26,0.966-1.894
	c0.187-0.371,0.292-0.794,0.526-1.127c0.647-0.914,1.055-1.979,1.902-2.776c0.718-0.675,1.48-1.257,2.322-1.757
	c0.474-0.282,0.918-0.617,1.37-0.935c0.726-0.512,1.54-0.816,2.396-1.016c0.29-0.067,0.586-0.141,0.882-0.153
	c0.545-0.023,0.833,0.215,1.068,0.705c0.195,0.406,0.279,0.812,0.274,1.262c-0.009,0.488,0.249,0.646,0.715,0.49
	c0.654-0.217,0.871-0.097,0.981,0.598c0.075,0.492,0.098,0.993,0.17,1.487c0.097,0.67,0.221,1.337,0.328,2.005
	c0.147,0.91,0.281,1.824,0.447,2.73c0.048,0.256,0.24,0.489,0.271,0.745c0.118,0.956,0.589,1.79,0.919,2.667
	c0.275,0.723,0.815,1.294,1.489,1.71c0.026,0.016,0.058,0.027,0.084,0.045c0.601,0.381,0.86,0.385,1.345-0.14
	c0.569-0.615,0.947-1.339,1.1-2.19c0.117-0.657,0.33-1.3,0.53-1.94c0.216-0.691,0.473-1.369,0.697-2.057
	c0.135-0.415,0.241-0.839,0.36-1.259c0.016-0.05,0.023-0.106,0.048-0.152c0.384-0.673,0.519-1.436,0.771-2.156
	c0.212-0.6,0.707-0.958,1.229-1.276c0.446-0.271,0.888-0.547,1.334-0.816c0.233-0.141,0.463-0.296,0.712-0.403
	c0.46-0.195,0.9,0.064,1.039,0.55c0.119,0.417,0.119,0.812-0.004,1.227c-0.076,0.253-0.053,0.534-0.12,0.79
	c-0.136,0.513-0.296,1.02-0.458,1.525c-0.258,0.8-0.516,1.599-0.793,2.391c-0.08,0.229-0.216,0.44-0.344,0.65
	c-0.465,0.764-0.965,1.509-1.396,2.292c-0.288,0.526-0.388,1.105-0.091,1.688c0.515,1.012,0.57,0.726,1.806,0.608
	c0.414-0.039,0.818-0.216,1.221-0.348c0.63-0.208,1.075-0.695,1.588-1.078c0.425-0.318,0.862-0.62,1.294-0.929
	c0.215-0.154,0.436-0.301,0.647-0.462c0.633-0.483,1.248-0.989,1.893-1.456c1.146-0.828,2.29-1.661,3.467-2.443
	c0.672-0.445,1.401-0.811,2.12-1.18c0.217-0.11,0.827,0.4,1.076,0.387c0.221-0.013,2.477,1.58,2.447,1.788
	c-0.035,0.239-0.109,0.474-0.167,0.71c-0.073,0.306-0.127,0.619-0.222,0.917c-0.165,0.517-0.349,1.029-0.536,1.538
	c-0.142,0.387-0.289,0.771-0.459,1.146c-0.213,0.475-0.437,0.946-0.683,1.405c-0.278,0.521-0.608,1.018-0.875,1.543
	c-0.233,0.453-0.39,0.943-0.626,1.394c-0.712,1.358-1.449,2.702-2.17,4.056c-0.12,0.225-0.197,0.473-0.314,0.699
	c-0.143,0.271-0.308,0.532-0.458,0.8c-0.402,0.714-0.805,1.426-1.202,2.143c-0.215,0.389-0.453,0.771-0.616,1.184
	c-0.248,0.621-0.528,1.211-0.944,1.75c-0.273,0.354-0.396,0.822-0.613,1.225c-0.291,0.541-0.628,1.059-0.912,1.605
	c-0.18,0.346-0.294,0.729-0.446,1.09c-0.508,1.209-1.019,2.417-1.53,3.624c-0.412,0.968-0.79,1.954-1.258,2.894
	c-0.174,0.348-0.527,0.643-0.863,0.867c-0.812,0.545-3.486,0.098-4.329,0.596c-0.114,0.066-0.312,0.067-0.433,0.016
	c-0.066-0.03-0.107-0.258-0.068-0.361c0.093-0.242,0.189-0.523,0.375-0.688c0.699-0.625,1.09-1.438,1.468-2.262
	c0.533-1.16,1.055-2.328,1.581-3.49c0.228-0.502,0.438-1.01,0.689-1.501C47.771,68.664,47.996,68.369,48.213,68.033z M12.474,54.285
	c0.193-0.115,0.441-0.18,0.545-0.34c0.28-0.424,0.521-0.877,0.736-1.34c0.217-0.46,0.384-0.943,0.568-1.418
	c0.237-0.61,0.575-1.173,0.691-1.839c0.103-0.589,0.035-1.138-0.112-1.695c-0.076-0.287-0.15-0.573-0.234-0.856
	c-0.058-0.203-0.073-0.447-0.199-0.596c-0.514-0.607-0.56-1.396-0.847-2.088c-0.206-0.493-0.26-1.048-0.419-1.564
	c-0.201-0.653-0.233-0.653-0.818-0.336c-0.039,0.021-0.078,0.036-0.116,0.056c-0.469,0.247-0.954,0.468-1.401,0.75
	c-0.375,0.237-0.703,0.55-1.061,0.82c-0.245,0.187-0.482,0.403-0.758,0.529c-0.447,0.206-0.859,0.436-1.21,0.792
	c-0.389,0.391-0.843,0.718-1.22,1.118c-0.327,0.345-0.628,0.728-0.865,1.137c-0.286,0.492-0.578,1.01-0.714,1.555
	c-0.2,0.792,0.197,1.477,0.671,2.086c0.657,0.845,1.546,1.409,2.504,1.835c0.796,0.356,1.635,0.615,2.465,0.889
	C11.253,53.969,11.844,54.109,12.474,54.285z M25.121,48.738c0.023,0.007,0.043,0.013,0.066,0.02c0.027,0.394,0.041,0.79,0.09,1.18
	c0.024,0.186,0.094,0.375,0.184,0.54c0.16,0.298,0.374,0.313,0.611,0.065c0.15-0.161,0.282-0.339,0.438-0.494
	c0.267-0.267,0.575-0.498,0.812-0.789c0.349-0.425,0.671-0.879,0.969-1.342c0.412-0.642,0.851-1.277,1.171-1.966
	c0.349-0.746,0.569-1.554,0.854-2.331c0.255-0.7,0.195-1.405,0.034-2.107c-0.024-0.102-0.182-0.244-0.276-0.243
	c-0.221,0.002-0.473,0.03-0.651,0.141c-0.237,0.145-0.428,0.371-0.621,0.579c-0.622,0.667-1.237,1.34-1.848,2.017
	c-0.09,0.1-0.137,0.236-0.197,0.36c-0.075,0.15-0.138,0.306-0.216,0.454c-0.216,0.413-0.479,0.806-0.647,1.237
	c-0.204,0.521-0.333,1.073-0.488,1.614C25.305,48.026,25.216,48.383,25.121,48.738z M30.145,49.161
	c-0.169,0.064-0.293,0.076-0.363,0.143c-0.503,0.496-1,1-1.492,1.508c-0.436,0.447-0.858,0.908-1.295,1.354
	c-0.295,0.3-0.283,0.542,0.066,0.788c0.149,0.104,0.301,0.207,0.462,0.289c0.333,0.167,0.653,0.238,0.938-0.113
	c0.111-0.137,0.297-0.214,0.416-0.346c0.147-0.162,0.299-0.336,0.383-0.532c0.18-0.416,0.342-0.845,0.463-1.28
	C29.88,50.409,29.99,49.834,30.145,49.161z M17.587,37.061c-0.01,0.001-0.02,0.001-0.028,0.001c0.021,0.168-0.003,0.362,0.074,0.495
	c0.074,0.123,0.25,0.228,0.393,0.251c0.092,0.014,0.275-0.122,0.301-0.22c0.218-0.831,0.412-1.668,0.604-2.505
	c0.016-0.067-0.014-0.188-0.062-0.216c-0.055-0.033-0.168-0.013-0.233,0.025c-0.209,0.124-0.44,0.235-0.604,0.407
	c-0.163,0.169-0.319,0.395-0.363,0.617C17.593,36.289,17.608,36.679,17.587,37.061z"/>
</svg>
