<?xml version="1.0" encoding="iso-8859-1"?>
<!-- Generator: Adobe Illustrator 18.1.1, SVG Export Plug-In . SVG Version: 6.00 Build 0)  -->
<svg version="1.1" id="Layer_1" xmlns="http://www.w3.org/2000/svg" xmlns:xlink="http://www.w3.org/1999/xlink" x="0px" y="0px"
	 viewBox="0 0 100 100" style="enable-background:new 0 0 100 100;" xml:space="preserve">
<g>
	<path style="fill-rule:evenodd;clip-rule:evenodd;" d="M76.862,54.432c0.066-2.208,0.093-4.314,0.2-6.411
		c0.089-1.681,0.291-3.35,0.402-5.029c0.046-0.68,0.002-1.375-0.026-2.062c-0.043-0.995-0.111-1.986-0.159-2.98
		c-0.041-0.824-0.031-1.658-0.118-2.472c-0.091-0.863-0.268-1.708-0.409-2.561c-0.011-0.068-0.047-0.139-0.038-0.199
		c0.17-1.274-0.448-2.151-0.867-3.083c-0.249-0.554-0.521-1.033-0.448-1.706c0.034-0.316,0.098-0.662,0.227-0.917
		c0.444-0.883,0.652-2.08,1.563-2.37c0.022-0.007,0.04-0.04,0.061-0.059c0.621-0.62,0.847-0.559,1.341,0.199
		c0.575,0.88,0.753,2.008,1.065,3.055c0.084,0.284,0.135,0.585,0.212,0.875c0.018,0.076,0.063,0.162,0.114,0.197
		c0.487,0.332,0.969,0.691,1.471,0.972c0.385,0.214,0.8,0.321,1.197,0.487c0.715,0.297,1.236,0.785,1.296,1.977
		c0.055,1.105,0.084,2.188-0.082,3.276c-0.034,0.228,0.03,0.486-0.01,0.71c-0.156,0.882-0.335,1.755-0.508,2.631
		c-0.18,0.917-0.352,1.835-0.545,2.746c-0.086,0.407-0.215,0.797-0.323,1.196c-0.019,0.064-0.044,0.127-0.051,0.193
		c-0.152,1.451-0.348,2.897-0.441,4.357c-0.111,1.764-0.143,3.539-0.199,5.311c-0.037,1.149-0.054,2.299-0.09,3.447
		c-0.022,0.68-0.694,1.338-1.29,1.24c-0.459-0.075-0.878,0.06-1.311,0.256c-0.438,0.197-0.842,0.173-1.335-0.073
		c-0.828-0.413-0.639-1.372-0.83-2.122C76.838,55.152,76.877,54.726,76.862,54.432z"/>
</g>
<g>
	<path style="fill-rule:evenodd;clip-rule:evenodd;" d="M86.621,43.318c0.147-1.498,0.26-3.29,0.52-5.046
		c0.152-1.028,0.537-1.998,0.815-2.995c0.182-0.649,0.359-1.299,0.538-1.948c0.061-0.217,0.111-0.439,0.177-0.654
		c0.158-0.526,0.308-1.058,0.489-1.572c0.284-0.819,0.778-1.387,1.388-1.803c0.039-0.026,0.087-0.035,0.131-0.041
		c0.315-0.039,1.144,0.684,1.218,1.094c0.173,0.964,0.346,1.931,0.485,2.903c0.093,0.658-0.25,1.121-0.524,1.606
		c-0.127,0.223-0.283,0.459-0.323,0.717c-0.131,0.825-0.215,1.663-0.316,2.496c-0.076,0.641-0.131,1.288-0.235,1.923
		c-0.124,0.754,0.008,1.448,0.183,2.159c0.081,0.339,0.029,0.729,0.088,1.083c0.138,0.825,0.278,1.651,0.471,2.458
		c0.146,0.624,0.45,1.197,0.547,1.828c0.211,1.366,1.015,2.017,1.769,2.807c0.536,0.561,0.96,1.338,0.888,2.35
		c-0.019,0.251-0.037,0.503-0.033,0.755c0.022,1.158-0.228,2.178-0.865,3.031c-0.308,0.41-0.541,0.923-0.875,1.287
		c-0.623,0.68-1.133,0.668-1.786,0c-0.957-0.977-1.72-2.168-2.284-3.565c-0.438-1.081-0.911-2.143-1.295-3.254
		c-0.228-0.66-0.327-1.396-0.457-2.107c-0.143-0.784-0.275-1.572-0.377-2.366C86.833,45.522,86.751,44.573,86.621,43.318z"/>
</g>
<path style="fill-rule:evenodd;clip-rule:evenodd;" d="M53.213,68.648c0.349,0.209,0.569,0.057,0.712-0.189
	c0.21-0.367,0.372-0.763,0.57-1.137c0.105-0.196,0.236-0.381,0.373-0.557c0.659-0.835,0.966-1.854,1.451-2.779
	c0.338-0.646,0.611-1.33,0.907-1.999c0.032-0.073,0.057-0.18,0.03-0.249c-0.222-0.562,0.071-1.008,0.31-1.474
	c0.24-0.472,0.455-0.956,0.684-1.433c0.32-0.664,0.647-1.321,0.961-1.986c0.178-0.377,0.325-0.768,0.508-1.141
	c0.209-0.434,0.461-0.845,0.655-1.282c0.171-0.388,0.265-0.808,0.433-1.196c0.396-0.916,0.644-1.875,0.834-2.849
	c0.053-0.268,0.084-0.55,0.058-0.819c-0.021-0.216-0.165-0.353-0.406-0.17c-0.374,0.282-0.763,0.547-1.132,0.833
	c-0.842,0.65-1.677,1.307-2.511,1.965c-0.501,0.395-0.985,0.805-1.493,1.187c-0.216,0.163-0.479,0.263-0.713,0.403
	c-0.352,0.207-0.693,0.436-1.051,0.631c-0.41,0.223-0.831,0.424-1.252,0.625c-0.46,0.219-0.922,0.436-1.39,0.636
	c-0.535,0.229-1.065,0.493-1.624,0.647c-1.049,0.289-2.389,0.053-3.109-0.927c-0.141-0.191-0.339-0.355-0.539-0.488
	c-0.094-0.062-0.275-0.06-0.388-0.013c-0.845,0.349-1.675,0.732-2.523,1.07c-0.39,0.154-0.797,0.172-1.22,0.026
	c-0.379-0.129-0.786-0.181-1.184-0.254c-0.812-0.148-1.319-0.672-1.769-1.325c-0.529-0.765-0.854-1.615-1.198-2.462
	c-0.037-0.088-0.087-0.177-0.151-0.245c-0.155-0.16-0.319-0.219-0.476,0.004c-0.044,0.061-0.094,0.119-0.131,0.183
	c-0.282,0.471-0.565,0.942-0.844,1.415c-0.164,0.278-0.27,0.612-0.488,0.836c-0.445,0.451-0.802,1.022-1.494,1.188
	c-0.252,0.06-0.48,0.221-0.711,0.355c-0.593,0.345-1.211,0.623-1.85,0.881c-0.987,0.398-1.976,0.469-3.006,0.325
	c-0.336-0.046-0.558,0.153-0.781,0.361c-0.429,0.402-0.896,0.726-1.508,0.804c-0.43,0.054-0.853,0.154-1.278,0.24
	c-0.393,0.082-0.65-0.02-0.854-0.407c-0.409-0.784-0.875-1.54-1.323-2.304c-0.145-0.244-0.273-0.508-0.466-0.713
	c-0.327-0.349-0.665-0.254-0.769,0.207c-0.091,0.404-0.148,0.818-0.211,1.23c-0.102,0.648-0.348,1.177-1.034,1.41
	c-0.521,0.179-1.013,0.453-1.544,0.592c-0.33,0.086-0.711,0.031-1.061-0.012c-0.39-0.051-0.768-0.188-1.158-0.236
	c-0.872-0.109-1.749-0.171-2.621-0.281c-0.59-0.073-1.219-0.094-1.753-0.319c-0.745-0.314-1.54-0.31-2.288-0.537
	c-0.577-0.175-1.102-0.44-1.564-0.84c-0.277-0.239-0.628-0.394-0.914-0.622c-0.359-0.292-0.748-0.578-1.014-0.948
	c-0.328-0.46-0.579-0.987-0.793-1.515c-0.141-0.35-0.18-0.746-0.227-1.126c-0.146-1.203,0.079-2.336,0.691-3.387
	c0.247-0.422,0.483-0.851,0.75-1.261c0.118-0.185,0.287-0.338,0.445-0.494c0.451-0.45,0.892-0.911,1.366-1.335
	c0.424-0.381,0.91-0.693,1.328-1.081c0.829-0.773,1.784-1.372,2.721-2c0.556-0.373,1.061-0.824,1.638-1.162
	c0.853-0.5,1.747-0.933,2.625-1.392c0.208-0.107,0.436-0.182,0.629-0.31c0.115-0.076,0.242-0.218,0.26-0.344
	c0.076-0.547,0.071-1.108,0.178-1.648c0.155-0.789,0.367-1.568,0.583-2.345c0.121-0.44,0.278-0.874,0.454-1.296
	c0.228-0.559,0.501-1.1,0.735-1.657c0.173-0.409,0.279-0.85,0.478-1.243c0.451-0.894,0.929-1.776,1.421-2.648
	c0.321-0.569,0.653-1.137,1.041-1.662c0.299-0.406,0.691-0.742,1.041-1.109c0.21-0.221,0.387-0.491,0.636-0.651
	c0.811-0.519,1.646-0.999,2.476-1.491c0.065-0.039,0.144-0.056,0.195-0.106c0.336-0.317,0.735-0.3,1.056-0.068
	c0.325,0.235,0.441,0.637,0.433,1.057c-0.017,0.796-0.059,1.595-0.028,2.39c0.028,0.711,0.146,1.419,0.222,2.128
	c0.046,0.421-0.003,0.811-0.186,1.214c-0.14,0.308-0.108,0.69-0.178,1.034c-0.059,0.298-0.157,0.586-0.228,0.882
	c-0.072,0.301-0.115,0.608-0.202,0.905c-0.073,0.25-0.208,0.482-0.286,0.731c-0.067,0.216-0.102,0.443-0.136,0.667
	c-0.034,0.205,0.007,0.442-0.083,0.614c-0.462,0.903-0.697,1.869-0.859,2.86c-0.023,0.135-0.09,0.262-0.112,0.397
	c-0.05,0.274-0.083,0.552-0.125,0.827c-0.021,0.146-0.04,0.293-0.07,0.437c-0.086,0.396-0.212,0.788-0.251,1.188
	c-0.021,0.216,0.074,0.459,0.166,0.67c0.114,0.261,0.286,0.499,0.422,0.752c0.303,0.571,0.144,1.592-0.253,2.108
	c-0.257,0.335-0.565,0.556-0.954,0.641c-0.601,0.133-0.858,0.569-1.083,1.076c-0.274,0.624-0.168,1.221,0.077,1.812
	c0.286,0.691,0.573,1.382,0.892,2.057c0.227,0.476,0.506,0.924,0.763,1.386c0.041-0.001,0.081-0.001,0.121-0.002
	c0.083-0.23,0.17-0.46,0.246-0.693c0.214-0.67,0.379-1.36,0.648-2.007c0.27-0.653,0.649-1.26,0.966-1.894
	c0.187-0.372,0.292-0.794,0.526-1.127c0.647-0.914,1.055-1.979,1.902-2.776c0.718-0.675,1.48-1.257,2.322-1.758
	c0.474-0.282,0.918-0.616,1.37-0.935c0.726-0.512,1.54-0.816,2.396-1.015c0.29-0.068,0.586-0.142,0.882-0.154
	c0.545-0.022,0.833,0.215,1.068,0.705c0.195,0.406,0.279,0.812,0.274,1.262c-0.009,0.489,0.249,0.646,0.715,0.491
	c0.654-0.218,0.871-0.097,0.981,0.597c0.075,0.493,0.098,0.994,0.17,1.487c0.097,0.669,0.221,1.336,0.328,2.005
	c0.147,0.91,0.281,1.824,0.447,2.73c0.048,0.256,0.24,0.489,0.271,0.745c0.118,0.956,0.589,1.791,0.919,2.667
	c0.275,0.723,0.815,1.294,1.489,1.71c0.026,0.017,0.058,0.028,0.084,0.045c0.601,0.381,0.86,0.385,1.345-0.139
	c0.569-0.616,0.947-1.34,1.1-2.191c0.117-0.657,0.33-1.3,0.53-1.94c0.216-0.691,0.473-1.369,0.697-2.057
	c0.135-0.415,0.241-0.839,0.36-1.258c0.016-0.051,0.023-0.107,0.048-0.153c0.384-0.673,0.519-1.435,0.771-2.156
	c0.212-0.6,0.707-0.958,1.229-1.276c0.446-0.27,0.888-0.547,1.334-0.816c0.233-0.142,0.463-0.297,0.712-0.403
	c0.46-0.195,0.9,0.064,1.039,0.55c0.119,0.417,0.119,0.812-0.004,1.227c-0.076,0.253-0.053,0.534-0.12,0.79
	c-0.136,0.514-0.296,1.021-0.458,1.525c-0.258,0.8-0.516,1.599-0.793,2.392c-0.08,0.228-0.216,0.439-0.344,0.649
	c-0.465,0.765-0.965,1.509-1.396,2.292c-0.288,0.525-0.388,1.105-0.091,1.688c0.515,1.012,0.57,0.725,1.806,0.607
	c0.414-0.039,0.818-0.215,1.221-0.348c0.63-0.207,1.075-0.695,1.588-1.078c0.425-0.318,0.862-0.62,1.294-0.928
	c0.215-0.154,0.436-0.302,0.647-0.463c0.633-0.483,1.248-0.989,1.893-1.456c1.146-0.828,2.29-1.661,3.467-2.443
	c0.672-0.446,1.401-0.811,2.12-1.18c0.217-0.11,0.827,0.401,1.076,0.387c0.221-0.012,2.477,1.58,2.447,1.788
	c-0.035,0.239-0.109,0.474-0.167,0.71c-0.073,0.306-0.127,0.618-0.222,0.917c-0.165,0.517-0.349,1.029-0.536,1.539
	c-0.142,0.386-0.289,0.771-0.459,1.146c-0.213,0.475-0.437,0.945-0.683,1.404c-0.278,0.522-0.607,1.018-0.875,1.545
	c-0.233,0.451-0.39,0.942-0.626,1.393c-0.712,1.357-1.449,2.701-2.17,4.055c-0.12,0.225-0.197,0.473-0.314,0.699
	c-0.143,0.272-0.308,0.533-0.458,0.801c-0.402,0.713-0.805,1.426-1.202,2.142c-0.215,0.389-0.453,0.771-0.616,1.184
	c-0.248,0.623-0.528,1.211-0.944,1.75c-0.273,0.356-0.396,0.822-0.613,1.225c-0.291,0.541-0.628,1.059-0.912,1.605
	c-0.18,0.347-0.294,0.729-0.446,1.091c-0.508,1.209-1.019,2.416-1.53,3.623c-0.412,0.968-0.79,1.954-1.258,2.893
	c-0.174,0.349-0.527,0.643-0.863,0.867c-0.812,0.545-3.486,0.099-4.329,0.596c-0.114,0.066-0.312,0.068-0.433,0.016
	c-0.066-0.029-0.107-0.258-0.068-0.36c0.093-0.243,0.189-0.523,0.375-0.688c0.699-0.624,1.09-1.437,1.468-2.262
	c0.533-1.16,1.055-2.327,1.581-3.49c0.228-0.5,0.438-1.01,0.689-1.5C52.771,69.28,52.996,68.985,53.213,68.648z M17.474,54.9
	c0.193-0.115,0.441-0.18,0.545-0.339c0.28-0.424,0.521-0.878,0.736-1.341c0.217-0.459,0.384-0.943,0.568-1.418
	c0.237-0.609,0.575-1.173,0.691-1.839c0.103-0.589,0.035-1.138-0.112-1.694c-0.076-0.286-0.15-0.573-0.234-0.857
	c-0.058-0.202-0.073-0.446-0.199-0.595c-0.514-0.608-0.56-1.397-0.847-2.088c-0.206-0.494-0.26-1.049-0.419-1.565
	c-0.201-0.652-0.233-0.653-0.818-0.335c-0.039,0.02-0.078,0.035-0.116,0.055c-0.469,0.247-0.954,0.468-1.401,0.75
	c-0.375,0.236-0.703,0.549-1.061,0.819c-0.245,0.188-0.482,0.403-0.758,0.53c-0.447,0.205-0.859,0.435-1.21,0.791
	c-0.389,0.392-0.843,0.718-1.22,1.118c-0.327,0.345-0.628,0.728-0.865,1.137c-0.286,0.493-0.578,1.011-0.714,1.556
	c-0.2,0.792,0.197,1.477,0.671,2.085c0.657,0.845,1.546,1.409,2.504,1.835c0.796,0.356,1.635,0.617,2.465,0.891
	C16.253,54.586,16.844,54.725,17.474,54.9z M30.121,49.354c0.023,0.007,0.043,0.013,0.066,0.02c0.027,0.395,0.041,0.791,0.09,1.181
	c0.024,0.186,0.094,0.374,0.184,0.54c0.16,0.298,0.374,0.314,0.611,0.064c0.15-0.161,0.282-0.338,0.438-0.493
	c0.267-0.267,0.575-0.499,0.812-0.79c0.349-0.425,0.671-0.878,0.969-1.342c0.412-0.642,0.851-1.277,1.171-1.966
	c0.349-0.746,0.569-1.554,0.854-2.332c0.255-0.701,0.195-1.405,0.034-2.107c-0.024-0.102-0.182-0.244-0.276-0.243
	c-0.221,0.002-0.473,0.03-0.651,0.141c-0.237,0.145-0.428,0.371-0.621,0.579c-0.622,0.667-1.237,1.339-1.848,2.017
	c-0.09,0.1-0.137,0.237-0.197,0.361c-0.075,0.15-0.138,0.306-0.216,0.454c-0.216,0.413-0.479,0.806-0.647,1.238
	c-0.204,0.521-0.333,1.072-0.488,1.614C30.305,48.642,30.216,48.999,30.121,49.354z M35.145,49.777
	c-0.169,0.064-0.293,0.076-0.363,0.142c-0.503,0.496-1,1.001-1.492,1.509c-0.436,0.447-0.858,0.908-1.295,1.354
	c-0.295,0.301-0.283,0.542,0.066,0.788c0.149,0.104,0.301,0.206,0.462,0.288c0.333,0.168,0.653,0.238,0.938-0.112
	c0.111-0.138,0.297-0.214,0.416-0.347c0.147-0.161,0.299-0.336,0.383-0.531c0.18-0.416,0.342-0.845,0.463-1.281
	C34.88,51.025,34.99,50.45,35.145,49.777z M22.587,37.676c-0.01,0.001-0.02,0.002-0.028,0.002c0.021,0.167-0.003,0.361,0.074,0.494
	c0.074,0.123,0.25,0.229,0.393,0.251c0.092,0.014,0.275-0.122,0.301-0.22c0.218-0.831,0.412-1.668,0.604-2.504
	c0.016-0.067-0.014-0.188-0.062-0.216c-0.055-0.033-0.168-0.013-0.233,0.025c-0.209,0.124-0.44,0.235-0.604,0.407
	c-0.163,0.169-0.319,0.395-0.363,0.618C22.593,36.905,22.608,37.295,22.587,37.676z"/>
</svg>
