<?xml version="1.0" encoding="iso-8859-1"?>
<!-- Generator: Adobe Illustrator 18.1.1, SVG Export Plug-In . SVG Version: 6.00 Build 0)  -->
<svg version="1.1" id="Layer_1" xmlns="http://www.w3.org/2000/svg" xmlns:xlink="http://www.w3.org/1999/xlink" x="0px" y="0px"
	 viewBox="0 0 100 100" style="enable-background:new 0 0 100 100;" xml:space="preserve">
<path style="fill-rule:evenodd;clip-rule:evenodd;" d="M59.456,67.98c0.348,0.209,0.568,0.057,0.711-0.189
	c0.21-0.367,0.372-0.763,0.57-1.137c0.104-0.196,0.236-0.381,0.374-0.557c0.658-0.836,0.966-1.853,1.449-2.779
	c0.339-0.646,0.611-1.33,0.908-1.999c0.032-0.074,0.057-0.181,0.03-0.249c-0.222-0.563,0.072-1.008,0.31-1.475
	c0.239-0.471,0.455-0.955,0.685-1.432c0.319-0.664,0.646-1.321,0.96-1.986c0.179-0.377,0.325-0.768,0.508-1.142
	c0.209-0.432,0.462-0.845,0.656-1.282c0.171-0.387,0.265-0.807,0.433-1.195c0.395-0.917,0.643-1.875,0.833-2.849
	c0.053-0.269,0.084-0.55,0.058-0.82c-0.02-0.215-0.164-0.351-0.406-0.169c-0.374,0.282-0.762,0.547-1.132,0.833
	c-0.841,0.65-1.677,1.308-2.511,1.966c-0.5,0.394-0.984,0.805-1.492,1.187c-0.217,0.163-0.479,0.263-0.715,0.402
	c-0.352,0.208-0.691,0.437-1.051,0.632c-0.408,0.223-0.83,0.424-1.252,0.625c-0.458,0.219-0.921,0.436-1.389,0.635
	c-0.536,0.23-1.065,0.494-1.624,0.648c-1.05,0.289-2.389,0.053-3.108-0.927c-0.143-0.192-0.339-0.356-0.54-0.488
	c-0.095-0.062-0.275-0.06-0.387-0.014c-0.846,0.349-1.676,0.733-2.523,1.07c-0.39,0.154-0.797,0.172-1.221,0.027
	c-0.379-0.13-0.785-0.181-1.184-0.255c-0.812-0.148-1.318-0.671-1.769-1.324c-0.528-0.765-0.853-1.615-1.198-2.462
	c-0.037-0.089-0.086-0.177-0.15-0.245c-0.155-0.161-0.32-0.219-0.477,0.003c-0.044,0.062-0.093,0.12-0.131,0.184
	c-0.282,0.471-0.566,0.941-0.844,1.415c-0.163,0.277-0.269,0.612-0.487,0.836c-0.447,0.451-0.803,1.022-1.495,1.188
	c-0.251,0.059-0.481,0.222-0.711,0.355c-0.593,0.344-1.211,0.623-1.851,0.881c-0.986,0.398-1.975,0.469-3.005,0.325
	c-0.335-0.047-0.557,0.152-0.781,0.36c-0.429,0.402-0.896,0.727-1.508,0.804c-0.43,0.055-0.854,0.154-1.278,0.241
	c-0.393,0.082-0.65-0.02-0.854-0.408c-0.409-0.784-0.876-1.539-1.323-2.303c-0.144-0.244-0.273-0.508-0.467-0.713
	c-0.326-0.349-0.664-0.254-0.768,0.207c-0.092,0.404-0.148,0.818-0.211,1.23c-0.102,0.648-0.348,1.177-1.033,1.41
	c-0.521,0.179-1.014,0.452-1.545,0.592c-0.329,0.086-0.711,0.031-1.06-0.013c-0.39-0.05-0.769-0.187-1.158-0.236
	c-0.872-0.108-1.75-0.171-2.622-0.28c-0.59-0.073-1.218-0.094-1.753-0.32c-0.745-0.314-1.54-0.309-2.288-0.537
	c-0.576-0.175-1.102-0.439-1.564-0.84c-0.278-0.238-0.628-0.393-0.914-0.622c-0.36-0.291-0.749-0.578-1.014-0.948
	c-0.329-0.46-0.58-0.986-0.793-1.514c-0.142-0.35-0.181-0.746-0.228-1.126c-0.144-1.203,0.08-2.336,0.691-3.387
	c0.247-0.422,0.485-0.851,0.751-1.261c0.118-0.184,0.287-0.338,0.445-0.493c0.451-0.45,0.893-0.911,1.366-1.335
	c0.425-0.38,0.91-0.693,1.327-1.081c0.831-0.773,1.785-1.372,2.722-2c0.555-0.373,1.062-0.824,1.638-1.161
	c0.854-0.5,1.747-0.934,2.626-1.392c0.208-0.108,0.436-0.182,0.629-0.31c0.115-0.077,0.242-0.218,0.26-0.344
	c0.076-0.546,0.07-1.108,0.177-1.647c0.156-0.789,0.368-1.568,0.582-2.345c0.123-0.44,0.28-0.874,0.454-1.296
	c0.23-0.559,0.502-1.1,0.737-1.657c0.172-0.409,0.278-0.85,0.477-1.243c0.451-0.894,0.929-1.776,1.422-2.648
	c0.32-0.569,0.653-1.137,1.041-1.663c0.298-0.405,0.691-0.741,1.04-1.108c0.211-0.221,0.387-0.491,0.636-0.651
	c0.812-0.519,1.647-0.998,2.476-1.491c0.063-0.039,0.144-0.056,0.195-0.106c0.336-0.317,0.735-0.3,1.057-0.069
	c0.325,0.236,0.44,0.637,0.433,1.057c-0.019,0.796-0.061,1.595-0.028,2.39c0.028,0.711,0.146,1.419,0.222,2.128
	c0.045,0.422-0.004,0.811-0.187,1.214c-0.139,0.309-0.108,0.69-0.177,1.034c-0.06,0.297-0.157,0.586-0.229,0.882
	c-0.07,0.3-0.114,0.608-0.201,0.905c-0.073,0.25-0.207,0.482-0.285,0.73c-0.067,0.216-0.102,0.443-0.137,0.667
	c-0.033,0.205,0.008,0.442-0.082,0.614c-0.464,0.903-0.698,1.869-0.86,2.859c-0.022,0.135-0.089,0.262-0.112,0.396
	c-0.05,0.274-0.082,0.552-0.124,0.827c-0.021,0.146-0.04,0.293-0.071,0.437c-0.085,0.396-0.211,0.788-0.251,1.187
	c-0.021,0.217,0.075,0.46,0.167,0.671c0.114,0.261,0.286,0.499,0.421,0.752c0.303,0.571,0.144,1.592-0.252,2.107
	c-0.258,0.335-0.566,0.556-0.955,0.641c-0.601,0.134-0.857,0.569-1.083,1.076c-0.274,0.624-0.168,1.221,0.077,1.812
	c0.286,0.691,0.573,1.382,0.893,2.057c0.226,0.476,0.506,0.924,0.762,1.386c0.04,0,0.082-0.001,0.121-0.002
	c0.083-0.23,0.171-0.459,0.245-0.693c0.215-0.67,0.381-1.36,0.649-2.007c0.271-0.652,0.649-1.26,0.967-1.894
	c0.185-0.371,0.291-0.794,0.526-1.127c0.646-0.915,1.054-1.979,1.901-2.776c0.718-0.675,1.481-1.258,2.322-1.758
	c0.475-0.282,0.919-0.616,1.371-0.935c0.725-0.512,1.539-0.816,2.396-1.015c0.29-0.068,0.586-0.142,0.881-0.154
	c0.545-0.022,0.833,0.215,1.069,0.705c0.195,0.406,0.279,0.813,0.274,1.262c-0.008,0.489,0.25,0.646,0.716,0.49
	c0.654-0.218,0.87-0.097,0.981,0.597c0.076,0.493,0.098,0.993,0.17,1.487c0.097,0.67,0.22,1.336,0.328,2.005
	c0.149,0.91,0.282,1.824,0.447,2.73c0.048,0.256,0.24,0.489,0.271,0.745c0.118,0.956,0.59,1.79,0.92,2.667
	c0.274,0.723,0.815,1.294,1.488,1.71c0.026,0.017,0.059,0.028,0.085,0.045c0.6,0.381,0.859,0.385,1.344-0.139
	c0.57-0.616,0.948-1.339,1.1-2.191c0.117-0.657,0.331-1.301,0.53-1.94c0.217-0.691,0.474-1.369,0.698-2.057
	c0.134-0.415,0.24-0.839,0.359-1.258c0.017-0.051,0.022-0.107,0.047-0.153c0.386-0.673,0.52-1.436,0.771-2.156
	c0.213-0.601,0.708-0.958,1.23-1.276c0.445-0.27,0.887-0.547,1.333-0.816c0.233-0.141,0.464-0.297,0.713-0.403
	c0.459-0.196,0.899,0.064,1.038,0.549c0.119,0.417,0.118,0.812-0.005,1.227c-0.075,0.253-0.052,0.534-0.119,0.79
	c-0.135,0.513-0.296,1.02-0.457,1.525c-0.259,0.799-0.517,1.599-0.794,2.391c-0.079,0.229-0.215,0.44-0.343,0.65
	c-0.466,0.764-0.965,1.508-1.397,2.292c-0.288,0.525-0.387,1.105-0.091,1.688c0.515,1.011,0.57,0.725,1.806,0.607
	c0.414-0.039,0.817-0.216,1.22-0.348c0.631-0.207,1.077-0.695,1.59-1.079c0.425-0.317,0.861-0.619,1.293-0.928
	c0.216-0.154,0.438-0.301,0.647-0.462c0.634-0.483,1.248-0.989,1.893-1.456c1.146-0.828,2.29-1.661,3.468-2.443
	c0.671-0.446,1.4-0.811,2.12-1.18c0.216-0.11,0.826,0.4,1.075,0.386c0.221-0.012,2.477,1.58,2.447,1.788
	c-0.034,0.24-0.108,0.474-0.167,0.711c-0.072,0.306-0.126,0.618-0.222,0.917c-0.165,0.517-0.348,1.03-0.536,1.538
	c-0.142,0.386-0.289,0.772-0.459,1.146c-0.212,0.475-0.437,0.946-0.683,1.405c-0.278,0.523-0.606,1.018-0.876,1.544
	c-0.232,0.452-0.39,0.942-0.625,1.393c-0.711,1.357-1.448,2.701-2.17,4.055c-0.12,0.225-0.197,0.473-0.314,0.699
	c-0.143,0.271-0.307,0.533-0.458,0.8c-0.402,0.714-0.806,1.427-1.201,2.144c-0.216,0.389-0.454,0.771-0.618,1.184
	c-0.248,0.621-0.526,1.211-0.942,1.75c-0.273,0.355-0.396,0.822-0.613,1.225c-0.292,0.541-0.63,1.059-0.912,1.605
	c-0.181,0.347-0.295,0.729-0.446,1.091c-0.508,1.208-1.021,2.417-1.532,3.623c-0.411,0.968-0.789,1.954-1.258,2.894
	c-0.173,0.348-0.525,0.642-0.861,0.867c-0.812,0.545-3.487,0.099-4.329,0.595c-0.114,0.066-0.312,0.069-0.434,0.017
	c-0.066-0.029-0.107-0.258-0.068-0.36c0.093-0.243,0.19-0.523,0.375-0.688c0.699-0.625,1.09-1.438,1.469-2.262
	c0.533-1.16,1.055-2.327,1.581-3.49c0.228-0.5,0.438-1.01,0.689-1.5C59.015,68.611,59.239,68.317,59.456,67.98z M23.716,54.232
	c0.193-0.115,0.441-0.18,0.545-0.339c0.281-0.425,0.521-0.879,0.737-1.341c0.215-0.46,0.383-0.942,0.567-1.418
	c0.238-0.609,0.576-1.173,0.692-1.839c0.102-0.588,0.034-1.138-0.113-1.694c-0.076-0.286-0.15-0.573-0.233-0.858
	c-0.058-0.202-0.074-0.447-0.199-0.595c-0.515-0.608-0.56-1.396-0.849-2.088c-0.204-0.494-0.258-1.048-0.419-1.564
	c-0.2-0.652-0.233-0.654-0.816-0.336c-0.039,0.02-0.078,0.036-0.116,0.055c-0.469,0.247-0.955,0.468-1.401,0.75
	c-0.377,0.237-0.704,0.55-1.062,0.82c-0.243,0.188-0.481,0.403-0.757,0.53c-0.447,0.205-0.859,0.435-1.211,0.791
	c-0.387,0.392-0.841,0.718-1.219,1.118c-0.326,0.344-0.628,0.727-0.865,1.136c-0.286,0.494-0.577,1.011-0.715,1.556
	c-0.198,0.792,0.199,1.477,0.671,2.085c0.658,0.845,1.548,1.409,2.505,1.835c0.796,0.356,1.636,0.617,2.466,0.891
	C22.496,53.917,23.087,54.057,23.716,54.232z M36.364,48.685c0.021,0.007,0.042,0.013,0.064,0.02
	c0.028,0.394,0.042,0.79,0.092,1.181c0.023,0.186,0.093,0.374,0.184,0.54c0.159,0.297,0.374,0.314,0.61,0.064
	c0.149-0.16,0.283-0.337,0.439-0.493c0.266-0.267,0.574-0.499,0.812-0.789c0.349-0.425,0.671-0.878,0.968-1.342
	c0.412-0.642,0.851-1.277,1.171-1.966c0.348-0.746,0.568-1.554,0.853-2.331c0.257-0.7,0.197-1.405,0.034-2.108
	c-0.022-0.101-0.181-0.243-0.276-0.243c-0.22,0.002-0.471,0.03-0.651,0.141c-0.236,0.145-0.428,0.372-0.619,0.579
	c-0.622,0.667-1.237,1.34-1.848,2.017c-0.09,0.1-0.138,0.237-0.197,0.361c-0.075,0.15-0.139,0.306-0.216,0.454
	c-0.217,0.413-0.48,0.806-0.648,1.238c-0.205,0.521-0.332,1.073-0.487,1.614C36.547,47.974,36.458,48.331,36.364,48.685z
	 M41.388,49.108c-0.169,0.064-0.294,0.076-0.363,0.143c-0.504,0.496-1,1-1.493,1.508c-0.435,0.447-0.857,0.908-1.294,1.354
	c-0.296,0.3-0.285,0.542,0.066,0.788c0.148,0.104,0.3,0.206,0.461,0.288c0.333,0.168,0.653,0.238,0.938-0.112
	c0.112-0.138,0.296-0.214,0.416-0.347c0.148-0.161,0.299-0.336,0.384-0.531c0.18-0.417,0.341-0.845,0.462-1.281
	C41.121,50.357,41.233,49.781,41.388,49.108z M28.829,37.008c-0.01,0.001-0.019,0.001-0.027,0.002
	c0.021,0.167-0.004,0.361,0.074,0.494c0.073,0.122,0.249,0.227,0.393,0.25c0.091,0.014,0.275-0.122,0.301-0.22
	c0.218-0.83,0.411-1.667,0.603-2.504c0.016-0.067-0.014-0.188-0.061-0.216c-0.056-0.033-0.168-0.013-0.232,0.025
	c-0.21,0.124-0.441,0.235-0.606,0.407c-0.161,0.17-0.317,0.395-0.363,0.617C28.834,36.236,28.852,36.626,28.829,37.008z"/>
<g>
	<path style="fill-rule:evenodd;clip-rule:evenodd;" d="M82.271,55.593c0.059-1.972,0.082-3.853,0.179-5.726
		c0.077-1.501,0.258-2.992,0.358-4.492c0.042-0.607,0.001-1.229-0.023-1.841c-0.038-0.889-0.1-1.775-0.144-2.663
		c-0.036-0.736-0.026-1.48-0.104-2.208c-0.082-0.771-0.24-1.526-0.366-2.287c-0.01-0.061-0.041-0.124-0.035-0.178
		c0.152-1.137-0.398-1.921-0.773-2.752c-0.224-0.496-0.466-0.923-0.399-1.524c0.029-0.283,0.086-0.591,0.201-0.82
		c0.396-0.789,0.583-1.857,1.396-2.116c0.02-0.006,0.036-0.035,0.055-0.053c0.555-0.553,0.755-0.499,1.197,0.178
		c0.513,0.786,0.672,1.793,0.951,2.728c0.075,0.253,0.121,0.523,0.189,0.782c0.017,0.067,0.057,0.144,0.102,0.175
		c0.435,0.298,0.864,0.618,1.314,0.869c0.343,0.191,0.713,0.287,1.069,0.435c0.638,0.265,1.103,0.701,1.156,1.767
		c0.05,0.986,0.076,1.954-0.072,2.925c-0.031,0.203,0.026,0.435-0.009,0.634c-0.141,0.788-0.3,1.568-0.453,2.351
		c-0.161,0.817-0.315,1.638-0.487,2.452c-0.077,0.363-0.191,0.712-0.289,1.068c-0.016,0.057-0.039,0.113-0.046,0.172
		c-0.135,1.296-0.31,2.587-0.393,3.89c-0.101,1.577-0.128,3.161-0.179,4.743c-0.033,1.026-0.048,2.054-0.08,3.08
		c-0.021,0.605-0.62,1.193-1.152,1.107c-0.41-0.067-0.784,0.053-1.171,0.229c-0.39,0.176-0.752,0.154-1.191-0.065
		c-0.74-0.369-0.57-1.227-0.742-1.896C82.247,56.236,82.283,55.855,82.271,55.593z"/>
</g>
</svg>
