<?xml version="1.0" encoding="iso-8859-1"?>
<!-- Generator: Adobe Illustrator 18.1.1, SVG Export Plug-In . SVG Version: 6.00 Build 0)  -->
<svg version="1.1" id="Layer_1" xmlns="http://www.w3.org/2000/svg" xmlns:xlink="http://www.w3.org/1999/xlink" x="0px" y="0px"
	 viewBox="0 0 100 100" style="enable-background:new 0 0 100 100;" xml:space="preserve">
<path style="fill-rule:evenodd;clip-rule:evenodd;" d="M49.213,67.835c0.349,0.21,0.569,0.058,0.712-0.188
	c0.21-0.367,0.372-0.764,0.57-1.137c0.105-0.196,0.236-0.381,0.373-0.557c0.659-0.835,0.966-1.853,1.45-2.78
	c0.339-0.646,0.611-1.329,0.908-1.998c0.032-0.074,0.057-0.181,0.03-0.249c-0.222-0.563,0.071-1.008,0.31-1.475
	c0.239-0.472,0.455-0.955,0.684-1.433c0.32-0.662,0.647-1.32,0.961-1.986c0.178-0.376,0.325-0.767,0.508-1.141
	c0.209-0.433,0.461-0.845,0.655-1.281c0.171-0.388,0.265-0.808,0.433-1.196c0.396-0.918,0.644-1.874,0.834-2.85
	c0.053-0.269,0.084-0.549,0.058-0.819c-0.021-0.215-0.165-0.351-0.406-0.169c-0.374,0.282-0.763,0.547-1.132,0.833
	c-0.842,0.65-1.677,1.309-2.511,1.966c-0.501,0.394-0.985,0.806-1.493,1.186c-0.216,0.163-0.479,0.264-0.715,0.403
	c-0.352,0.207-0.691,0.438-1.05,0.632c-0.409,0.224-0.83,0.424-1.253,0.625c-0.458,0.22-0.92,0.435-1.388,0.635
	c-0.536,0.23-1.065,0.493-1.625,0.647c-1.05,0.29-2.388,0.053-3.108-0.926c-0.143-0.192-0.339-0.355-0.539-0.488
	c-0.096-0.062-0.275-0.06-0.388-0.013c-0.846,0.349-1.675,0.731-2.523,1.069c-0.39,0.154-0.797,0.173-1.22,0.027
	c-0.379-0.129-0.786-0.182-1.184-0.254c-0.812-0.149-1.319-0.671-1.769-1.326c-0.529-0.764-0.854-1.615-1.198-2.462
	c-0.037-0.087-0.087-0.177-0.151-0.244c-0.155-0.161-0.319-0.219-0.476,0.003c-0.045,0.062-0.094,0.12-0.131,0.185
	c-0.282,0.47-0.566,0.939-0.844,1.414c-0.164,0.278-0.27,0.612-0.488,0.835c-0.446,0.451-0.802,1.023-1.494,1.188
	c-0.252,0.06-0.482,0.222-0.711,0.354c-0.594,0.346-1.211,0.623-1.851,0.881c-0.986,0.399-1.976,0.469-3.005,0.327
	c-0.336-0.049-0.558,0.151-0.781,0.36c-0.429,0.402-0.896,0.725-1.508,0.803c-0.43,0.055-0.853,0.154-1.278,0.241
	c-0.393,0.082-0.65-0.02-0.854-0.407c-0.408-0.785-0.875-1.54-1.322-2.304c-0.145-0.244-0.273-0.509-0.467-0.712
	c-0.326-0.35-0.664-0.255-0.767,0.206c-0.092,0.404-0.148,0.818-0.211,1.229c-0.102,0.649-0.348,1.178-1.034,1.411
	c-0.521,0.179-1.013,0.452-1.544,0.592c-0.33,0.086-0.711,0.03-1.061-0.013c-0.39-0.05-0.769-0.187-1.158-0.235
	c-0.872-0.109-1.749-0.171-2.621-0.281c-0.59-0.073-1.219-0.095-1.754-0.319c-0.744-0.314-1.539-0.31-2.287-0.537
	c-0.577-0.176-1.103-0.439-1.564-0.841c-0.277-0.238-0.628-0.393-0.914-0.623c-0.359-0.29-0.748-0.576-1.014-0.946
	c-0.328-0.461-0.579-0.987-0.793-1.516c-0.141-0.349-0.18-0.745-0.228-1.125c-0.145-1.203,0.08-2.336,0.691-3.386
	c0.247-0.424,0.484-0.853,0.751-1.262c0.118-0.185,0.287-0.338,0.445-0.494c0.451-0.45,0.892-0.91,1.366-1.335
	c0.424-0.38,0.91-0.692,1.327-1.081c0.83-0.772,1.785-1.372,2.722-1.999c0.554-0.374,1.062-0.824,1.638-1.162
	c0.853-0.5,1.747-0.933,2.625-1.391c0.208-0.109,0.437-0.185,0.629-0.312c0.115-0.077,0.242-0.218,0.26-0.345
	c0.076-0.546,0.071-1.107,0.177-1.647c0.156-0.788,0.368-1.568,0.583-2.344c0.122-0.441,0.279-0.875,0.454-1.297
	c0.229-0.56,0.501-1.101,0.736-1.657c0.173-0.409,0.279-0.85,0.478-1.243c0.451-0.895,0.928-1.775,1.421-2.648
	c0.321-0.568,0.653-1.137,1.041-1.662c0.299-0.405,0.691-0.741,1.041-1.108c0.21-0.22,0.387-0.492,0.636-0.65
	c0.811-0.52,1.646-0.999,2.476-1.492c0.063-0.039,0.144-0.056,0.195-0.107c0.336-0.316,0.735-0.3,1.056-0.067
	c0.325,0.235,0.441,0.637,0.433,1.056c-0.017,0.797-0.059,1.596-0.028,2.391c0.028,0.711,0.146,1.419,0.222,2.128
	c0.046,0.423-0.003,0.812-0.186,1.214c-0.14,0.309-0.108,0.69-0.178,1.035c-0.059,0.297-0.157,0.586-0.229,0.881
	c-0.071,0.302-0.114,0.608-0.202,0.905c-0.072,0.249-0.207,0.481-0.285,0.73c-0.067,0.216-0.102,0.443-0.136,0.667
	c-0.034,0.205,0.007,0.441-0.083,0.614c-0.463,0.902-0.697,1.868-0.859,2.859c-0.023,0.136-0.09,0.262-0.112,0.398
	c-0.05,0.273-0.083,0.551-0.125,0.826c-0.021,0.147-0.04,0.293-0.07,0.437c-0.086,0.396-0.212,0.787-0.251,1.188
	c-0.021,0.217,0.074,0.46,0.166,0.671c0.114,0.262,0.286,0.498,0.422,0.753c0.303,0.57,0.144,1.592-0.253,2.107
	c-0.257,0.336-0.565,0.557-0.954,0.641c-0.601,0.135-0.858,0.57-1.083,1.077c-0.274,0.624-0.168,1.222,0.077,1.812
	c0.286,0.693,0.573,1.384,0.892,2.059c0.227,0.476,0.506,0.923,0.763,1.386c0.04,0,0.081-0.002,0.12-0.002
	c0.084-0.23,0.171-0.46,0.246-0.693c0.215-0.669,0.38-1.359,0.648-2.008c0.27-0.652,0.649-1.259,0.966-1.893
	c0.186-0.372,0.292-0.794,0.526-1.127c0.647-0.914,1.055-1.98,1.902-2.776c0.718-0.676,1.48-1.258,2.322-1.758
	c0.474-0.282,0.918-0.615,1.37-0.936c0.726-0.512,1.54-0.816,2.396-1.015c0.29-0.068,0.586-0.142,0.882-0.154
	c0.545-0.021,0.833,0.216,1.068,0.706c0.195,0.405,0.279,0.812,0.273,1.263c-0.008,0.487,0.25,0.644,0.716,0.489
	c0.654-0.219,0.871-0.097,0.981,0.597c0.075,0.493,0.098,0.993,0.17,1.487c0.097,0.67,0.219,1.336,0.328,2.005
	c0.147,0.91,0.281,1.823,0.447,2.73c0.048,0.257,0.24,0.49,0.271,0.744c0.118,0.957,0.589,1.792,0.919,2.668
	c0.273,0.724,0.815,1.293,1.489,1.71c0.026,0.017,0.058,0.028,0.084,0.046c0.601,0.38,0.859,0.384,1.345-0.14
	c0.569-0.616,0.947-1.34,1.1-2.191c0.117-0.657,0.33-1.3,0.53-1.94c0.216-0.69,0.473-1.368,0.697-2.057
	c0.135-0.415,0.241-0.839,0.36-1.259c0.016-0.051,0.023-0.106,0.047-0.152c0.385-0.673,0.52-1.435,0.771-2.155
	c0.212-0.6,0.707-0.959,1.229-1.276c0.446-0.271,0.888-0.548,1.334-0.816c0.233-0.142,0.463-0.297,0.712-0.403
	c0.46-0.195,0.9,0.064,1.038,0.55c0.12,0.417,0.118,0.812-0.004,1.226c-0.076,0.253-0.052,0.534-0.119,0.789
	c-0.136,0.514-0.296,1.021-0.458,1.527c-0.258,0.798-0.516,1.598-0.793,2.39c-0.08,0.229-0.216,0.44-0.344,0.65
	c-0.465,0.765-0.965,1.509-1.396,2.291c-0.288,0.525-0.388,1.105-0.091,1.688c0.515,1.011,0.57,0.725,1.806,0.606
	c0.414-0.039,0.816-0.215,1.219-0.346c0.632-0.208,1.077-0.696,1.59-1.079c0.425-0.318,0.862-0.619,1.294-0.928
	c0.215-0.154,0.436-0.302,0.647-0.463c0.633-0.483,1.248-0.989,1.893-1.456c1.146-0.827,2.29-1.66,3.467-2.442
	c0.672-0.446,1.401-0.812,2.12-1.18c0.217-0.111,0.827,0.4,1.076,0.387c0.221-0.012,2.477,1.58,2.447,1.787
	c-0.035,0.239-0.109,0.474-0.167,0.711c-0.073,0.305-0.127,0.617-0.222,0.917c-0.166,0.518-0.349,1.028-0.536,1.537
	c-0.142,0.388-0.289,0.773-0.459,1.147c-0.213,0.476-0.437,0.946-0.683,1.405c-0.278,0.522-0.608,1.018-0.876,1.545
	c-0.232,0.451-0.39,0.941-0.625,1.392c-0.712,1.358-1.449,2.702-2.17,4.056c-0.12,0.225-0.197,0.474-0.314,0.699
	c-0.143,0.272-0.308,0.532-0.458,0.8c-0.402,0.714-0.806,1.426-1.202,2.143c-0.215,0.389-0.453,0.771-0.617,1.183
	c-0.248,0.623-0.527,1.212-0.943,1.751c-0.273,0.356-0.396,0.823-0.613,1.224c-0.291,0.543-0.629,1.061-0.912,1.607
	c-0.18,0.346-0.294,0.729-0.446,1.089c-0.508,1.209-1.019,2.418-1.532,3.624c-0.41,0.968-0.788,1.954-1.257,2.893
	c-0.173,0.348-0.526,0.643-0.862,0.867c-0.812,0.544-3.486,0.099-4.329,0.595c-0.114,0.066-0.312,0.068-0.433,0.017
	c-0.066-0.03-0.107-0.258-0.068-0.36c0.093-0.243,0.189-0.523,0.374-0.688c0.7-0.625,1.091-1.438,1.469-2.262
	c0.533-1.16,1.055-2.327,1.581-3.49c0.228-0.5,0.438-1.009,0.689-1.501C48.771,68.468,48.996,68.173,49.213,67.835z M13.474,54.087
	c0.193-0.113,0.441-0.179,0.545-0.338c0.28-0.424,0.521-0.878,0.736-1.341c0.216-0.46,0.384-0.943,0.568-1.418
	c0.237-0.609,0.575-1.174,0.691-1.84c0.103-0.589,0.035-1.137-0.112-1.693c-0.076-0.287-0.15-0.573-0.234-0.857
	c-0.058-0.202-0.073-0.446-0.199-0.595c-0.514-0.608-0.56-1.397-0.848-2.089c-0.205-0.493-0.259-1.047-0.419-1.563
	c-0.2-0.652-0.233-0.653-0.817-0.337c-0.039,0.022-0.078,0.036-0.116,0.057c-0.469,0.248-0.954,0.467-1.401,0.75
	c-0.376,0.236-0.703,0.549-1.061,0.819c-0.244,0.188-0.482,0.403-0.757,0.53c-0.447,0.205-0.859,0.434-1.211,0.791
	c-0.388,0.392-0.842,0.719-1.22,1.117c-0.326,0.346-0.627,0.729-0.864,1.138c-0.286,0.493-0.578,1.01-0.715,1.555
	c-0.199,0.793,0.198,1.478,0.67,2.086c0.659,0.845,1.548,1.409,2.506,1.835c0.796,0.356,1.635,0.617,2.465,0.89
	C12.253,53.772,12.844,53.912,13.474,54.087z M26.121,48.54c0.021,0.008,0.043,0.013,0.064,0.021
	c0.029,0.394,0.043,0.79,0.092,1.181c0.024,0.186,0.094,0.374,0.184,0.54c0.16,0.297,0.374,0.313,0.611,0.064
	c0.149-0.16,0.282-0.338,0.438-0.494c0.267-0.266,0.574-0.497,0.812-0.787c0.349-0.426,0.671-0.879,0.969-1.344
	c0.412-0.642,0.85-1.277,1.171-1.966c0.347-0.747,0.567-1.554,0.853-2.331c0.257-0.7,0.197-1.406,0.035-2.107
	c-0.023-0.101-0.182-0.243-0.276-0.242c-0.22,0.002-0.472,0.029-0.651,0.142c-0.236,0.145-0.428,0.37-0.62,0.578
	c-0.622,0.667-1.237,1.34-1.848,2.017c-0.09,0.1-0.137,0.236-0.197,0.361c-0.075,0.149-0.138,0.305-0.216,0.454
	c-0.216,0.411-0.479,0.804-0.647,1.237c-0.205,0.521-0.333,1.072-0.488,1.613C26.305,47.829,26.216,48.186,26.121,48.54z
	 M31.145,48.964c-0.169,0.064-0.293,0.076-0.363,0.142c-0.503,0.496-1,1.001-1.492,1.508c-0.436,0.447-0.858,0.907-1.295,1.354
	c-0.295,0.3-0.285,0.541,0.066,0.788c0.149,0.104,0.301,0.206,0.462,0.287c0.333,0.168,0.653,0.239,0.938-0.111
	c0.111-0.138,0.296-0.215,0.416-0.347c0.146-0.161,0.299-0.336,0.383-0.532c0.18-0.416,0.342-0.845,0.463-1.28
	C30.879,50.213,30.99,49.637,31.145,48.964z M18.587,36.863c-0.01,0.003-0.02,0.003-0.028,0.003c0.021,0.167-0.004,0.36,0.074,0.494
	c0.074,0.122,0.25,0.227,0.393,0.251c0.092,0.014,0.275-0.121,0.301-0.22c0.218-0.831,0.411-1.668,0.604-2.505
	c0.016-0.067-0.014-0.188-0.062-0.216c-0.055-0.032-0.168-0.013-0.233,0.024c-0.21,0.124-0.44,0.235-0.605,0.407
	c-0.162,0.17-0.318,0.396-0.363,0.618C18.592,36.092,18.608,36.481,18.587,36.863z"/>
<g>
	<path style="fill-rule:evenodd;clip-rule:evenodd;" d="M73.149,56.036c0.064-2.186,0.091-4.273,0.198-6.351
		c0.086-1.665,0.286-3.319,0.398-4.983c0.045-0.673,0-1.362-0.027-2.043c-0.042-0.984-0.109-1.968-0.159-2.952
		c-0.04-0.818-0.029-1.643-0.114-2.448c-0.092-0.855-0.267-1.694-0.407-2.539c-0.01-0.065-0.045-0.136-0.038-0.196
		c0.17-1.261-0.442-2.131-0.858-3.053c-0.247-0.549-0.516-1.023-0.443-1.69c0.033-0.315,0.095-0.655,0.223-0.908
		c0.44-0.876,0.647-2.062,1.55-2.349c0.022-0.007,0.041-0.039,0.06-0.058c0.617-0.615,0.84-0.556,1.329,0.195
		c0.569,0.873,0.747,1.99,1.055,3.027c0.084,0.281,0.136,0.581,0.211,0.867c0.02,0.074,0.063,0.16,0.114,0.194
		c0.481,0.33,0.957,0.685,1.457,0.963c0.38,0.213,0.79,0.319,1.186,0.483c0.708,0.295,1.224,0.777,1.283,1.959
		c0.056,1.096,0.084,2.168-0.081,3.246c-0.034,0.225,0.029,0.482-0.01,0.703c-0.155,0.873-0.332,1.739-0.502,2.607
		c-0.179,0.907-0.349,1.816-0.541,2.72c-0.086,0.403-0.212,0.79-0.321,1.185c-0.017,0.062-0.042,0.126-0.049,0.191
		c-0.15,1.439-0.344,2.871-0.437,4.316c-0.111,1.747-0.142,3.506-0.198,5.261c-0.037,1.138-0.053,2.278-0.09,3.416
		c-0.021,0.673-0.687,1.324-1.277,1.229c-0.455-0.074-0.869,0.059-1.298,0.253c-0.434,0.196-0.835,0.171-1.323-0.072
		c-0.821-0.41-0.633-1.361-0.822-2.104C73.124,56.751,73.163,56.328,73.149,56.036z"/>
</g>
<g>
	<path style="fill-rule:evenodd;clip-rule:evenodd;" d="M95.789,36.921c0.72-0.349-0.155,0.777,0.491,0.481
		c0.095-0.044,0.279-0.034,0.323,0.035c0.296,0.462,0.717,0.251,1.065,0.209c0.401-0.049,0.55-0.033,0.562,0.407
		c0.012,0.478-0.016,0.958-0.037,1.435c-0.034,0.769-0.059,1.537-0.121,2.302c-0.105,1.243-0.247,2.482-0.356,3.728
		c-0.096,1.094-0.165,2.191-0.256,3.286c-0.026,0.322-0.091,0.64-0.122,0.962c-0.045,0.463-0.047,0.93-0.114,1.39
		c-0.137,0.943-0.316,1.88-0.453,2.823c-0.03,0.211,0.014,0.445,0.062,0.656c0.077,0.351,0.079,0.62-0.23,0.879
		c-0.27,0.225,0.545,0.289,0.31,0.57c-0.181,0.213-0.351,0.502-0.569,0.584c-0.439,0.16-0.656,0.541-0.902,0.919
		c-0.225,0.344-0.459,0.684-0.878,0.794c-0.104-0.481-0.195-0.943-0.31-1.396c-0.037-0.14-0.119-0.29-0.217-0.379
		c-0.551-0.5-0.723-1.15-0.57-1.93c0.117-0.602,0.074-1.176-0.058-1.765c-0.151-0.682-0.188-1.403-0.366-2.072
		c-0.16-0.596-0.232-1.184-0.267-1.803c-0.022-0.424-0.169-0.856-0.338-1.232c-0.063-0.135-0.396-0.234-0.541-0.164
		c-0.645,0.309-1.291,0.334-1.954,0.222c-0.045-0.008-0.097-0.026-0.139-0.013c-0.82,0.284-1.668,0.044-2.49,0.242
		c-0.281,0.066-0.557,0.257-0.805,0.442c-0.408,0.312-0.824,0.546-1.324,0.489c-0.033-0.004-0.075-0.023-0.104-0.009
		c-0.576,0.351-0.934-0.31-1.42-0.392c-0.073-0.012-0.186-0.414-0.125-0.548c0.18-0.4,0.038-0.704-0.154-0.961
		c-0.17-0.228-0.162-0.39-0.045-0.641c0.082-0.181,0.103-0.409,0.118-0.619c0.017-0.214-0.004-0.431-0.012-0.725
		c-0.357-0.29-0.169-0.859-0.238-1.326c-0.152-1.019-0.239-2.053-0.305-3.086c-0.06-0.901-0.075-1.811-0.071-2.715
		c0.004-0.478,0.037-0.972,0.158-1.424c0.099-0.357,0.348-0.667,0.539-0.991c0.135-0.224,0.257-0.477,0.437-0.636
		c0.175-0.154,0.443-0.317,0.625-0.268c0.287,0.074,0.528,0.107,0.813-0.008c0.211-0.086,0.453-0.054,0.681-0.087
		c0.261-0.037,0.521-0.102,0.782-0.129c0.109-0.011,0.242,0.013,0.329,0.079c0.568,0.441,0.86,1.605,0.604,2.338
		c-0.025,0.072-0.061,0.155-0.114,0.197c-0.479,0.385-0.548,0.913-0.497,1.527c0.039,0.496-0.009,1.003-0.01,1.506
		c-0.001,0.188,0.019,0.372,0.031,0.558c0.052,0.65,0.143,1.298,0.145,1.948c0.001,0.701,0.377,1.064,1.125,0.928
		c1.216-0.22,2.414-0.106,3.605,0.127c0.495,0.096,0.63-0.015,0.649-0.62c0.028-0.907-0.008-1.822,0.078-2.726
		c0.087-0.925,0.164-1.851,0.481-2.755c0.246-0.7,0.609-1.301,0.938-1.932c0.165-0.319,0.456-0.561,0.714-0.808
		c0.071-0.07,0.227-0.063,0.33-0.034c0.043,0.014,0.062,0.176,0.07,0.274c0.023,0.304,0.062,0.611,0.05,0.916
		c-0.022,0.55,0.43-0.06,0.39,0.488C95.774,36.597,95.786,36.726,95.789,36.921z"/>
</g>
</svg>
