<?xml version="1.0" encoding="iso-8859-1"?>
<!-- Generator: Adobe Illustrator 18.1.1, SVG Export Plug-In . SVG Version: 6.00 Build 0)  -->
<svg version="1.1" id="Layer_1" xmlns="http://www.w3.org/2000/svg" xmlns:xlink="http://www.w3.org/1999/xlink" x="0px" y="0px"
	 viewBox="0 0 100 100" style="enable-background:new 0 0 100 100;" xml:space="preserve">
<path style="fill-rule:evenodd;clip-rule:evenodd;" d="M51.456,68.623c0.348,0.208,0.568,0.056,0.711-0.189
	c0.21-0.368,0.372-0.764,0.57-1.137c0.104-0.197,0.236-0.381,0.374-0.557c0.658-0.836,0.966-1.853,1.449-2.779
	c0.339-0.648,0.611-1.33,0.908-2c0.032-0.074,0.057-0.18,0.03-0.249c-0.222-0.562,0.072-1.007,0.31-1.474
	c0.239-0.472,0.455-0.955,0.685-1.432c0.319-0.664,0.646-1.322,0.96-1.987c0.179-0.376,0.325-0.767,0.508-1.142
	c0.209-0.432,0.462-0.844,0.656-1.281c0.171-0.387,0.265-0.808,0.433-1.195c0.395-0.918,0.643-1.875,0.833-2.85
	c0.053-0.268,0.084-0.549,0.058-0.819c-0.02-0.216-0.164-0.352-0.406-0.17c-0.374,0.282-0.762,0.547-1.132,0.833
	c-0.841,0.65-1.677,1.308-2.511,1.966c-0.5,0.393-0.984,0.805-1.492,1.186c-0.217,0.162-0.479,0.264-0.715,0.402
	c-0.352,0.208-0.691,0.438-1.051,0.632c-0.408,0.224-0.83,0.425-1.252,0.624c-0.458,0.221-0.921,0.437-1.389,0.637
	c-0.536,0.23-1.065,0.493-1.624,0.646c-1.05,0.291-2.389,0.053-3.108-0.925c-0.143-0.192-0.339-0.356-0.54-0.489
	c-0.095-0.062-0.275-0.059-0.387-0.013c-0.846,0.349-1.676,0.732-2.523,1.069c-0.39,0.154-0.797,0.173-1.221,0.027
	c-0.379-0.129-0.785-0.181-1.184-0.254c-0.812-0.149-1.318-0.672-1.769-1.324c-0.528-0.766-0.853-1.615-1.198-2.463
	c-0.037-0.088-0.086-0.177-0.15-0.244c-0.155-0.162-0.32-0.22-0.477,0.002c-0.044,0.062-0.093,0.121-0.131,0.185
	c-0.282,0.47-0.566,0.94-0.844,1.414c-0.163,0.278-0.269,0.612-0.487,0.836c-0.447,0.452-0.803,1.022-1.495,1.188
	c-0.251,0.059-0.481,0.222-0.711,0.356c-0.593,0.344-1.211,0.621-1.851,0.88c-0.986,0.399-1.976,0.469-3.005,0.326
	c-0.335-0.048-0.557,0.151-0.781,0.36c-0.429,0.402-0.896,0.727-1.508,0.804c-0.43,0.054-0.854,0.153-1.278,0.241
	c-0.393,0.081-0.65-0.019-0.854-0.408c-0.409-0.784-0.876-1.539-1.323-2.303c-0.144-0.244-0.273-0.51-0.467-0.713
	c-0.326-0.35-0.664-0.254-0.768,0.206c-0.092,0.405-0.148,0.819-0.211,1.23c-0.102,0.649-0.348,1.177-1.033,1.411
	c-0.521,0.178-1.014,0.452-1.545,0.592c-0.329,0.085-0.711,0.03-1.06-0.014c-0.39-0.049-0.769-0.187-1.158-0.235
	c-0.872-0.108-1.75-0.171-2.622-0.28c-0.59-0.074-1.218-0.096-1.753-0.32c-0.745-0.314-1.54-0.309-2.288-0.537
	c-0.576-0.176-1.103-0.439-1.563-0.84c-0.278-0.239-0.628-0.393-0.914-0.623c-0.36-0.291-0.749-0.577-1.014-0.947
	c-0.329-0.461-0.58-0.988-0.793-1.515c-0.142-0.349-0.181-0.745-0.229-1.126c-0.145-1.202,0.08-2.335,0.691-3.386
	c0.247-0.423,0.485-0.852,0.751-1.262c0.118-0.185,0.287-0.338,0.445-0.493c0.451-0.45,0.893-0.91,1.366-1.335
	c0.425-0.38,0.91-0.692,1.327-1.081c0.831-0.773,1.785-1.372,2.722-2c0.555-0.373,1.062-0.824,1.638-1.161
	c0.853-0.501,1.747-0.934,2.626-1.392c0.208-0.108,0.436-0.183,0.629-0.311c0.115-0.077,0.242-0.217,0.26-0.344
	c0.076-0.546,0.07-1.107,0.177-1.647c0.156-0.789,0.368-1.568,0.582-2.345c0.123-0.44,0.28-0.874,0.454-1.296
	c0.23-0.559,0.502-1.1,0.737-1.657c0.172-0.409,0.278-0.849,0.477-1.243c0.451-0.894,0.929-1.776,1.422-2.648
	c0.32-0.569,0.653-1.137,1.041-1.662c0.298-0.405,0.691-0.742,1.04-1.108c0.211-0.221,0.387-0.492,0.636-0.651
	c0.812-0.519,1.648-0.999,2.476-1.491c0.063-0.039,0.144-0.056,0.195-0.106c0.336-0.317,0.735-0.3,1.057-0.068
	c0.325,0.236,0.44,0.637,0.433,1.057c-0.019,0.797-0.061,1.595-0.028,2.39c0.028,0.712,0.146,1.419,0.222,2.128
	c0.045,0.422-0.004,0.812-0.187,1.215c-0.139,0.308-0.108,0.69-0.177,1.034c-0.06,0.297-0.157,0.586-0.229,0.881
	c-0.07,0.301-0.114,0.609-0.201,0.905c-0.073,0.25-0.207,0.482-0.285,0.731c-0.067,0.216-0.102,0.443-0.137,0.668
	c-0.033,0.204,0.008,0.442-0.082,0.613c-0.464,0.903-0.698,1.869-0.86,2.86c-0.022,0.134-0.089,0.262-0.112,0.396
	c-0.05,0.273-0.082,0.551-0.124,0.827c-0.022,0.146-0.04,0.292-0.071,0.436c-0.085,0.397-0.211,0.788-0.251,1.187
	c-0.021,0.217,0.075,0.461,0.167,0.67c0.114,0.262,0.286,0.499,0.421,0.753c0.303,0.57,0.144,1.591-0.252,2.106
	c-0.258,0.336-0.566,0.557-0.955,0.642c-0.601,0.133-0.857,0.569-1.083,1.076c-0.274,0.624-0.168,1.222,0.077,1.812
	c0.286,0.691,0.573,1.382,0.893,2.058c0.226,0.476,0.506,0.924,0.762,1.385c0.04,0,0.082-0.001,0.121-0.002
	c0.083-0.231,0.171-0.459,0.245-0.692c0.215-0.67,0.381-1.36,0.648-2.008c0.271-0.653,0.649-1.26,0.967-1.893
	c0.186-0.372,0.291-0.794,0.526-1.127c0.646-0.914,1.054-1.979,1.901-2.776c0.718-0.675,1.482-1.257,2.322-1.758
	c0.475-0.282,0.919-0.616,1.371-0.936c0.725-0.512,1.539-0.816,2.396-1.015c0.29-0.068,0.586-0.141,0.881-0.153
	c0.545-0.022,0.833,0.215,1.069,0.705c0.195,0.405,0.279,0.812,0.274,1.262c-0.008,0.488,0.25,0.645,0.716,0.49
	c0.654-0.218,0.87-0.097,0.981,0.597c0.076,0.493,0.098,0.994,0.17,1.487c0.097,0.67,0.22,1.336,0.328,2.005
	c0.149,0.91,0.282,1.824,0.447,2.73c0.048,0.256,0.24,0.49,0.271,0.745c0.118,0.956,0.59,1.791,0.92,2.667
	c0.274,0.723,0.815,1.295,1.488,1.711c0.026,0.016,0.059,0.027,0.085,0.045c0.6,0.381,0.859,0.385,1.344-0.14
	c0.57-0.616,0.948-1.339,1.1-2.19c0.117-0.657,0.331-1.3,0.53-1.94c0.217-0.691,0.474-1.369,0.698-2.057
	c0.134-0.415,0.24-0.838,0.359-1.258c0.017-0.051,0.022-0.107,0.047-0.152c0.386-0.674,0.52-1.436,0.771-2.156
	c0.213-0.601,0.708-0.958,1.23-1.276c0.445-0.271,0.887-0.547,1.333-0.816c0.233-0.141,0.464-0.296,0.713-0.403
	c0.459-0.195,0.899,0.064,1.038,0.55c0.119,0.417,0.118,0.812-0.005,1.226c-0.075,0.253-0.052,0.534-0.119,0.79
	c-0.135,0.513-0.296,1.02-0.457,1.526c-0.259,0.799-0.517,1.598-0.794,2.39c-0.079,0.229-0.215,0.44-0.343,0.65
	c-0.466,0.764-0.965,1.509-1.397,2.292c-0.288,0.526-0.387,1.104-0.091,1.688c0.515,1.012,0.57,0.726,1.806,0.608
	c0.414-0.04,0.817-0.216,1.22-0.348c0.631-0.208,1.077-0.695,1.59-1.079c0.425-0.318,0.861-0.62,1.293-0.928
	c0.216-0.154,0.438-0.301,0.647-0.462c0.634-0.483,1.248-0.989,1.893-1.456c1.145-0.828,2.29-1.661,3.468-2.443
	c0.671-0.445,1.4-0.81,2.12-1.179c0.216-0.11,0.826,0.4,1.075,0.386c0.221-0.012,2.477,1.58,2.447,1.788
	c-0.034,0.24-0.108,0.474-0.167,0.71c-0.072,0.306-0.126,0.618-0.222,0.917c-0.165,0.517-0.348,1.029-0.536,1.538
	c-0.142,0.387-0.289,0.772-0.459,1.146c-0.212,0.475-0.437,0.947-0.683,1.406c-0.278,0.521-0.606,1.018-0.876,1.543
	c-0.232,0.453-0.39,0.943-0.625,1.393c-0.711,1.359-1.448,2.703-2.17,4.057c-0.12,0.225-0.197,0.473-0.314,0.699
	c-0.143,0.272-0.307,0.532-0.458,0.8c-0.402,0.713-0.806,1.426-1.201,2.144c-0.216,0.389-0.454,0.771-0.618,1.183
	c-0.248,0.622-0.526,1.212-0.942,1.751c-0.273,0.354-0.396,0.822-0.613,1.225c-0.292,0.541-0.63,1.059-0.912,1.605
	c-0.181,0.346-0.295,0.729-0.446,1.09c-0.508,1.209-1.021,2.417-1.532,3.624c-0.411,0.968-0.789,1.954-1.258,2.894
	c-0.173,0.348-0.525,0.643-0.861,0.867c-0.812,0.544-3.487,0.098-4.329,0.595c-0.114,0.066-0.312,0.067-0.434,0.016
	c-0.066-0.029-0.107-0.257-0.068-0.36c0.093-0.242,0.19-0.523,0.375-0.688c0.699-0.625,1.09-1.438,1.469-2.262
	c0.533-1.16,1.055-2.328,1.581-3.49c0.228-0.501,0.438-1.01,0.689-1.501C51.015,69.254,51.239,68.959,51.456,68.623z M15.716,54.874
	c0.193-0.114,0.441-0.18,0.545-0.339c0.281-0.424,0.521-0.878,0.737-1.34c0.215-0.461,0.383-0.943,0.567-1.419
	c0.238-0.609,0.576-1.173,0.692-1.839c0.102-0.589,0.034-1.137-0.113-1.694c-0.076-0.286-0.15-0.573-0.233-0.856
	c-0.058-0.202-0.074-0.447-0.199-0.596c-0.515-0.607-0.56-1.395-0.849-2.088c-0.204-0.493-0.258-1.048-0.419-1.564
	c-0.2-0.652-0.233-0.653-0.816-0.336c-0.039,0.021-0.078,0.036-0.116,0.056c-0.469,0.248-0.955,0.468-1.401,0.75
	c-0.377,0.237-0.704,0.549-1.062,0.82c-0.243,0.188-0.482,0.403-0.757,0.53c-0.447,0.206-0.859,0.435-1.211,0.791
	c-0.387,0.392-0.841,0.718-1.219,1.119c-0.326,0.345-0.628,0.728-0.865,1.136c-0.286,0.493-0.577,1.011-0.715,1.556
	c-0.198,0.792,0.199,1.476,0.671,2.085c0.658,0.846,1.548,1.409,2.505,1.836c0.796,0.355,1.636,0.615,2.466,0.889
	C14.496,54.56,15.087,54.699,15.716,54.874z M28.364,49.328c0.021,0.007,0.042,0.013,0.064,0.02c0.028,0.394,0.042,0.79,0.092,1.18
	c0.023,0.186,0.093,0.374,0.184,0.541c0.159,0.297,0.374,0.312,0.61,0.064c0.149-0.162,0.283-0.339,0.439-0.494
	c0.266-0.267,0.574-0.498,0.811-0.789c0.349-0.425,0.671-0.878,0.968-1.342c0.412-0.643,0.851-1.277,1.171-1.966
	c0.348-0.747,0.568-1.554,0.853-2.332c0.257-0.701,0.197-1.405,0.034-2.107c-0.022-0.102-0.181-0.244-0.276-0.243
	c-0.22,0.002-0.471,0.029-0.651,0.141c-0.236,0.146-0.428,0.371-0.619,0.579c-0.622,0.668-1.237,1.34-1.848,2.017
	c-0.09,0.1-0.138,0.237-0.197,0.36c-0.075,0.15-0.139,0.306-0.216,0.454c-0.217,0.413-0.481,0.806-0.649,1.237
	c-0.205,0.521-0.332,1.073-0.487,1.614C28.547,48.615,28.458,48.973,28.364,49.328z M33.388,49.75
	c-0.169,0.064-0.294,0.076-0.363,0.143c-0.504,0.496-1,1-1.493,1.507c-0.435,0.448-0.858,0.908-1.294,1.355
	c-0.296,0.3-0.285,0.542,0.066,0.788c0.148,0.104,0.3,0.207,0.461,0.288c0.333,0.167,0.653,0.238,0.938-0.111
	c0.112-0.138,0.296-0.216,0.416-0.347c0.148-0.162,0.299-0.337,0.384-0.532c0.18-0.416,0.341-0.845,0.462-1.28
	C33.121,50.999,33.233,50.423,33.388,49.75z M20.829,37.65c-0.01,0.002-0.019,0.002-0.027,0.002
	c0.021,0.168-0.004,0.362,0.074,0.494c0.073,0.123,0.249,0.228,0.393,0.251c0.091,0.014,0.275-0.121,0.301-0.219
	c0.218-0.831,0.411-1.668,0.603-2.505c0.016-0.067-0.014-0.187-0.061-0.215c-0.056-0.033-0.168-0.013-0.232,0.025
	c-0.21,0.124-0.441,0.235-0.606,0.407c-0.161,0.17-0.317,0.395-0.363,0.618C20.834,36.878,20.852,37.268,20.829,37.65z"/>
<g>
	<path style="fill-rule:evenodd;clip-rule:evenodd;" d="M76.409,55.156c-0.3-0.044-0.538-0.066-0.77-0.115
		c-0.387-0.084-0.771-0.185-1.159-0.276c-0.091-0.021-0.185-0.052-0.277-0.051c-0.616,0.007-0.797-0.144-0.925-0.749
		c-0.214-1.029-0.183-1.99,0.604-2.82c0.156-0.165,0.098-0.512,0.197-0.749c0.183-0.43,0.396-0.848,0.618-1.259
		c0.333-0.613,0.666-1.227,1.029-1.821c0.722-1.175,1.45-2.345,2.202-3.501c0.686-1.054,1.42-2.074,2.101-3.131
		c0.664-1.032,1.263-2.1,1.339-3.372c0.032-0.547-0.255-0.904-0.855-1.307c-0.123,0.186-0.265,0.4-0.406,0.614
		c-0.609,0.918-1.42,1.587-2.451,1.986c-0.479,0.185-1.062-0.215-0.983-0.72c0.069-0.439-0.038-0.546-0.5-0.558
		c-0.582-0.015-1.233-0.042-1.567-0.668c-0.078-0.149-0.101-0.431-0.013-0.552c0.786-1.08,1.899-1.738,3.087-2.283
		c0.548-0.251,1.121-0.451,1.682-0.678c0.056-0.023,0.11-0.069,0.146-0.12c0.375-0.512,0.697-1.073,1.13-1.531
		c0.539-0.568,1.03-1.188,1.78-1.55c0.98-0.473,2.414-0.285,3.097,0.56c0.249,0.309,0.376,0.716,0.567,1.073
		c0.105,0.198,0.218,0.394,0.344,0.578c0.174,0.247,0.432,0.457,0.531,0.728c0.277,0.739,0.723,1.445,0.5,2.309
		c-0.082,0.32,0.012,0.686-0.062,1.012c-0.113,0.489-0.265,0.978-0.47,1.437c-0.535,1.201-0.991,2.463-1.706,3.551
		c-0.537,0.817-0.643,1.744-1.067,2.578c-0.609,1.195-1.013,2.49-1.729,3.642c-0.184,0.298-0.303,0.641-0.433,0.97
		c-0.188,0.471,0.12,0.579,0.675,0.548c1.812-0.099,3.622-0.265,5.435-0.381c0.763-0.049,1.545-0.144,2.286-0.023
		c0.775,0.127,1.553,0.158,2.328,0.241c0.577,0.06,1.154,0.116,1.731,0.173c0.657,0.065,0.812,0.324,0.505,0.89
		c-0.166,0.307-0.389,0.583-0.555,0.891c-0.188,0.347-0.637,0.57-0.44,1.115c0.063,0.174-0.116,0.539-0.293,0.677
		c-0.533,0.411-1.111,0.77-1.69,1.115c-0.367,0.22-0.756,0.433-1.161,0.555c-0.393,0.118-0.823,0.112-1.236,0.167
		c-0.349,0.047-0.696,0.144-1.043,0.142c-0.512-0.002-1.031-0.151-1.53-0.096c-0.876,0.097-1.738,0.302-2.607,0.462
		c-0.095,0.018-0.189,0.074-0.281,0.066c-0.946-0.083-1.828,0.239-2.73,0.425c-0.886,0.182-1.779,0.345-2.645,0.598
		c-0.566,0.166-1.097,0.462-1.626,0.73c-0.326,0.166-0.69,0.225-0.886-0.053c-0.145-0.209-0.09-0.578-0.068-0.872
		C76.166,55.586,76.287,55.428,76.409,55.156z"/>
</g>
</svg>
