<?xml version="1.0" encoding="iso-8859-1"?>
<!-- Generator: Adobe Illustrator 18.1.1, SVG Export Plug-In . SVG Version: 6.00 Build 0)  -->
<svg version="1.1" id="Layer_1" xmlns="http://www.w3.org/2000/svg" xmlns:xlink="http://www.w3.org/1999/xlink" x="0px" y="0px"
	 viewBox="0 0 100 100" style="enable-background:new 0 0 100 100;" xml:space="preserve">
<g>
	<path style="fill-rule:evenodd;clip-rule:evenodd;" d="M99.622,41.804c0.018,0.164,0.001,0.34,0.059,0.487
		c0.335,0.865,0.062,1.719,0.007,2.583c-0.046,0.729-0.246,1.417-0.403,2.116c-0.107,0.479-0.375,0.924-0.576,1.382
		c-0.105,0.237-0.196,0.485-0.338,0.699c-0.133,0.199-0.294,0.409-0.494,0.529c-0.516,0.309-0.672,0.884-1.033,1.304
		c-0.578,0.674-1.237,1.204-2.149,1.325c-0.801,0.108-1.602,0.268-2.405,0.288c-0.479,0.013-0.971-0.185-1.451-0.312
		c-0.408-0.109-0.847-0.187-1.205-0.395c-0.676-0.393-1.303-0.869-1.949-1.312c-0.029-0.019-0.051-0.055-0.064-0.087
		c-0.339-0.81-1.127-1.226-1.645-1.876c-0.54-0.679-1.084-1.367-1.514-2.116c-0.23-0.402-0.385-0.877-0.545-1.33
		c-0.152-0.432-0.297-0.867-0.424-1.306c-0.156-0.54-0.35-1.077-0.421-1.63c-0.107-0.813-0.325-1.643-0.03-2.457
		c0.084-0.235,0.25-0.474,0.443-0.631c0.4-0.323,0.853-0.58,1.269-0.884c0.651-0.471,1.39-0.72,2.151-0.94
		c0.399-0.116,0.768-0.341,1.162-0.479c0.728-0.256,1.478-0.357,2.255-0.33c0.46,0.016,0.933-0.019,1.384-0.109
		c0.891-0.177,1.772-0.103,2.646,0.041c0.613,0.101,1.23,0.244,1.812,0.456c0.616,0.226,1.075,0.634,1.149,1.373
		c0.031,0.316,0.206,0.559,0.587,0.689c0.265,0.09,0.476,0.417,0.647,0.681c0.347,0.537,0.661,1.097,0.968,1.659
		c0.092,0.169,0.112,0.377,0.165,0.569C99.659,41.795,99.642,41.8,99.622,41.804z M94.108,48.3c0.156,0,0.318,0.02,0.468-0.008
		c0.084-0.014,0.2-0.094,0.222-0.167c0.205-0.73,0.416-1.461,0.58-2.201c0.064-0.287-0.002-0.601,0.027-0.898
		c0.09-0.896,0.034-1.779-0.225-2.642c-0.085-0.282-0.188-0.595-0.378-0.804c-0.549-0.597-1.142-1.153-1.729-1.712
		c-0.091-0.086-0.254-0.094-0.384-0.141c-0.608-0.221-1.197,0.099-1.794,0.071c-1.057-0.048-1.48,0.622-1.793,1.468
		c-0.149,0.403-0.361,0.783-0.505,1.187c-0.1,0.282-0.224,0.602-0.176,0.878c0.104,0.603,0.288,1.196,0.481,1.779
		c0.319,0.953,1.059,1.587,1.809,2.175C91.7,48.059,92.906,48.2,94.108,48.3z M88.936,38.459c-0.374,0.137-0.752,0.325-1.153,0.408
		c-0.307,0.063-0.417,0.216-0.416,0.479c0.001,0.477-0.003,0.957,0.053,1.428c0.057,0.462,0.184,0.915,0.28,1.372
		c0.05,0.005,0.098,0.01,0.146,0.015c0.104-0.151,0.224-0.295,0.31-0.457c0.307-0.583,0.56-1.201,0.919-1.75
		c0.182-0.277,0.152-0.516,0.112-0.769C89.144,38.935,89.023,38.7,88.936,38.459z"/>
</g>
<g>
	<path style="fill-rule:evenodd;clip-rule:evenodd;" d="M71.975,55.873c-0.258-0.038-0.462-0.058-0.66-0.1
		c-0.333-0.071-0.663-0.158-0.996-0.236c-0.077-0.02-0.158-0.045-0.237-0.045c-0.529,0.007-0.686-0.123-0.794-0.643
		c-0.185-0.885-0.157-1.709,0.518-2.422c0.133-0.142,0.084-0.439,0.17-0.644c0.155-0.37,0.341-0.728,0.531-1.081
		c0.284-0.527,0.571-1.054,0.884-1.564c0.619-1.009,1.246-2.014,1.891-3.007c0.588-0.905,1.221-1.781,1.804-2.688
		c0.571-0.887,1.085-1.804,1.149-2.896c0.028-0.47-0.219-0.777-0.735-1.123c-0.104,0.16-0.227,0.344-0.347,0.527
		c-0.524,0.789-1.219,1.364-2.106,1.706c-0.412,0.159-0.913-0.184-0.844-0.618c0.059-0.377-0.033-0.469-0.43-0.479
		c-0.5-0.012-1.061-0.036-1.346-0.574c-0.068-0.128-0.087-0.37-0.012-0.474c0.675-0.928,1.633-1.493,2.651-1.961
		c0.471-0.216,0.963-0.387,1.443-0.582c0.049-0.02,0.096-0.06,0.127-0.104c0.322-0.439,0.599-0.921,0.971-1.314
		c0.462-0.488,0.884-1.021,1.527-1.332c0.843-0.406,2.074-0.245,2.66,0.48c0.214,0.266,0.324,0.615,0.487,0.922
		c0.09,0.17,0.188,0.338,0.297,0.496c0.147,0.213,0.368,0.393,0.456,0.625c0.238,0.635,0.62,1.241,0.429,1.983
		c-0.071,0.276,0.01,0.589-0.055,0.87c-0.097,0.42-0.228,0.84-0.402,1.233c-0.461,1.032-0.853,2.115-1.466,3.05
		c-0.462,0.702-0.551,1.498-0.916,2.213c-0.524,1.026-0.871,2.139-1.485,3.127c-0.159,0.256-0.261,0.55-0.371,0.833
		c-0.162,0.405,0.102,0.497,0.578,0.471c1.558-0.085,3.111-0.228,4.667-0.328c0.654-0.042,1.327-0.124,1.964-0.02
		c0.667,0.109,1.334,0.136,1.999,0.207c0.496,0.052,0.992,0.1,1.487,0.148c0.565,0.056,0.698,0.279,0.435,0.765
		c-0.144,0.264-0.335,0.5-0.477,0.764c-0.162,0.299-0.548,0.49-0.378,0.959c0.054,0.148-0.101,0.463-0.253,0.581
		c-0.458,0.353-0.954,0.661-1.451,0.958c-0.315,0.188-0.648,0.371-0.998,0.477c-0.337,0.101-0.707,0.096-1.061,0.143
		c-0.3,0.041-0.598,0.123-0.897,0.122c-0.438-0.002-0.884-0.13-1.312-0.082c-0.753,0.083-1.493,0.259-2.239,0.396
		c-0.081,0.016-0.164,0.064-0.242,0.057c-0.812-0.07-1.569,0.206-2.344,0.365c-0.762,0.156-1.529,0.296-2.273,0.514
		c-0.485,0.143-0.94,0.396-1.396,0.627c-0.279,0.143-0.593,0.192-0.761-0.047c-0.124-0.178-0.077-0.495-0.06-0.748
		C71.767,56.242,71.87,56.105,71.975,55.873z"/>
</g>
<path style="fill-rule:evenodd;clip-rule:evenodd;" d="M47.523,69.033c0.349,0.208,0.569,0.056,0.712-0.189
	c0.21-0.368,0.371-0.764,0.57-1.137c0.104-0.197,0.236-0.381,0.374-0.557c0.658-0.836,0.966-1.854,1.45-2.779
	c0.338-0.648,0.611-1.33,0.906-1.999c0.033-0.075,0.059-0.181,0.031-0.249c-0.222-0.563,0.072-1.008,0.309-1.475
	c0.241-0.472,0.455-0.955,0.686-1.432c0.318-0.664,0.646-1.321,0.96-1.986c0.179-0.377,0.326-0.768,0.508-1.142
	c0.21-0.433,0.461-0.845,0.656-1.281c0.17-0.388,0.266-0.809,0.433-1.196c0.395-0.917,0.643-1.875,0.834-2.85
	c0.051-0.268,0.083-0.549,0.057-0.819c-0.021-0.216-0.165-0.352-0.405-0.17c-0.375,0.283-0.764,0.547-1.133,0.833
	c-0.842,0.651-1.677,1.308-2.511,1.966c-0.5,0.394-0.985,0.805-1.493,1.186c-0.216,0.162-0.478,0.264-0.714,0.402
	c-0.351,0.209-0.692,0.438-1.05,0.632c-0.41,0.224-0.831,0.425-1.253,0.624c-0.459,0.221-0.921,0.438-1.389,0.637
	c-0.535,0.23-1.065,0.494-1.624,0.647c-1.05,0.29-2.39,0.052-3.109-0.926c-0.142-0.192-0.339-0.356-0.539-0.489
	c-0.095-0.062-0.275-0.059-0.388-0.013c-0.845,0.35-1.676,0.731-2.524,1.069c-0.39,0.155-0.797,0.174-1.221,0.028
	c-0.377-0.13-0.785-0.182-1.182-0.255c-0.813-0.148-1.318-0.672-1.77-1.324c-0.529-0.765-0.854-1.615-1.198-2.463
	c-0.037-0.088-0.087-0.178-0.151-0.244c-0.154-0.161-0.32-0.219-0.476,0.003c-0.043,0.061-0.092,0.12-0.131,0.184
	c-0.281,0.471-0.564,0.94-0.843,1.414c-0.164,0.279-0.27,0.612-0.488,0.836c-0.445,0.452-0.802,1.023-1.493,1.188
	c-0.253,0.059-0.482,0.221-0.712,0.355c-0.593,0.344-1.21,0.622-1.85,0.881c-0.987,0.398-1.976,0.469-3.006,0.325
	c-0.336-0.047-0.558,0.151-0.781,0.36c-0.428,0.402-0.896,0.726-1.508,0.804c-0.43,0.054-0.853,0.153-1.278,0.241
	c-0.392,0.081-0.65-0.02-0.854-0.408c-0.409-0.784-0.875-1.539-1.324-2.303c-0.143-0.244-0.273-0.509-0.465-0.713
	c-0.327-0.35-0.664-0.254-0.768,0.207c-0.092,0.404-0.15,0.818-0.213,1.23c-0.101,0.648-0.347,1.176-1.033,1.41
	c-0.521,0.178-1.014,0.453-1.543,0.592c-0.331,0.085-0.711,0.031-1.062-0.014c-0.389-0.049-0.768-0.188-1.157-0.235
	c-0.872-0.108-1.749-0.171-2.622-0.28c-0.589-0.073-1.219-0.095-1.753-0.32c-0.745-0.313-1.539-0.31-2.289-0.537
	c-0.576-0.175-1.101-0.439-1.563-0.84c-0.276-0.239-0.628-0.393-0.914-0.622c-0.358-0.291-0.749-0.578-1.014-0.948
	c-0.328-0.46-0.579-0.988-0.793-1.515c-0.142-0.349-0.181-0.745-0.227-1.126c-0.146-1.203,0.08-2.335,0.691-3.386
	c0.247-0.423,0.483-0.852,0.749-1.261c0.12-0.184,0.289-0.337,0.447-0.494c0.449-0.45,0.893-0.91,1.365-1.335
	c0.424-0.38,0.911-0.692,1.328-1.081c0.83-0.773,1.784-1.372,2.721-2c0.555-0.373,1.062-0.825,1.637-1.162
	c0.854-0.5,1.748-0.934,2.626-1.392c0.209-0.108,0.437-0.182,0.63-0.311c0.115-0.077,0.241-0.218,0.26-0.344
	c0.075-0.547,0.07-1.107,0.177-1.647c0.155-0.789,0.367-1.568,0.583-2.345c0.121-0.44,0.279-0.874,0.454-1.295
	c0.229-0.559,0.501-1.1,0.735-1.658c0.174-0.409,0.279-0.849,0.477-1.243c0.452-0.894,0.929-1.775,1.421-2.648
	c0.321-0.568,0.653-1.136,1.041-1.662c0.299-0.405,0.691-0.741,1.041-1.108c0.21-0.221,0.388-0.492,0.636-0.651
	c0.811-0.519,1.647-0.999,2.476-1.491c0.064-0.039,0.145-0.057,0.196-0.107c0.335-0.317,0.733-0.3,1.055-0.068
	c0.326,0.235,0.441,0.637,0.433,1.056c-0.018,0.797-0.06,1.595-0.028,2.39c0.03,0.712,0.146,1.419,0.222,2.128
	c0.047,0.421-0.003,0.812-0.185,1.214c-0.14,0.308-0.109,0.69-0.178,1.034c-0.059,0.297-0.157,0.586-0.228,0.882
	c-0.072,0.3-0.114,0.609-0.202,0.904c-0.074,0.251-0.208,0.482-0.286,0.731c-0.067,0.217-0.101,0.444-0.136,0.668
	c-0.034,0.204,0.008,0.442-0.082,0.613c-0.463,0.904-0.698,1.869-0.861,2.86c-0.021,0.135-0.087,0.262-0.111,0.396
	c-0.05,0.274-0.082,0.552-0.124,0.828c-0.023,0.146-0.041,0.293-0.071,0.437c-0.086,0.397-0.211,0.788-0.25,1.188
	c-0.022,0.217,0.073,0.46,0.165,0.67c0.114,0.261,0.286,0.499,0.422,0.753c0.304,0.57,0.144,1.592-0.253,2.107
	c-0.256,0.336-0.564,0.556-0.953,0.642c-0.603,0.133-0.859,0.569-1.083,1.076c-0.275,0.624-0.169,1.222,0.076,1.813
	c0.286,0.691,0.574,1.382,0.894,2.057c0.226,0.476,0.506,0.924,0.762,1.385c0.041,0,0.081-0.002,0.121-0.002
	c0.082-0.23,0.171-0.459,0.246-0.692c0.215-0.67,0.379-1.36,0.647-2.007c0.271-0.653,0.649-1.26,0.966-1.894
	c0.187-0.371,0.293-0.794,0.527-1.127c0.646-0.914,1.055-1.979,1.9-2.776c0.719-0.675,1.481-1.257,2.323-1.757
	c0.474-0.282,0.919-0.617,1.371-0.935c0.725-0.512,1.538-0.816,2.396-1.016c0.292-0.067,0.586-0.141,0.882-0.153
	c0.545-0.023,0.833,0.215,1.069,0.705c0.194,0.406,0.279,0.812,0.273,1.262c-0.008,0.488,0.249,0.646,0.715,0.49
	c0.654-0.217,0.872-0.097,0.98,0.598c0.076,0.492,0.1,0.993,0.17,1.487c0.098,0.67,0.221,1.337,0.329,2.005
	c0.148,0.91,0.282,1.824,0.447,2.73c0.048,0.256,0.239,0.489,0.271,0.745c0.117,0.956,0.588,1.79,0.919,2.667
	c0.273,0.724,0.815,1.295,1.488,1.711c0.026,0.016,0.058,0.027,0.084,0.045c0.602,0.381,0.86,0.385,1.346-0.14
	c0.568-0.615,0.946-1.339,1.1-2.19c0.116-0.657,0.33-1.3,0.529-1.94c0.216-0.691,0.473-1.369,0.697-2.057
	c0.135-0.415,0.241-0.839,0.36-1.259c0.016-0.05,0.022-0.106,0.048-0.152c0.384-0.673,0.518-1.436,0.771-2.156
	c0.211-0.6,0.706-0.958,1.229-1.276c0.444-0.271,0.886-0.547,1.333-0.816c0.234-0.141,0.463-0.296,0.713-0.403
	c0.459-0.195,0.898,0.064,1.038,0.55c0.12,0.417,0.118,0.812-0.004,1.227c-0.076,0.253-0.053,0.534-0.119,0.79
	c-0.137,0.513-0.296,1.02-0.458,1.525c-0.258,0.8-0.517,1.599-0.795,2.391c-0.078,0.229-0.215,0.44-0.343,0.65
	c-0.464,0.764-0.964,1.509-1.396,2.292c-0.288,0.526-0.387,1.105-0.091,1.688c0.516,1.012,0.57,0.726,1.806,0.608
	c0.413-0.039,0.817-0.216,1.22-0.348c0.632-0.208,1.076-0.695,1.59-1.078c0.424-0.318,0.861-0.62,1.293-0.929
	c0.215-0.154,0.437-0.301,0.646-0.462c0.634-0.483,1.248-0.989,1.894-1.456c1.146-0.828,2.29-1.661,3.467-2.443
	c0.672-0.445,1.401-0.811,2.12-1.18c0.218-0.11,0.826,0.4,1.076,0.387c0.221-0.013,2.476,1.58,2.447,1.788
	c-0.034,0.239-0.109,0.474-0.167,0.71c-0.073,0.306-0.127,0.619-0.222,0.917c-0.165,0.517-0.349,1.029-0.535,1.538
	c-0.143,0.387-0.289,0.772-0.459,1.146c-0.214,0.475-0.438,0.946-0.684,1.405c-0.279,0.521-0.605,1.018-0.875,1.543
	c-0.233,0.453-0.39,0.943-0.626,1.394c-0.712,1.358-1.448,2.702-2.17,4.056c-0.12,0.225-0.197,0.473-0.314,0.699
	c-0.142,0.271-0.308,0.532-0.458,0.8c-0.402,0.714-0.805,1.426-1.201,2.143c-0.216,0.389-0.453,0.771-0.617,1.184
	c-0.248,0.621-0.527,1.211-0.943,1.75c-0.273,0.354-0.396,0.822-0.614,1.225c-0.291,0.541-0.628,1.059-0.912,1.605
	c-0.181,0.346-0.293,0.729-0.446,1.09c-0.508,1.209-1.02,2.417-1.531,3.624c-0.411,0.968-0.789,1.954-1.257,2.894
	c-0.173,0.348-0.526,0.643-0.861,0.867c-0.813,0.545-3.487,0.098-4.331,0.596c-0.114,0.066-0.312,0.067-0.433,0.016
	c-0.066-0.03-0.107-0.258-0.067-0.361c0.092-0.242,0.188-0.523,0.374-0.688c0.699-0.625,1.09-1.438,1.469-2.262
	c0.533-1.16,1.054-2.328,1.581-3.49c0.227-0.502,0.438-1.01,0.689-1.501C47.083,69.664,47.308,69.369,47.523,69.033z M11.784,55.285
	c0.193-0.115,0.442-0.18,0.546-0.34c0.279-0.424,0.521-0.877,0.735-1.34c0.217-0.46,0.385-0.943,0.568-1.418
	c0.237-0.61,0.575-1.174,0.691-1.839c0.102-0.589,0.035-1.138-0.113-1.695c-0.076-0.287-0.149-0.573-0.232-0.856
	c-0.058-0.203-0.074-0.447-0.2-0.596c-0.514-0.607-0.56-1.396-0.847-2.088c-0.205-0.493-0.26-1.048-0.419-1.564
	c-0.202-0.653-0.233-0.653-0.818-0.336c-0.038,0.021-0.078,0.036-0.116,0.056c-0.469,0.247-0.954,0.468-1.4,0.75
	c-0.376,0.237-0.705,0.55-1.062,0.82c-0.245,0.187-0.481,0.403-0.758,0.529c-0.448,0.206-0.858,0.436-1.21,0.792
	c-0.388,0.391-0.843,0.718-1.22,1.118c-0.327,0.345-0.628,0.728-0.865,1.137c-0.286,0.492-0.578,1.01-0.714,1.555
	c-0.199,0.792,0.197,1.478,0.67,2.086c0.658,0.845,1.548,1.409,2.506,1.835c0.795,0.356,1.634,0.615,2.465,0.889
	C10.564,54.969,11.155,55.109,11.784,55.285z M24.433,49.738c0.021,0.007,0.042,0.013,0.065,0.02c0.029,0.394,0.043,0.79,0.092,1.18
	c0.023,0.186,0.094,0.375,0.184,0.541c0.16,0.297,0.373,0.312,0.609,0.064c0.151-0.161,0.284-0.339,0.44-0.494
	c0.268-0.266,0.575-0.498,0.812-0.788c0.349-0.425,0.671-0.879,0.968-1.342c0.413-0.642,0.851-1.277,1.171-1.966
	c0.348-0.746,0.568-1.554,0.854-2.331c0.257-0.7,0.197-1.405,0.035-2.107c-0.023-0.102-0.182-0.244-0.276-0.243
	c-0.221,0.002-0.472,0.03-0.651,0.141c-0.238,0.145-0.428,0.371-0.621,0.579c-0.621,0.667-1.237,1.34-1.847,2.017
	c-0.089,0.1-0.137,0.236-0.198,0.36c-0.075,0.15-0.139,0.306-0.215,0.454c-0.217,0.413-0.48,0.806-0.648,1.237
	c-0.204,0.521-0.333,1.073-0.487,1.614C24.616,49.026,24.526,49.383,24.433,49.738z M29.455,50.161
	c-0.169,0.064-0.293,0.076-0.362,0.143c-0.503,0.496-1,1-1.493,1.508c-0.435,0.447-0.857,0.908-1.295,1.354
	c-0.296,0.3-0.284,0.542,0.067,0.788c0.148,0.104,0.301,0.207,0.461,0.289c0.332,0.167,0.653,0.238,0.939-0.113
	c0.111-0.137,0.296-0.214,0.415-0.346c0.147-0.162,0.299-0.336,0.384-0.532c0.179-0.416,0.342-0.845,0.462-1.28
	C29.19,51.408,29.302,50.834,29.455,50.161z M16.897,38.061c-0.01,0.001-0.02,0.001-0.027,0.001
	c0.021,0.168-0.004,0.362,0.073,0.495c0.074,0.123,0.249,0.228,0.392,0.251c0.091,0.014,0.276-0.122,0.302-0.22
	c0.217-0.831,0.411-1.668,0.603-2.505c0.016-0.067-0.014-0.188-0.062-0.216c-0.055-0.033-0.168-0.013-0.232,0.025
	c-0.209,0.124-0.441,0.235-0.604,0.407c-0.163,0.169-0.319,0.395-0.363,0.617C16.903,37.289,16.921,37.679,16.897,38.061z"/>
</svg>
