<?xml version="1.0" encoding="iso-8859-1"?>
<!-- Generator: Adobe Illustrator 18.1.1, SVG Export Plug-In . SVG Version: 6.00 Build 0)  -->
<svg version="1.1" id="Layer_1" xmlns="http://www.w3.org/2000/svg" xmlns:xlink="http://www.w3.org/1999/xlink" x="0px" y="0px"
	 viewBox="0 0 100 100" style="enable-background:new 0 0 100 100;" xml:space="preserve">
<path style="fill-rule:evenodd;clip-rule:evenodd;" d="M53.456,68.648c0.348,0.209,0.568,0.057,0.711-0.189
	c0.21-0.367,0.372-0.763,0.57-1.137c0.104-0.196,0.236-0.381,0.374-0.557c0.658-0.835,0.966-1.854,1.449-2.779
	c0.339-0.646,0.611-1.33,0.908-1.999c0.032-0.073,0.057-0.18,0.03-0.249c-0.222-0.562,0.072-1.008,0.31-1.474
	c0.239-0.472,0.455-0.956,0.685-1.433c0.319-0.664,0.646-1.321,0.96-1.986c0.179-0.377,0.325-0.768,0.508-1.141
	c0.209-0.434,0.462-0.845,0.656-1.282c0.171-0.388,0.265-0.808,0.433-1.196c0.395-0.916,0.643-1.875,0.833-2.849
	c0.053-0.268,0.084-0.55,0.058-0.819c-0.02-0.216-0.164-0.353-0.406-0.17c-0.374,0.282-0.762,0.547-1.132,0.833
	c-0.841,0.65-1.677,1.307-2.511,1.965c-0.5,0.395-0.984,0.805-1.492,1.187c-0.217,0.163-0.479,0.263-0.715,0.403
	c-0.352,0.207-0.691,0.436-1.051,0.631c-0.408,0.223-0.83,0.424-1.252,0.625c-0.458,0.219-0.921,0.436-1.389,0.636
	c-0.536,0.229-1.065,0.493-1.624,0.647c-1.05,0.289-2.389,0.053-3.108-0.927c-0.143-0.191-0.339-0.355-0.54-0.488
	c-0.095-0.062-0.275-0.06-0.387-0.013c-0.846,0.349-1.676,0.732-2.523,1.07c-0.39,0.154-0.797,0.172-1.221,0.026
	c-0.379-0.129-0.785-0.181-1.184-0.254c-0.812-0.148-1.318-0.672-1.769-1.325c-0.528-0.765-0.853-1.615-1.198-2.462
	c-0.037-0.088-0.086-0.177-0.15-0.245c-0.155-0.16-0.32-0.219-0.477,0.004c-0.044,0.061-0.093,0.119-0.131,0.183
	c-0.282,0.471-0.566,0.942-0.844,1.415c-0.163,0.278-0.269,0.612-0.487,0.836c-0.447,0.451-0.803,1.022-1.495,1.188
	c-0.251,0.06-0.481,0.221-0.711,0.355c-0.593,0.345-1.211,0.623-1.851,0.881c-0.986,0.398-1.976,0.469-3.005,0.325
	c-0.335-0.046-0.557,0.153-0.781,0.361c-0.429,0.402-0.896,0.726-1.508,0.804c-0.43,0.054-0.854,0.154-1.278,0.24
	c-0.393,0.082-0.65-0.02-0.854-0.407c-0.409-0.784-0.876-1.54-1.323-2.304c-0.144-0.244-0.273-0.508-0.467-0.713
	c-0.326-0.349-0.664-0.254-0.768,0.207c-0.092,0.404-0.148,0.818-0.211,1.23c-0.102,0.648-0.348,1.177-1.033,1.41
	c-0.521,0.179-1.014,0.453-1.545,0.592c-0.329,0.086-0.711,0.031-1.06-0.012c-0.39-0.051-0.769-0.188-1.158-0.236
	c-0.872-0.109-1.75-0.171-2.622-0.281c-0.59-0.073-1.218-0.094-1.753-0.319c-0.745-0.314-1.54-0.31-2.288-0.537
	c-0.576-0.175-1.103-0.44-1.563-0.84c-0.278-0.239-0.628-0.394-0.914-0.622c-0.36-0.292-0.749-0.578-1.014-0.948
	c-0.329-0.46-0.58-0.987-0.793-1.515c-0.142-0.35-0.181-0.746-0.229-1.126c-0.145-1.203,0.08-2.336,0.691-3.387
	c0.247-0.422,0.485-0.851,0.751-1.261c0.118-0.185,0.287-0.338,0.445-0.494c0.451-0.45,0.893-0.911,1.366-1.335
	c0.425-0.381,0.91-0.693,1.327-1.081c0.831-0.773,1.785-1.372,2.722-2c0.555-0.373,1.062-0.824,1.638-1.162
	c0.853-0.5,1.747-0.933,2.626-1.392c0.208-0.107,0.436-0.182,0.629-0.31c0.115-0.076,0.242-0.218,0.26-0.344
	c0.076-0.547,0.07-1.108,0.177-1.648c0.156-0.789,0.368-1.568,0.582-2.345c0.123-0.44,0.28-0.874,0.454-1.296
	c0.23-0.559,0.502-1.1,0.737-1.657c0.172-0.409,0.278-0.85,0.477-1.243c0.451-0.894,0.929-1.776,1.422-2.648
	c0.32-0.569,0.653-1.137,1.041-1.662c0.298-0.406,0.691-0.742,1.04-1.109c0.211-0.221,0.387-0.491,0.636-0.651
	c0.812-0.519,1.648-0.999,2.476-1.491c0.063-0.039,0.144-0.056,0.195-0.106c0.336-0.317,0.735-0.3,1.057-0.068
	c0.325,0.235,0.44,0.637,0.433,1.057c-0.019,0.796-0.061,1.595-0.028,2.39c0.028,0.711,0.146,1.419,0.222,2.128
	c0.045,0.421-0.004,0.811-0.187,1.214c-0.139,0.308-0.108,0.69-0.177,1.034c-0.06,0.298-0.157,0.586-0.229,0.882
	c-0.07,0.301-0.114,0.608-0.201,0.905c-0.073,0.25-0.207,0.482-0.285,0.731c-0.067,0.216-0.102,0.443-0.137,0.667
	c-0.033,0.205,0.008,0.442-0.082,0.614c-0.464,0.903-0.698,1.869-0.86,2.86c-0.022,0.135-0.089,0.262-0.112,0.397
	c-0.05,0.274-0.082,0.552-0.124,0.827c-0.022,0.146-0.04,0.293-0.071,0.437c-0.085,0.396-0.211,0.788-0.251,1.188
	c-0.021,0.216,0.075,0.459,0.167,0.67c0.114,0.261,0.286,0.499,0.421,0.752c0.303,0.571,0.144,1.592-0.252,2.108
	c-0.258,0.335-0.566,0.556-0.955,0.641c-0.601,0.133-0.857,0.569-1.083,1.076c-0.274,0.624-0.168,1.221,0.077,1.812
	c0.286,0.691,0.573,1.382,0.893,2.057c0.226,0.476,0.506,0.924,0.762,1.386c0.04-0.001,0.082-0.001,0.121-0.002
	c0.083-0.23,0.171-0.46,0.245-0.693c0.215-0.67,0.381-1.36,0.648-2.007c0.271-0.653,0.649-1.26,0.967-1.894
	c0.186-0.372,0.291-0.794,0.526-1.127c0.646-0.914,1.054-1.979,1.901-2.776c0.718-0.675,1.482-1.257,2.322-1.758
	c0.475-0.282,0.919-0.616,1.371-0.935c0.725-0.512,1.539-0.816,2.396-1.015c0.29-0.068,0.586-0.142,0.881-0.154
	c0.545-0.022,0.833,0.215,1.069,0.705c0.195,0.406,0.279,0.812,0.274,1.262c-0.008,0.489,0.25,0.646,0.716,0.491
	c0.654-0.218,0.87-0.097,0.981,0.597c0.076,0.493,0.098,0.994,0.17,1.487c0.097,0.669,0.22,1.336,0.328,2.005
	c0.149,0.91,0.282,1.824,0.447,2.73c0.048,0.256,0.24,0.489,0.271,0.745c0.118,0.956,0.59,1.791,0.92,2.667
	c0.274,0.723,0.815,1.294,1.488,1.71c0.026,0.017,0.059,0.028,0.085,0.045c0.6,0.381,0.859,0.385,1.344-0.139
	c0.57-0.616,0.948-1.34,1.1-2.191c0.117-0.657,0.331-1.3,0.53-1.94c0.217-0.691,0.474-1.369,0.698-2.057
	c0.134-0.415,0.24-0.839,0.359-1.258c0.017-0.051,0.022-0.107,0.047-0.153c0.386-0.673,0.52-1.435,0.771-2.156
	c0.213-0.6,0.708-0.958,1.23-1.276c0.445-0.27,0.887-0.547,1.333-0.816c0.233-0.142,0.464-0.297,0.713-0.403
	c0.459-0.195,0.899,0.064,1.038,0.55c0.119,0.417,0.118,0.812-0.005,1.227c-0.075,0.253-0.052,0.534-0.119,0.79
	c-0.135,0.514-0.296,1.021-0.457,1.525c-0.259,0.8-0.517,1.599-0.794,2.392c-0.079,0.228-0.215,0.439-0.343,0.649
	c-0.466,0.765-0.965,1.509-1.397,2.292c-0.288,0.525-0.387,1.105-0.091,1.688c0.515,1.012,0.57,0.725,1.806,0.607
	c0.414-0.039,0.817-0.215,1.22-0.348c0.631-0.207,1.077-0.695,1.59-1.078c0.425-0.318,0.861-0.62,1.293-0.928
	c0.216-0.154,0.438-0.302,0.647-0.463c0.634-0.483,1.248-0.989,1.893-1.456c1.145-0.828,2.29-1.661,3.468-2.443
	c0.671-0.446,1.4-0.811,2.12-1.18c0.216-0.11,0.826,0.401,1.075,0.387c0.221-0.012,2.477,1.58,2.447,1.788
	c-0.034,0.239-0.108,0.474-0.167,0.71c-0.072,0.306-0.126,0.618-0.222,0.917c-0.165,0.517-0.348,1.029-0.536,1.539
	c-0.142,0.386-0.289,0.771-0.459,1.146c-0.212,0.475-0.437,0.945-0.683,1.404c-0.278,0.522-0.606,1.018-0.876,1.545
	c-0.232,0.451-0.39,0.942-0.625,1.393c-0.711,1.357-1.448,2.701-2.17,4.055c-0.12,0.225-0.197,0.473-0.314,0.699
	c-0.143,0.272-0.307,0.533-0.458,0.801c-0.402,0.713-0.806,1.426-1.201,2.142c-0.216,0.389-0.454,0.771-0.618,1.184
	c-0.248,0.623-0.526,1.211-0.942,1.75c-0.273,0.356-0.396,0.822-0.613,1.225c-0.292,0.541-0.63,1.059-0.912,1.605
	c-0.181,0.347-0.295,0.729-0.446,1.091c-0.508,1.209-1.021,2.416-1.532,3.623c-0.411,0.968-0.789,1.954-1.258,2.893
	c-0.173,0.349-0.525,0.643-0.861,0.867c-0.812,0.545-3.487,0.099-4.329,0.596c-0.114,0.066-0.312,0.068-0.434,0.016
	c-0.066-0.029-0.107-0.258-0.068-0.36c0.093-0.243,0.19-0.523,0.375-0.688c0.699-0.624,1.09-1.437,1.469-2.262
	c0.533-1.16,1.055-2.327,1.581-3.49c0.228-0.5,0.438-1.01,0.689-1.5C53.015,69.28,53.239,68.985,53.456,68.648z M17.716,54.9
	c0.193-0.115,0.441-0.18,0.545-0.339c0.281-0.424,0.521-0.878,0.737-1.341c0.215-0.459,0.383-0.943,0.567-1.418
	c0.238-0.609,0.576-1.173,0.692-1.839c0.102-0.589,0.034-1.138-0.113-1.694c-0.076-0.286-0.15-0.573-0.233-0.857
	c-0.058-0.202-0.074-0.446-0.199-0.595c-0.515-0.608-0.56-1.397-0.849-2.088c-0.204-0.494-0.258-1.049-0.419-1.565
	c-0.2-0.652-0.233-0.653-0.816-0.335c-0.039,0.02-0.078,0.035-0.116,0.055c-0.469,0.247-0.955,0.468-1.401,0.75
	c-0.377,0.236-0.704,0.549-1.062,0.819c-0.243,0.188-0.482,0.403-0.757,0.53c-0.447,0.205-0.859,0.435-1.211,0.791
	c-0.387,0.392-0.841,0.718-1.219,1.118c-0.326,0.345-0.628,0.728-0.865,1.137c-0.286,0.493-0.577,1.011-0.715,1.556
	c-0.198,0.792,0.199,1.477,0.671,2.085c0.658,0.845,1.548,1.409,2.505,1.835c0.796,0.356,1.636,0.617,2.466,0.891
	C16.496,54.586,17.087,54.725,17.716,54.9z M30.364,49.354c0.021,0.007,0.042,0.013,0.064,0.02c0.028,0.395,0.042,0.791,0.092,1.181
	c0.023,0.186,0.093,0.374,0.184,0.54c0.159,0.298,0.374,0.314,0.61,0.064c0.149-0.161,0.283-0.338,0.439-0.493
	c0.266-0.267,0.574-0.499,0.811-0.79c0.349-0.425,0.671-0.878,0.968-1.342c0.412-0.642,0.851-1.277,1.171-1.966
	c0.348-0.746,0.568-1.554,0.853-2.332c0.257-0.701,0.197-1.405,0.034-2.107c-0.022-0.102-0.181-0.244-0.276-0.243
	c-0.22,0.002-0.471,0.03-0.651,0.141c-0.236,0.145-0.428,0.371-0.619,0.579c-0.622,0.667-1.237,1.339-1.848,2.017
	c-0.09,0.1-0.138,0.237-0.197,0.361c-0.075,0.15-0.139,0.306-0.216,0.454c-0.217,0.413-0.481,0.806-0.649,1.238
	c-0.205,0.521-0.332,1.072-0.487,1.614C30.547,48.642,30.458,48.999,30.364,49.354z M35.388,49.777
	c-0.169,0.064-0.294,0.076-0.363,0.142c-0.504,0.496-1,1.001-1.493,1.509c-0.435,0.447-0.857,0.908-1.294,1.354
	c-0.296,0.301-0.285,0.542,0.066,0.788c0.148,0.104,0.3,0.206,0.461,0.288c0.333,0.168,0.653,0.238,0.938-0.112
	c0.112-0.138,0.296-0.214,0.416-0.347c0.148-0.161,0.299-0.336,0.384-0.531c0.18-0.416,0.341-0.845,0.462-1.281
	C35.121,51.025,35.233,50.45,35.388,49.777z M22.829,37.676c-0.01,0.001-0.019,0.002-0.027,0.002
	c0.021,0.167-0.004,0.361,0.074,0.494c0.073,0.123,0.249,0.229,0.393,0.251c0.091,0.014,0.275-0.122,0.301-0.22
	c0.218-0.831,0.411-1.668,0.603-2.504c0.016-0.067-0.014-0.188-0.061-0.216c-0.056-0.033-0.168-0.013-0.232,0.025
	c-0.21,0.124-0.441,0.235-0.606,0.407c-0.161,0.169-0.317,0.395-0.363,0.618C22.834,36.905,22.852,37.295,22.829,37.676z"/>
<g>
	<path style="fill-rule:evenodd;clip-rule:evenodd;" d="M79.887,45.464c-0.252,0-0.464-0.026-0.668,0.005
		c-0.77,0.116-1.454-0.171-2.143-0.433c-0.346-0.131-0.415-0.493-0.135-0.735c0.484-0.416,0.881-0.876,1.119-1.485
		c0.092-0.239,0.334-0.433,0.538-0.611c1.315-1.138,2.64-2.263,3.953-3.401c0.227-0.198,0.413-0.445,0.625-0.679
		c-0.25-0.447-0.591-0.594-1.051-0.549c-0.502,0.048-1.036-0.03-1.503,0.115c-0.619,0.193-1.216,0.503-1.768,0.851
		c-0.602,0.381-1.141,0.862-1.706,1.3c-0.262,0.202-0.847,0.021-1.047-0.25c-0.11-0.151-0.358-0.293-0.539-0.287
		c-0.592,0.02-0.933-0.354-1.104-0.787c-0.212-0.536-0.391-0.993-1.118-0.898c0.145-0.419,0.41-0.576,0.729-0.489
		c0.68,0.184,1.096-0.175,1.407-0.664c0.596-0.936,1.524-1.405,2.473-1.837c0.463-0.212,0.983-0.293,1.477-0.439
		c0.074-0.022,0.147-0.066,0.211-0.111c0.538-0.387,1.077-0.775,1.61-1.169c0.835-0.616,1.815-0.829,2.794-1.082
		c0.877-0.228,1.737-0.192,2.444,0.312c0.469,0.334,0.925,0.502,1.463,0.612c0.412,0.084,0.803,0.283,1.196,0.445
		c0.863,0.351,1.389,1.039,1.478,1.917c0.044,0.43-0.221,0.994-0.524,1.339c-1.104,1.253-2.282,2.44-3.423,3.641
		c0.908,0.104,1.935,0.295,2.968,0.317c1.106,0.024,2.145,0.268,2.956,0.974c0.55,0.479,1.165,0.951,1.268,1.885
		c0.088,0.8,0.412,1.596,0.332,2.424c-0.154,1.563-0.729,2.993-1.715,4.199c-0.923,1.126-1.929,2.195-2.986,3.196
		c-0.611,0.579-1.394,0.979-2.104,1.452c-0.745,0.497-1.469,1.033-2.249,1.467c-0.796,0.44-1.647,0.784-2.479,1.157
		c-0.125,0.056-0.282,0.039-0.424,0.064c-0.671,0.117-1.34,0.254-2.013,0.352c-0.915,0.133-1.833,0.236-2.785,0.355
		c-0.03-0.663-0.471-0.794-0.989-0.863c0.04-0.129,0.042-0.26,0.108-0.328c0.334-0.346,0.518-0.752,0.595-1.222
		c0.145-0.87,1.63-3.751,1.904-4.759c0.055-0.199,0.106-0.401,0.134-0.605c0.052-0.382,0.251-0.579,0.642-0.566
		c0.376,0.012,0.533,0.225,0.665,0.573c0.316,0.835,0.665,1.665,1.071,2.459c0.243,0.477,1.163,0.623,1.624,0.318
		c1.139-0.754,2.31-1.47,3.388-2.306c0.558-0.432,1.061-1.03,1.372-1.66c0.308-0.622,0.354-1.376,0.479-2.08
		c0.017-0.083-0.183-0.238-0.31-0.304c-0.284-0.147-0.575-0.305-0.883-0.373c-0.415-0.091-0.851-0.097-1.276-0.146
		c-0.495-0.057-0.992-0.179-1.484-0.158c-0.311,0.013-0.605,0.278-0.926,0.357c-0.382,0.095-0.782,0.111-1.177,0.163
		c-0.497,0.065-0.995,0.156-1.495,0.19c-0.768,0.053-0.961-0.078-0.94-0.775C79.951,45.745,79.914,45.636,79.887,45.464z"/>
</g>
</svg>
