<?xml version="1.0" encoding="iso-8859-1"?>
<!-- Generator: Adobe Illustrator 18.1.1, SVG Export Plug-In . SVG Version: 6.00 Build 0)  -->
<svg version="1.1" id="Layer_1" xmlns="http://www.w3.org/2000/svg" xmlns:xlink="http://www.w3.org/1999/xlink" x="0px" y="0px"
	 viewBox="0 0 100 100" style="enable-background:new 0 0 100 100;" xml:space="preserve">
<path style="fill-rule:evenodd;clip-rule:evenodd;" d="M53.456,68.033c0.348,0.208,0.568,0.056,0.711-0.189
	c0.21-0.368,0.372-0.764,0.57-1.137c0.104-0.197,0.236-0.381,0.374-0.557c0.658-0.836,0.966-1.854,1.449-2.779
	c0.339-0.648,0.611-1.33,0.908-1.999c0.032-0.075,0.057-0.181,0.03-0.249c-0.222-0.563,0.072-1.008,0.31-1.475
	c0.239-0.472,0.455-0.955,0.685-1.432c0.319-0.664,0.646-1.321,0.96-1.986c0.179-0.377,0.325-0.768,0.508-1.142
	c0.209-0.433,0.462-0.845,0.656-1.281c0.171-0.388,0.265-0.809,0.433-1.196c0.395-0.917,0.643-1.875,0.833-2.85
	c0.053-0.268,0.084-0.549,0.058-0.819c-0.02-0.216-0.164-0.352-0.406-0.17c-0.374,0.283-0.762,0.547-1.132,0.833
	c-0.841,0.651-1.677,1.308-2.511,1.966c-0.5,0.394-0.984,0.805-1.492,1.186c-0.217,0.162-0.479,0.264-0.715,0.402
	c-0.352,0.209-0.691,0.438-1.051,0.632c-0.408,0.224-0.83,0.425-1.252,0.624c-0.458,0.221-0.921,0.438-1.389,0.637
	c-0.536,0.23-1.065,0.494-1.624,0.647c-1.05,0.29-2.389,0.052-3.108-0.926c-0.143-0.192-0.339-0.356-0.54-0.489
	c-0.095-0.062-0.275-0.059-0.387-0.013c-0.846,0.35-1.676,0.731-2.523,1.069c-0.39,0.155-0.797,0.174-1.221,0.028
	c-0.379-0.13-0.785-0.182-1.184-0.255c-0.812-0.148-1.318-0.672-1.769-1.324c-0.528-0.765-0.853-1.615-1.198-2.463
	c-0.037-0.088-0.086-0.178-0.15-0.244c-0.155-0.161-0.32-0.219-0.477,0.003c-0.044,0.061-0.093,0.12-0.131,0.184
	c-0.282,0.471-0.566,0.94-0.844,1.414c-0.163,0.279-0.269,0.612-0.487,0.836c-0.447,0.452-0.803,1.023-1.495,1.188
	c-0.251,0.059-0.481,0.221-0.711,0.355c-0.593,0.344-1.211,0.622-1.851,0.881c-0.986,0.398-1.976,0.469-3.005,0.325
	c-0.335-0.047-0.557,0.151-0.781,0.36c-0.429,0.402-0.896,0.726-1.508,0.804c-0.43,0.054-0.854,0.153-1.278,0.241
	c-0.393,0.081-0.65-0.02-0.854-0.408c-0.409-0.784-0.876-1.539-1.323-2.303c-0.144-0.244-0.273-0.509-0.467-0.713
	c-0.326-0.35-0.664-0.254-0.768,0.207c-0.092,0.404-0.148,0.818-0.211,1.23c-0.102,0.648-0.348,1.176-1.033,1.41
	c-0.521,0.178-1.014,0.453-1.545,0.592c-0.329,0.085-0.711,0.031-1.06-0.014c-0.39-0.049-0.769-0.188-1.158-0.235
	c-0.872-0.108-1.75-0.171-2.622-0.28c-0.59-0.073-1.218-0.095-1.753-0.32c-0.745-0.313-1.54-0.31-2.288-0.537
	c-0.576-0.175-1.103-0.439-1.563-0.84c-0.278-0.239-0.628-0.393-0.914-0.622c-0.36-0.291-0.749-0.578-1.014-0.948
	c-0.329-0.46-0.58-0.988-0.793-1.515c-0.142-0.349-0.181-0.745-0.229-1.126c-0.145-1.203,0.08-2.335,0.691-3.386
	c0.247-0.423,0.485-0.852,0.751-1.261c0.118-0.184,0.287-0.337,0.445-0.494c0.451-0.45,0.893-0.91,1.366-1.335
	c0.425-0.38,0.91-0.692,1.327-1.081c0.831-0.773,1.785-1.372,2.722-2c0.555-0.373,1.062-0.825,1.638-1.162
	c0.853-0.5,1.747-0.934,2.626-1.392c0.208-0.108,0.436-0.182,0.629-0.311c0.115-0.077,0.242-0.218,0.26-0.344
	c0.076-0.547,0.07-1.107,0.177-1.647c0.156-0.789,0.368-1.568,0.582-2.345c0.123-0.44,0.28-0.874,0.454-1.295
	c0.23-0.559,0.502-1.1,0.737-1.658c0.172-0.409,0.278-0.849,0.477-1.243c0.451-0.894,0.929-1.775,1.422-2.648
	c0.32-0.568,0.653-1.136,1.041-1.662c0.298-0.405,0.691-0.741,1.04-1.108c0.211-0.221,0.387-0.492,0.636-0.651
	c0.812-0.519,1.648-0.999,2.476-1.491c0.063-0.039,0.144-0.057,0.195-0.107c0.336-0.317,0.735-0.3,1.057-0.068
	c0.325,0.235,0.44,0.637,0.433,1.056c-0.019,0.797-0.061,1.595-0.028,2.39c0.028,0.712,0.146,1.419,0.222,2.128
	c0.045,0.421-0.004,0.812-0.187,1.214c-0.139,0.308-0.108,0.69-0.177,1.034c-0.06,0.297-0.157,0.586-0.229,0.882
	c-0.07,0.3-0.114,0.609-0.201,0.904c-0.073,0.251-0.207,0.482-0.285,0.731c-0.067,0.217-0.102,0.444-0.137,0.668
	c-0.033,0.204,0.008,0.442-0.082,0.613c-0.464,0.904-0.698,1.869-0.86,2.86c-0.022,0.135-0.089,0.262-0.112,0.396
	c-0.05,0.274-0.082,0.552-0.124,0.828c-0.022,0.146-0.04,0.293-0.071,0.437c-0.085,0.397-0.211,0.788-0.251,1.188
	c-0.021,0.217,0.075,0.46,0.167,0.67c0.114,0.261,0.286,0.499,0.421,0.753c0.303,0.57,0.144,1.592-0.252,2.107
	c-0.258,0.336-0.566,0.556-0.955,0.642c-0.601,0.133-0.857,0.569-1.083,1.076c-0.274,0.624-0.168,1.222,0.077,1.813
	c0.286,0.691,0.573,1.382,0.893,2.057c0.226,0.476,0.506,0.924,0.762,1.386c0.04,0,0.082-0.002,0.121-0.002
	c0.083-0.23,0.171-0.459,0.245-0.692c0.215-0.67,0.381-1.36,0.648-2.007c0.271-0.653,0.649-1.26,0.967-1.894
	c0.186-0.371,0.291-0.794,0.526-1.127c0.646-0.914,1.054-1.979,1.901-2.776c0.718-0.675,1.482-1.257,2.322-1.757
	c0.475-0.282,0.919-0.617,1.371-0.935c0.725-0.512,1.539-0.816,2.396-1.016c0.29-0.067,0.586-0.141,0.881-0.153
	c0.545-0.023,0.833,0.215,1.069,0.705c0.195,0.406,0.279,0.812,0.274,1.262c-0.008,0.488,0.25,0.646,0.716,0.49
	c0.654-0.217,0.87-0.097,0.981,0.598c0.076,0.492,0.098,0.993,0.17,1.487c0.097,0.67,0.22,1.337,0.328,2.005
	c0.149,0.91,0.282,1.824,0.447,2.73c0.048,0.256,0.24,0.489,0.271,0.745c0.118,0.956,0.59,1.79,0.92,2.667
	c0.274,0.723,0.815,1.294,1.488,1.71c0.026,0.016,0.059,0.027,0.085,0.045c0.6,0.381,0.859,0.385,1.344-0.14
	c0.57-0.615,0.948-1.339,1.1-2.19c0.117-0.657,0.331-1.3,0.53-1.94c0.217-0.691,0.474-1.369,0.698-2.057
	c0.134-0.415,0.24-0.839,0.359-1.259c0.017-0.05,0.022-0.106,0.047-0.152c0.386-0.673,0.52-1.436,0.771-2.156
	c0.213-0.6,0.708-0.958,1.23-1.276c0.445-0.271,0.887-0.547,1.333-0.816c0.233-0.141,0.464-0.296,0.713-0.403
	c0.459-0.195,0.899,0.064,1.038,0.55c0.119,0.417,0.118,0.812-0.005,1.227c-0.075,0.253-0.052,0.534-0.119,0.79
	c-0.135,0.513-0.296,1.02-0.457,1.525c-0.259,0.8-0.517,1.599-0.794,2.391c-0.079,0.229-0.215,0.44-0.343,0.65
	c-0.466,0.764-0.965,1.509-1.397,2.292c-0.288,0.526-0.387,1.105-0.091,1.688c0.515,1.012,0.57,0.726,1.806,0.608
	c0.414-0.039,0.817-0.216,1.22-0.348c0.631-0.208,1.077-0.695,1.59-1.078c0.425-0.318,0.861-0.62,1.293-0.929
	c0.216-0.154,0.438-0.301,0.647-0.462c0.634-0.483,1.248-0.989,1.893-1.456c1.145-0.828,2.29-1.661,3.468-2.443
	c0.671-0.445,1.4-0.811,2.12-1.18c0.216-0.11,0.826,0.4,1.075,0.387c0.221-0.013,2.477,1.58,2.447,1.788
	c-0.034,0.239-0.108,0.474-0.167,0.71c-0.072,0.306-0.126,0.619-0.222,0.917c-0.165,0.517-0.348,1.029-0.536,1.538
	c-0.142,0.387-0.289,0.771-0.459,1.146c-0.212,0.475-0.437,0.946-0.683,1.405c-0.278,0.521-0.606,1.018-0.876,1.543
	c-0.232,0.453-0.39,0.943-0.625,1.394c-0.711,1.358-1.448,2.702-2.17,4.056c-0.12,0.225-0.197,0.473-0.314,0.699
	c-0.143,0.271-0.307,0.532-0.458,0.8c-0.402,0.714-0.806,1.426-1.201,2.143c-0.216,0.389-0.454,0.771-0.618,1.184
	c-0.248,0.621-0.526,1.211-0.942,1.75c-0.273,0.354-0.396,0.822-0.613,1.225c-0.292,0.541-0.63,1.059-0.912,1.605
	c-0.181,0.346-0.295,0.729-0.446,1.09c-0.508,1.209-1.021,2.417-1.532,3.624c-0.411,0.968-0.789,1.954-1.258,2.894
	c-0.173,0.348-0.525,0.643-0.861,0.867c-0.812,0.545-3.487,0.098-4.329,0.596c-0.114,0.066-0.312,0.067-0.434,0.016
	c-0.066-0.03-0.107-0.258-0.068-0.361c0.093-0.242,0.19-0.523,0.375-0.688c0.699-0.625,1.09-1.438,1.469-2.262
	c0.533-1.16,1.055-2.328,1.581-3.49c0.228-0.502,0.438-1.01,0.689-1.501C53.015,68.664,53.239,68.369,53.456,68.033z M17.716,54.285
	c0.193-0.115,0.441-0.18,0.545-0.34c0.281-0.424,0.521-0.877,0.737-1.34c0.215-0.46,0.383-0.943,0.567-1.418
	c0.238-0.61,0.576-1.173,0.692-1.839c0.102-0.589,0.034-1.138-0.113-1.695c-0.076-0.287-0.15-0.573-0.233-0.856
	c-0.058-0.203-0.074-0.447-0.199-0.596c-0.515-0.607-0.56-1.396-0.849-2.088c-0.204-0.493-0.258-1.048-0.419-1.564
	c-0.2-0.653-0.233-0.653-0.816-0.336c-0.039,0.021-0.078,0.036-0.116,0.056c-0.469,0.247-0.955,0.468-1.401,0.75
	c-0.377,0.237-0.704,0.55-1.062,0.82c-0.243,0.187-0.482,0.403-0.757,0.529c-0.447,0.206-0.859,0.436-1.211,0.792
	c-0.387,0.391-0.841,0.718-1.219,1.118c-0.326,0.345-0.628,0.728-0.865,1.137c-0.286,0.492-0.577,1.01-0.715,1.555
	c-0.198,0.792,0.199,1.477,0.671,2.086c0.658,0.845,1.548,1.409,2.505,1.835c0.796,0.356,1.636,0.615,2.466,0.889
	C16.496,53.969,17.087,54.109,17.716,54.285z M30.364,48.738c0.021,0.007,0.042,0.013,0.064,0.02c0.028,0.394,0.042,0.79,0.092,1.18
	c0.023,0.186,0.093,0.375,0.184,0.54c0.159,0.298,0.374,0.313,0.61,0.065c0.149-0.161,0.283-0.339,0.439-0.494
	c0.266-0.267,0.574-0.498,0.811-0.789c0.349-0.425,0.671-0.879,0.968-1.342c0.412-0.642,0.851-1.277,1.171-1.966
	c0.348-0.746,0.568-1.554,0.853-2.331c0.257-0.7,0.197-1.405,0.034-2.107c-0.022-0.102-0.181-0.244-0.276-0.243
	c-0.22,0.002-0.471,0.03-0.651,0.141c-0.236,0.145-0.428,0.371-0.619,0.579c-0.622,0.667-1.237,1.34-1.848,2.017
	c-0.09,0.1-0.138,0.236-0.197,0.36c-0.075,0.15-0.139,0.306-0.216,0.454c-0.217,0.413-0.481,0.806-0.649,1.237
	c-0.205,0.521-0.332,1.073-0.487,1.614C30.547,48.026,30.458,48.383,30.364,48.738z M35.388,49.161
	c-0.169,0.064-0.294,0.076-0.363,0.143c-0.504,0.496-1,1-1.493,1.508c-0.435,0.447-0.857,0.908-1.294,1.354
	c-0.296,0.3-0.285,0.542,0.066,0.788c0.148,0.104,0.3,0.207,0.461,0.289c0.333,0.167,0.653,0.238,0.938-0.113
	c0.112-0.137,0.296-0.214,0.416-0.346c0.148-0.162,0.299-0.336,0.384-0.532c0.18-0.416,0.341-0.845,0.462-1.28
	C35.121,50.409,35.233,49.834,35.388,49.161z M22.829,37.061c-0.01,0.001-0.019,0.001-0.027,0.001
	c0.021,0.168-0.004,0.362,0.074,0.495c0.073,0.123,0.249,0.228,0.393,0.251c0.091,0.014,0.275-0.122,0.301-0.22
	c0.218-0.831,0.411-1.668,0.603-2.505c0.016-0.067-0.014-0.188-0.061-0.216c-0.056-0.033-0.168-0.013-0.232,0.025
	c-0.21,0.124-0.441,0.235-0.606,0.407c-0.161,0.169-0.317,0.395-0.363,0.617C22.834,36.289,22.852,36.679,22.829,37.061z"/>
<g>
	<path style="fill-rule:evenodd;clip-rule:evenodd;" d="M91.03,35.41c0.888-0.26-0.327,0.857,0.47,0.642
		c0.115-0.031,0.325,0.014,0.361,0.101c0.25,0.583,0.77,0.425,1.174,0.442c0.468,0.021,0.633,0.066,0.562,0.572
		c-0.076,0.546-0.198,1.088-0.314,1.63c-0.185,0.868-0.359,1.74-0.577,2.599c-0.356,1.398-0.754,2.785-1.115,4.182
		c-0.319,1.229-0.607,2.468-0.92,3.7c-0.091,0.361-0.226,0.712-0.321,1.072c-0.14,0.519-0.231,1.052-0.396,1.563
		c-0.337,1.05-0.718,2.083-1.055,3.134c-0.075,0.234-0.07,0.509-0.057,0.759c0.023,0.415-0.028,0.723-0.429,0.958
		c-0.35,0.206,0.566,0.435,0.241,0.711c-0.242,0.207-0.492,0.506-0.759,0.557c-0.531,0.1-0.851,0.49-1.202,0.875
		c-0.322,0.353-0.652,0.692-1.153,0.738c-0.028-0.568-0.043-1.111-0.088-1.648c-0.015-0.169-0.079-0.354-0.176-0.475
		c-0.531-0.676-0.602-1.451-0.281-2.309c0.25-0.663,0.31-1.326,0.272-2.023c-0.045-0.805,0.052-1.636-0.024-2.433
		c-0.068-0.708-0.04-1.393,0.041-2.106c0.055-0.488-0.03-1.007-0.152-1.47c-0.045-0.167-0.406-0.342-0.585-0.291
		c-0.793,0.229-1.535,0.134-2.27-0.119c-0.051-0.018-0.104-0.05-0.155-0.041c-0.989,0.167-1.911-0.269-2.885-0.199
		c-0.336,0.022-0.686,0.187-1.003,0.353c-0.525,0.275-1.045,0.463-1.603,0.304c-0.039-0.011-0.084-0.042-0.116-0.029
		c-0.725,0.291-1.006-0.532-1.546-0.717c-0.081-0.028-0.132-0.508-0.038-0.649c0.281-0.422,0.179-0.794,0.008-1.124
		c-0.151-0.294-0.111-0.476,0.069-0.74c0.13-0.19,0.195-0.448,0.255-0.683c0.059-0.241,0.076-0.493,0.123-0.83
		c-0.352-0.398-0.029-1.012-0.019-1.558c0.021-1.188,0.12-2.385,0.24-3.576c0.104-1.039,0.259-2.077,0.438-3.11
		c0.094-0.542,0.226-1.1,0.451-1.592c0.179-0.389,0.522-0.694,0.804-1.027c0.194-0.229,0.383-0.496,0.619-0.642
		c0.228-0.142,0.565-0.277,0.765-0.187c0.311,0.14,0.58,0.222,0.93,0.146c0.256-0.058,0.525,0.025,0.791,0.03
		c0.305,0.007,0.614-0.016,0.915,0.003c0.128,0.007,0.275,0.059,0.361,0.153c0.563,0.609,0.677,1.992,0.242,2.781
		c-0.042,0.078-0.099,0.165-0.166,0.202c-0.62,0.347-0.798,0.936-0.858,1.647c-0.049,0.573-0.202,1.142-0.297,1.715
		c-0.037,0.213-0.051,0.429-0.07,0.643c-0.067,0.75-0.086,1.505-0.207,2.248c-0.134,0.799,0.228,1.285,1.104,1.272
		c1.43-0.019,2.775,0.339,4.09,0.832c0.545,0.204,0.719,0.104,0.855-0.582c0.206-1.031,0.341-2.081,0.61-3.093
		c0.276-1.04,0.538-2.081,1.074-3.051c0.416-0.75,0.943-1.366,1.438-2.022c0.25-0.333,0.628-0.552,0.97-0.785
		c0.095-0.066,0.269-0.029,0.381,0.024c0.046,0.022,0.038,0.211,0.027,0.324c-0.028,0.352-0.043,0.71-0.116,1.055
		c-0.132,0.623,0.501,0.011,0.351,0.63C91.074,35.038,91.064,35.186,91.03,35.41z"/>
</g>
</svg>
