<?xml version="1.0" encoding="iso-8859-1"?>
<!-- Generator: Adobe Illustrator 18.1.1, SVG Export Plug-In . SVG Version: 6.00 Build 0)  -->
<svg version="1.1" id="Layer_1" xmlns="http://www.w3.org/2000/svg" xmlns:xlink="http://www.w3.org/1999/xlink" x="0px" y="0px"
	 viewBox="0 0 100 100" style="enable-background:new 0 0 100 100;" xml:space="preserve">
<g>
	<path style="fill-rule:evenodd;clip-rule:evenodd;" d="M78.883,49.471c0.107,0.201,0.178,0.336,0.209,0.393
		c0.521-0.099,0.977-0.174,1.43-0.274c0.197-0.045,0.379-0.177,0.579-0.208c0.248-0.039,0.406,0.041,0.335,0.367
		c-0.037,0.177,0.049,0.378,0.079,0.567c0.044,0.013,0.089,0.025,0.134,0.038c0.071-0.12,0.166-0.232,0.209-0.361
		c0.128-0.364,0.233-0.736,0.351-1.105c0.083-0.26,0.288-0.299,0.518-0.265c0.232,0.035,0.498,0.024,0.532,0.368
		c0.03,0.306,0.128,0.614,0.109,0.915c-0.043,0.732,0.191,1.415,0.451,2.054c0.306,0.755,0.836,1.408,1.81,1.267
		c0.602-0.084,1.199-0.224,1.782-0.391c0.394-0.112,0.764-0.307,1.136-0.484c0.409-0.192,0.616-0.518,0.652-0.981
		c0.034-0.468,0.127-0.935,0.187-1.402c0.011-0.088-0.021-0.183-0.042-0.271c-0.079-0.312-0.151-0.628-0.247-0.936
		c-0.206-0.656-0.41-1.315-0.644-1.964c-0.159-0.435-0.389-0.844-0.548-1.278c-0.215-0.589-0.657-0.885-1.208-1.113
		c-0.359-0.15-0.667-0.422-1.016-0.604c-0.688-0.356-1.413-0.581-2.175-0.746c-0.836-0.181-1.66-0.078-2.485-0.07
		c-0.562,0.005-1.117,0.2-1.68,0.278c-0.322,0.044-0.651,0.04-0.975,0.023c-0.079-0.004-0.176-0.127-0.221-0.218
		c-0.104-0.216-0.131-0.485-0.278-0.657c-0.376-0.445-0.266-0.968-0.292-1.463c-0.039-0.716-0.032-1.436-0.036-2.153
		c-0.006-0.995-0.015-1.991,0.005-2.985c0.009-0.445,0.081-0.89,0.124-1.336c0.007-0.065,0.019-0.133,0.007-0.197
		c-0.116-0.647,0.154-0.985,0.792-1.021c0.19-0.011,0.384-0.071,0.566-0.135c0.348-0.12,0.688-0.257,1.033-0.388
		c0.046-0.019,0.11-0.034,0.136-0.072c0.509-0.76,1.42-0.722,2.143-1.033c0.755-0.325,1.598-0.21,2.415-0.053
		c0.828,0.16,1.669,0.244,2.5,0.388c0.487,0.085,0.962,0.299,1.449,0.317c0.656,0.024,1.086,0.539,1.683,0.656
		c0.35,0.067,0.707,0.1,1.054,0.176c0.202,0.045,0.407,0.123,0.582,0.23c0.072,0.045,0.123,0.225,0.096,0.316
		c-0.219,0.724-0.683,1.284-1.259,1.748c-0.312,0.252-0.433,0.636-0.243,1.025c0.049,0.099,0.085,0.251,0.043,0.337
		c-0.326,0.664-0.831,1.171-1.483,1.512c-0.176,0.092-0.421,0.103-0.626,0.081c-0.451-0.048-0.896-0.153-1.346-0.209
		c-0.353-0.044-0.72-0.017-1.069-0.079c-0.979-0.175-1.954-0.379-2.93-0.573c-0.275-0.056-0.414,0.046-0.397,0.333
		c0,0.013-0.003,0.026-0.003,0.04c0.004,0.909,0.032,0.924,0.931,0.843c1.472-0.133,2.902,0.077,4.291,0.573
		c0.05,0.018,0.1,0.039,0.146,0.067c1.236,0.771,2.441,1.581,3.24,2.844c0.341,0.537,0.563,1.163,0.965,1.646
		c0.444,0.535,0.607,1.17,0.858,1.777c0.095,0.229,0.113,0.49,0.163,0.737c0.011,0.051-0.016,0.116,0.008,0.155
		c0.436,0.751,0.624,1.588,0.655,2.425c0.033,0.879-0.038,1.776-0.197,2.642c-0.157,0.854-0.586,1.65-1.172,2.28
		c-0.784,0.846-1.758,1.468-2.865,1.856c-0.295,0.104-0.548,0.32-0.843,0.436c-1,0.392-2.055,0.538-3.119,0.555
		c-1.084,0.019-2.177,0.041-3.252-0.059c-1.417-0.136-2.778-0.544-3.946-1.388c-0.441-0.318-0.766-0.799-1.141-1.208
		c-0.105-0.113-0.209-0.228-0.298-0.354c-0.082-0.119-0.197-0.255-0.2-0.386c-0.031-1.136-0.022-2.26,1.01-3.057
		C78.337,50.035,78.587,49.753,78.883,49.471z"/>
</g>
<path style="fill-rule:evenodd;clip-rule:evenodd;" d="M53.455,68.511c0.348,0.209,0.568,0.058,0.711-0.189
	c0.21-0.368,0.372-0.763,0.57-1.137c0.104-0.196,0.236-0.38,0.375-0.556c0.657-0.835,0.965-1.854,1.449-2.78
	c0.338-0.646,0.611-1.329,0.907-1.998c0.032-0.075,0.058-0.181,0.03-0.251c-0.222-0.562,0.073-1.006,0.31-1.473
	c0.24-0.472,0.455-0.955,0.686-1.433c0.318-0.663,0.646-1.32,0.959-1.986c0.18-0.376,0.326-0.767,0.508-1.141
	c0.21-0.433,0.462-0.845,0.657-1.281c0.17-0.389,0.265-0.809,0.432-1.196c0.395-0.918,0.643-1.875,0.834-2.85
	c0.052-0.269,0.083-0.549,0.057-0.819c-0.02-0.216-0.164-0.352-0.405-0.169c-0.375,0.281-0.763,0.547-1.133,0.832
	c-0.841,0.651-1.677,1.309-2.511,1.967c-0.499,0.394-0.984,0.806-1.492,1.186c-0.217,0.162-0.479,0.264-0.714,0.403
	c-0.352,0.207-0.692,0.436-1.051,0.631c-0.409,0.225-0.831,0.425-1.252,0.625c-0.459,0.219-0.922,0.436-1.39,0.636
	c-0.535,0.23-1.065,0.493-1.623,0.647c-1.05,0.29-2.39,0.053-3.109-0.926c-0.142-0.192-0.339-0.357-0.54-0.489
	c-0.094-0.062-0.275-0.06-0.388-0.014c-0.844,0.35-1.675,0.733-2.522,1.07c-0.39,0.154-0.798,0.173-1.221,0.028
	c-0.378-0.129-0.785-0.182-1.183-0.255c-0.812-0.148-1.318-0.672-1.77-1.325c-0.528-0.764-0.853-1.615-1.198-2.462
	c-0.037-0.089-0.087-0.177-0.151-0.245c-0.153-0.16-0.319-0.22-0.476,0.004c-0.043,0.061-0.092,0.119-0.131,0.184
	c-0.282,0.47-0.565,0.94-0.844,1.414c-0.163,0.278-0.269,0.612-0.487,0.836c-0.446,0.451-0.803,1.023-1.494,1.188
	c-0.252,0.059-0.481,0.222-0.712,0.354c-0.592,0.345-1.21,0.623-1.85,0.881c-0.987,0.398-1.976,0.469-3.006,0.326
	c-0.335-0.048-0.558,0.151-0.781,0.359c-0.428,0.403-0.896,0.727-1.508,0.805c-0.43,0.054-0.853,0.154-1.278,0.241
	c-0.392,0.081-0.65-0.021-0.852-0.408c-0.41-0.785-0.876-1.539-1.324-2.304c-0.143-0.243-0.273-0.509-0.466-0.711
	c-0.327-0.35-0.664-0.255-0.768,0.206c-0.092,0.404-0.149,0.817-0.212,1.229c-0.101,0.649-0.348,1.178-1.033,1.41
	c-0.521,0.18-1.014,0.452-1.544,0.592c-0.33,0.087-0.711,0.031-1.061-0.013c-0.389-0.049-0.767-0.186-1.157-0.235
	c-0.872-0.109-1.75-0.17-2.623-0.28c-0.589-0.073-1.218-0.095-1.752-0.32c-0.746-0.314-1.54-0.309-2.289-0.537
	c-0.577-0.175-1.102-0.438-1.563-0.84c-0.277-0.238-0.629-0.393-0.915-0.623c-0.358-0.29-0.748-0.577-1.013-0.947
	c-0.329-0.461-0.58-0.986-0.793-1.515c-0.142-0.35-0.181-0.745-0.228-1.126c-0.146-1.203,0.08-2.335,0.691-3.387
	c0.247-0.422,0.483-0.851,0.75-1.26c0.119-0.186,0.288-0.338,0.446-0.494c0.45-0.45,0.893-0.91,1.365-1.335
	c0.425-0.38,0.911-0.692,1.328-1.081c0.831-0.772,1.784-1.372,2.721-2c0.556-0.373,1.062-0.824,1.638-1.161
	c0.854-0.501,1.747-0.934,2.626-1.392c0.209-0.108,0.436-0.182,0.629-0.311c0.116-0.076,0.242-0.217,0.26-0.344
	c0.076-0.546,0.07-1.108,0.178-1.647c0.154-0.789,0.367-1.568,0.582-2.345c0.122-0.44,0.28-0.874,0.454-1.296
	c0.23-0.56,0.502-1.101,0.736-1.657c0.173-0.409,0.278-0.85,0.477-1.243c0.452-0.894,0.93-1.775,1.421-2.648
	c0.321-0.569,0.654-1.137,1.041-1.662c0.299-0.405,0.692-0.741,1.041-1.108c0.211-0.221,0.388-0.491,0.636-0.651
	c0.812-0.519,1.648-0.998,2.476-1.491c0.065-0.038,0.145-0.057,0.196-0.105c0.335-0.317,0.734-0.301,1.056-0.069
	c0.326,0.235,0.44,0.637,0.433,1.057c-0.018,0.797-0.06,1.595-0.028,2.391c0.029,0.711,0.146,1.418,0.222,2.128
	c0.046,0.422-0.004,0.812-0.186,1.214c-0.139,0.309-0.108,0.69-0.177,1.034c-0.06,0.298-0.157,0.586-0.228,0.882
	c-0.071,0.3-0.114,0.608-0.201,0.904c-0.074,0.251-0.208,0.482-0.286,0.731c-0.068,0.216-0.101,0.443-0.137,0.667
	c-0.033,0.205,0.008,0.441-0.081,0.613c-0.464,0.903-0.699,1.869-0.861,2.86c-0.023,0.134-0.088,0.262-0.112,0.396
	c-0.05,0.273-0.082,0.552-0.123,0.827c-0.022,0.146-0.041,0.293-0.072,0.437c-0.085,0.396-0.211,0.788-0.25,1.188
	c-0.023,0.217,0.074,0.46,0.166,0.67c0.113,0.262,0.286,0.499,0.421,0.753c0.304,0.571,0.143,1.592-0.252,2.107
	c-0.257,0.336-0.565,0.557-0.954,0.641c-0.603,0.135-0.859,0.57-1.083,1.077c-0.275,0.624-0.169,1.221,0.076,1.812
	c0.286,0.691,0.574,1.383,0.894,2.058c0.226,0.477,0.506,0.924,0.761,1.387c0.041-0.001,0.082-0.003,0.122-0.003
	c0.082-0.229,0.171-0.46,0.245-0.692c0.215-0.67,0.38-1.359,0.647-2.008c0.271-0.652,0.649-1.26,0.966-1.894
	c0.188-0.371,0.293-0.794,0.527-1.127c0.647-0.914,1.055-1.979,1.901-2.775c0.718-0.676,1.482-1.258,2.322-1.759
	c0.475-0.281,0.919-0.616,1.372-0.935c0.724-0.512,1.538-0.816,2.396-1.016c0.291-0.067,0.586-0.141,0.881-0.153
	c0.545-0.022,0.833,0.215,1.07,0.705c0.193,0.405,0.278,0.812,0.274,1.262c-0.008,0.489,0.249,0.646,0.714,0.49
	c0.655-0.218,0.872-0.097,0.981,0.598c0.076,0.493,0.099,0.993,0.17,1.486c0.097,0.67,0.221,1.337,0.328,2.005
	c0.15,0.91,0.283,1.824,0.447,2.731c0.048,0.256,0.24,0.488,0.271,0.744c0.117,0.956,0.588,1.79,0.92,2.667
	c0.274,0.723,0.815,1.294,1.487,1.71c0.026,0.017,0.059,0.028,0.085,0.046c0.601,0.381,0.86,0.385,1.345-0.139
	c0.569-0.616,0.947-1.34,1.1-2.191c0.116-0.657,0.331-1.301,0.529-1.94c0.217-0.69,0.473-1.368,0.698-2.057
	c0.134-0.415,0.24-0.839,0.359-1.259c0.017-0.051,0.023-0.106,0.048-0.152c0.385-0.673,0.519-1.436,0.771-2.155
	c0.211-0.603,0.707-0.959,1.23-1.277c0.444-0.271,0.886-0.547,1.332-0.816c0.234-0.141,0.464-0.296,0.713-0.402
	c0.459-0.196,0.899,0.063,1.039,0.55c0.119,0.416,0.118,0.812-0.005,1.226c-0.075,0.254-0.053,0.534-0.119,0.79
	c-0.136,0.513-0.296,1.02-0.458,1.526c-0.258,0.799-0.517,1.599-0.794,2.391c-0.079,0.228-0.216,0.44-0.343,0.65
	c-0.465,0.765-0.964,1.508-1.397,2.291c-0.288,0.525-0.386,1.105-0.091,1.687c0.516,1.012,0.57,0.726,1.806,0.608
	c0.414-0.039,0.818-0.215,1.221-0.348c0.631-0.206,1.075-0.694,1.589-1.077c0.424-0.318,0.861-0.62,1.293-0.93
	c0.216-0.154,0.438-0.3,0.647-0.462c0.634-0.482,1.248-0.988,1.892-1.455c1.146-0.828,2.29-1.662,3.468-2.443
	c0.671-0.445,1.4-0.811,2.119-1.179c0.218-0.111,0.827,0.4,1.076,0.385c0.221-0.01,2.477,1.581,2.447,1.789
	c-0.033,0.239-0.108,0.474-0.167,0.71c-0.072,0.306-0.126,0.618-0.222,0.918c-0.164,0.518-0.348,1.028-0.535,1.537
	c-0.143,0.387-0.289,0.773-0.459,1.147c-0.214,0.475-0.438,0.946-0.684,1.405c-0.278,0.522-0.605,1.018-0.875,1.543
	c-0.233,0.453-0.39,0.943-0.626,1.393c-0.712,1.359-1.448,2.703-2.17,4.057c-0.12,0.224-0.197,0.472-0.314,0.699
	c-0.142,0.272-0.307,0.532-0.458,0.8c-0.402,0.714-0.805,1.426-1.2,2.143c-0.217,0.389-0.454,0.771-0.618,1.183
	c-0.248,0.622-0.527,1.212-0.943,1.75c-0.272,0.355-0.396,0.823-0.613,1.225c-0.292,0.542-0.629,1.061-0.912,1.607
	c-0.181,0.346-0.294,0.729-0.447,1.089c-0.508,1.208-1.02,2.417-1.53,3.624c-0.412,0.968-0.79,1.953-1.258,2.893
	c-0.173,0.349-0.525,0.644-0.861,0.867c-0.812,0.545-3.487,0.1-4.331,0.596c-0.113,0.065-0.311,0.067-0.433,0.016
	c-0.066-0.029-0.106-0.257-0.067-0.359c0.092-0.243,0.189-0.524,0.375-0.688c0.698-0.625,1.089-1.438,1.469-2.262
	c0.533-1.16,1.053-2.328,1.58-3.49c0.227-0.5,0.438-1.011,0.689-1.501C53.015,69.143,53.238,68.849,53.455,68.511z M17.715,54.763
	c0.193-0.114,0.442-0.18,0.546-0.338c0.28-0.424,0.521-0.879,0.736-1.341c0.216-0.46,0.384-0.943,0.567-1.419
	c0.238-0.608,0.576-1.173,0.691-1.839c0.103-0.589,0.035-1.138-0.112-1.693c-0.076-0.287-0.15-0.573-0.233-0.857
	c-0.058-0.202-0.075-0.447-0.2-0.596c-0.515-0.607-0.559-1.396-0.848-2.088c-0.204-0.493-0.259-1.047-0.419-1.563
	c-0.201-0.652-0.233-0.653-0.817-0.337c-0.038,0.021-0.078,0.036-0.116,0.056c-0.469,0.247-0.955,0.468-1.401,0.75
	c-0.376,0.237-0.704,0.55-1.061,0.82c-0.244,0.188-0.482,0.403-0.758,0.53c-0.447,0.204-0.858,0.435-1.21,0.79
	c-0.387,0.392-0.842,0.72-1.219,1.118c-0.328,0.345-0.629,0.729-0.866,1.136c-0.286,0.494-0.577,1.012-0.714,1.557
	c-0.199,0.792,0.197,1.477,0.671,2.086c0.657,0.845,1.548,1.408,2.505,1.835c0.795,0.354,1.635,0.617,2.466,0.889
	C16.496,54.448,17.086,54.588,17.715,54.763z M30.363,49.216c0.021,0.008,0.042,0.013,0.065,0.021
	c0.028,0.394,0.042,0.789,0.091,1.18c0.024,0.187,0.094,0.375,0.184,0.54c0.16,0.298,0.374,0.314,0.61,0.065
	c0.15-0.16,0.284-0.338,0.439-0.494c0.267-0.267,0.575-0.498,0.812-0.788c0.35-0.426,0.672-0.878,0.968-1.343
	c0.413-0.642,0.852-1.277,1.171-1.966c0.349-0.747,0.569-1.554,0.854-2.331c0.257-0.701,0.196-1.406,0.034-2.107
	c-0.022-0.101-0.181-0.243-0.276-0.242c-0.221,0.002-0.472,0.029-0.651,0.14c-0.237,0.146-0.428,0.372-0.621,0.58
	c-0.62,0.667-1.236,1.339-1.846,2.017c-0.09,0.1-0.138,0.236-0.199,0.361c-0.074,0.149-0.138,0.305-0.215,0.452
	c-0.217,0.413-0.479,0.806-0.648,1.239c-0.204,0.52-0.332,1.072-0.486,1.612C30.547,48.504,30.457,48.861,30.363,49.216z
	 M35.387,49.64c-0.169,0.065-0.294,0.076-0.362,0.143c-0.504,0.496-1.001,1.001-1.494,1.507c-0.435,0.448-0.857,0.908-1.294,1.355
	c-0.296,0.3-0.284,0.541,0.066,0.788c0.148,0.104,0.301,0.205,0.461,0.287c0.333,0.168,0.653,0.238,0.939-0.111
	c0.112-0.138,0.296-0.215,0.415-0.347c0.148-0.161,0.299-0.336,0.385-0.532c0.179-0.416,0.341-0.845,0.461-1.28
	C35.121,50.889,35.232,50.312,35.387,49.64z M22.828,37.539c-0.01,0.001-0.018,0.002-0.027,0.002
	c0.021,0.168-0.003,0.362,0.074,0.494c0.073,0.123,0.249,0.229,0.393,0.251c0.091,0.014,0.275-0.121,0.301-0.22
	c0.218-0.831,0.412-1.667,0.603-2.505c0.016-0.066-0.014-0.188-0.062-0.216c-0.055-0.032-0.167-0.013-0.232,0.025
	c-0.209,0.123-0.441,0.234-0.605,0.406c-0.162,0.17-0.318,0.396-0.363,0.618C22.834,36.767,22.852,37.157,22.828,37.539z"/>
</svg>
