<?xml version="1.0" encoding="iso-8859-1"?>
<!-- Generator: Adobe Illustrator 18.1.1, SVG Export Plug-In . SVG Version: 6.00 Build 0)  -->
<svg version="1.1" id="Layer_1" xmlns="http://www.w3.org/2000/svg" xmlns:xlink="http://www.w3.org/1999/xlink" x="0px" y="0px"
	 viewBox="0 0 100 100" style="enable-background:new 0 0 100 100;" xml:space="preserve">
<path style="fill-rule:evenodd;clip-rule:evenodd;" d="M93.569,47.684c-0.464-0.873-1.119-1.645-1.71-2.446
	c-0.101-0.136-0.304-0.196-0.468-0.297c-0.097-0.179-0.17-0.432-0.333-0.6c-0.522-0.544-1.055-1.085-1.628-1.572
	c-0.441-0.374-0.928-0.71-1.437-0.987c-0.819-0.447-1.649-0.896-2.52-1.223c-0.822-0.31-1.698-0.464-2.699-0.726
	c-0.879-0.054-0.595-0.442-0.62-0.954c-0.014-0.292-0.001-0.378,0.044-0.455c0.238-1.827,1.3-2.999,3.783-3.324
	c0.926-0.199,1.999-0.082,2.72,0.046c0.064-0.001,0.13,0,0.198,0c0.158,0.004,0.328-0.006,0.474-0.061
	c0.364-0.139,0.756-0.254,1.065-0.479c0.517-0.373,0.983-0.816,1.456-1.247c0.077-0.073,0.136-0.284,0.088-0.351
	c-0.271-0.383-0.584-0.73-0.862-1.105c-0.216-0.288-0.411-0.568-0.835-0.526c-0.282,0.029-0.579,0.085-0.848,0.025
	c-1.116-0.236-2.175,0.049-3.245,0.283c-1.333,0.291-2.668,0.574-4.004,0.856c-1.584,0.331-3,1.035-4.331,1.932
	c-0.166,0.112-0.328,0.261-0.435,0.431c-0.389,0.612-0.814,1.215-1.104,1.874c-0.333,0.757-0.737,1.507-0.747,2.376
	c-0.012,0.879-0.146,1.738-0.537,2.539c-0.25,0.508-0.133,0.997,0.078,1.478c0.216,0.481,0.124,1.084,0.371,1.551
	c0.188,0.356,0.475,1.499,0.624,1.872c0.312,0.782,0.729,2.455,1.284,3.566c1.021,2.038,2.812,3.267,4.796,4.204
	c0.856,0.405,1.808,0.607,2.716,0.895c0.106,0.033,0.224,0.053,0.332,0.041c0.712-0.076,1.42-0.179,2.133-0.238
	c0.309-0.026,0.628,0.048,0.941,0.032c0.938-0.043,1.907,0.068,2.774-0.437c0.025-0.017,0.067,0.003,0.095-0.009
	c0.947-0.41,2.038-0.575,2.445-1.786c0.22-0.656,0.567-1.257,0.62-1.98C94.331,49.74,94.088,48.658,93.569,47.684z M88.212,50.028
	c-0.134,0.319-0.283,0.639-0.491,0.911c-0.082,0.105-0.36,0.153-0.506,0.103c-0.597-0.205-1.225-0.386-1.746-0.719
	c-0.358-0.231-0.607-0.677-0.819-1.072c-0.325-0.597-0.594-1.229-0.855-1.858c-0.183-0.445-0.316-0.909-0.408-1.405
	c1.099,0.152,2.112,0.201,3.092,0.732c0.974,0.527,1.521,1.344,2.11,2.248C88.477,49.288,88.365,49.668,88.212,50.028z"/>
<path style="fill-rule:evenodd;clip-rule:evenodd;" d="M52.455,68.153c0.348,0.209,0.568,0.056,0.711-0.19
	c0.21-0.367,0.372-0.762,0.57-1.136c0.104-0.196,0.236-0.381,0.375-0.558c0.657-0.834,0.965-1.852,1.449-2.778
	c0.338-0.647,0.611-1.33,0.907-2c0.032-0.073,0.058-0.179,0.03-0.249c-0.222-0.562,0.073-1.007,0.31-1.474
	c0.24-0.471,0.455-0.954,0.686-1.432c0.318-0.664,0.646-1.321,0.959-1.987c0.18-0.375,0.326-0.766,0.508-1.14
	c0.21-0.433,0.462-0.845,0.657-1.282c0.17-0.388,0.265-0.809,0.432-1.197c0.395-0.916,0.643-1.874,0.834-2.848
	c0.052-0.269,0.083-0.55,0.057-0.819c-0.02-0.216-0.164-0.352-0.405-0.17c-0.375,0.281-0.763,0.547-1.133,0.833
	c-0.841,0.65-1.677,1.308-2.511,1.966c-0.499,0.393-0.984,0.806-1.492,1.186c-0.217,0.162-0.479,0.264-0.714,0.403
	c-0.352,0.207-0.692,0.436-1.051,0.631c-0.409,0.223-0.831,0.425-1.252,0.624c-0.459,0.22-0.922,0.436-1.39,0.637
	c-0.535,0.23-1.065,0.492-1.623,0.646c-1.05,0.291-2.39,0.053-3.109-0.925c-0.142-0.192-0.339-0.357-0.54-0.49
	c-0.094-0.062-0.275-0.059-0.388-0.013c-0.844,0.35-1.675,0.732-2.522,1.07c-0.39,0.154-0.798,0.173-1.221,0.027
	c-0.378-0.13-0.785-0.182-1.183-0.254c-0.812-0.149-1.318-0.672-1.77-1.325c-0.528-0.765-0.853-1.615-1.198-2.462
	c-0.037-0.089-0.087-0.178-0.151-0.245c-0.153-0.16-0.319-0.22-0.476,0.002c-0.043,0.062-0.092,0.121-0.131,0.186
	c-0.282,0.47-0.565,0.94-0.844,1.413c-0.163,0.279-0.269,0.612-0.487,0.836c-0.446,0.452-0.803,1.024-1.494,1.189
	c-0.252,0.059-0.481,0.222-0.712,0.355c-0.592,0.344-1.21,0.623-1.85,0.881c-0.987,0.399-1.976,0.469-3.006,0.326
	c-0.335-0.048-0.558,0.15-0.781,0.359c-0.428,0.403-0.896,0.727-1.508,0.805c-0.43,0.053-0.853,0.153-1.278,0.241
	c-0.392,0.081-0.65-0.021-0.852-0.408c-0.41-0.785-0.876-1.54-1.324-2.304c-0.143-0.245-0.273-0.509-0.466-0.712
	c-0.327-0.35-0.664-0.255-0.768,0.205c-0.092,0.406-0.149,0.819-0.212,1.232c-0.101,0.648-0.348,1.176-1.033,1.41
	c-0.521,0.179-1.014,0.452-1.544,0.592c-0.33,0.086-0.711,0.031-1.061-0.013c-0.389-0.049-0.767-0.188-1.157-0.235
	c-0.872-0.109-1.75-0.17-2.623-0.281c-0.589-0.073-1.218-0.094-1.752-0.32c-0.746-0.314-1.54-0.309-2.289-0.536
	c-0.577-0.175-1.102-0.44-1.563-0.84c-0.277-0.239-0.629-0.392-0.915-0.623c-0.358-0.292-0.748-0.577-1.013-0.948
	c-0.329-0.46-0.58-0.987-0.793-1.514c-0.142-0.35-0.181-0.745-0.228-1.126c-0.146-1.203,0.08-2.335,0.691-3.387
	c0.247-0.422,0.483-0.851,0.75-1.261c0.119-0.186,0.288-0.338,0.446-0.494c0.45-0.449,0.893-0.91,1.365-1.334
	c0.425-0.381,0.911-0.692,1.328-1.081c0.831-0.774,1.784-1.373,2.721-2c0.556-0.373,1.062-0.824,1.638-1.161
	c0.854-0.501,1.747-0.935,2.626-1.393c0.209-0.108,0.436-0.183,0.629-0.312c0.116-0.076,0.242-0.218,0.26-0.344
	c0.076-0.546,0.07-1.107,0.178-1.648c0.154-0.788,0.367-1.568,0.582-2.345c0.122-0.44,0.28-0.873,0.454-1.295
	c0.23-0.56,0.502-1.101,0.736-1.658c0.173-0.409,0.278-0.849,0.477-1.243c0.452-0.894,0.93-1.776,1.421-2.648
	c0.321-0.567,0.654-1.137,1.041-1.661c0.299-0.405,0.692-0.741,1.041-1.108c0.211-0.221,0.388-0.492,0.636-0.651
	c0.812-0.519,1.648-0.999,2.476-1.492c0.065-0.038,0.145-0.055,0.196-0.105c0.335-0.317,0.734-0.3,1.056-0.068
	c0.326,0.235,0.44,0.636,0.433,1.057c-0.018,0.796-0.06,1.594-0.028,2.39c0.029,0.712,0.146,1.419,0.222,2.129
	c0.046,0.421-0.004,0.811-0.186,1.214c-0.139,0.309-0.108,0.69-0.177,1.033c-0.06,0.297-0.157,0.586-0.228,0.882
	c-0.071,0.301-0.114,0.608-0.201,0.905c-0.074,0.25-0.208,0.482-0.286,0.732c-0.068,0.215-0.101,0.442-0.137,0.667
	c-0.033,0.204,0.008,0.441-0.081,0.612c-0.464,0.904-0.699,1.869-0.861,2.861c-0.023,0.134-0.088,0.262-0.112,0.396
	c-0.05,0.273-0.082,0.553-0.123,0.827c-0.022,0.146-0.041,0.293-0.072,0.437c-0.085,0.397-0.211,0.788-0.25,1.188
	c-0.023,0.217,0.074,0.46,0.166,0.671c0.113,0.262,0.286,0.498,0.421,0.753c0.304,0.57,0.143,1.591-0.252,2.106
	c-0.257,0.336-0.565,0.558-0.954,0.642c-0.603,0.133-0.859,0.569-1.083,1.077c-0.275,0.623-0.169,1.22,0.076,1.812
	c0.286,0.691,0.574,1.383,0.894,2.058c0.226,0.477,0.506,0.924,0.761,1.385c0.041,0,0.082-0.001,0.122-0.001
	c0.082-0.23,0.171-0.46,0.245-0.692c0.215-0.67,0.38-1.359,0.647-2.008c0.271-0.652,0.649-1.261,0.966-1.895
	c0.188-0.371,0.293-0.794,0.527-1.126c0.647-0.914,1.055-1.979,1.901-2.775c0.718-0.676,1.481-1.259,2.322-1.759
	c0.475-0.281,0.919-0.616,1.372-0.936c0.724-0.512,1.538-0.815,2.396-1.015c0.291-0.069,0.586-0.141,0.881-0.153
	c0.545-0.023,0.833,0.216,1.07,0.705c0.193,0.405,0.278,0.812,0.274,1.262c-0.008,0.489,0.249,0.646,0.714,0.49
	c0.655-0.219,0.872-0.097,0.981,0.597c0.076,0.492,0.099,0.994,0.17,1.487c0.097,0.67,0.221,1.335,0.328,2.005
	c0.15,0.91,0.283,1.824,0.447,2.731c0.048,0.257,0.24,0.489,0.271,0.745c0.117,0.956,0.588,1.79,0.92,2.667
	c0.274,0.723,0.815,1.294,1.487,1.71c0.026,0.017,0.059,0.027,0.085,0.045c0.601,0.382,0.86,0.386,1.345-0.139
	c0.569-0.616,0.947-1.34,1.1-2.191c0.116-0.656,0.331-1.3,0.529-1.94c0.217-0.691,0.473-1.368,0.698-2.057
	c0.134-0.416,0.24-0.838,0.359-1.258c0.017-0.051,0.023-0.107,0.048-0.152c0.385-0.674,0.519-1.436,0.771-2.156
	c0.211-0.602,0.707-0.958,1.23-1.277c0.444-0.27,0.886-0.547,1.332-0.814c0.234-0.142,0.464-0.298,0.713-0.403
	c0.459-0.196,0.899,0.063,1.039,0.549c0.119,0.417,0.118,0.812-0.005,1.227c-0.075,0.254-0.053,0.534-0.119,0.79
	c-0.136,0.513-0.296,1.02-0.458,1.526c-0.258,0.798-0.517,1.598-0.794,2.391c-0.079,0.228-0.216,0.438-0.343,0.649
	c-0.465,0.764-0.964,1.508-1.397,2.292c-0.288,0.525-0.386,1.104-0.091,1.687c0.516,1.012,0.57,0.726,1.806,0.608
	c0.414-0.04,0.818-0.216,1.221-0.348c0.631-0.208,1.075-0.695,1.589-1.078c0.424-0.318,0.861-0.619,1.293-0.929
	c0.216-0.154,0.438-0.301,0.647-0.462c0.634-0.484,1.248-0.988,1.892-1.455c1.146-0.829,2.29-1.662,3.468-2.443
	c0.671-0.445,1.4-0.811,2.119-1.18c0.218-0.11,0.827,0.4,1.076,0.386c0.221-0.012,2.477,1.581,2.447,1.789
	c-0.033,0.238-0.108,0.473-0.167,0.709c-0.072,0.307-0.126,0.619-0.222,0.918c-0.164,0.517-0.348,1.029-0.535,1.538
	c-0.143,0.386-0.289,0.771-0.459,1.146c-0.214,0.475-0.438,0.945-0.684,1.404c-0.278,0.522-0.605,1.018-0.875,1.544
	c-0.233,0.452-0.39,0.943-0.626,1.393c-0.712,1.358-1.448,2.703-2.17,4.057c-0.12,0.224-0.197,0.472-0.314,0.699
	c-0.142,0.271-0.307,0.531-0.458,0.8c-0.402,0.713-0.805,1.425-1.2,2.144c-0.217,0.388-0.454,0.771-0.618,1.182
	c-0.248,0.623-0.527,1.213-0.943,1.751c-0.272,0.354-0.396,0.822-0.613,1.225c-0.292,0.542-0.629,1.06-0.912,1.605
	c-0.181,0.347-0.294,0.729-0.447,1.091c-0.508,1.208-1.02,2.417-1.53,3.623c-0.412,0.968-0.79,1.953-1.258,2.894
	c-0.173,0.348-0.525,0.643-0.861,0.867c-0.812,0.545-3.487,0.099-4.331,0.596c-0.113,0.065-0.311,0.067-0.433,0.015
	c-0.066-0.029-0.106-0.258-0.067-0.358c0.092-0.243,0.189-0.525,0.375-0.689c0.698-0.625,1.089-1.438,1.469-2.262
	c0.533-1.161,1.053-2.329,1.58-3.49c0.227-0.502,0.438-1.011,0.689-1.501C52.015,68.785,52.238,68.49,52.455,68.153z M16.715,54.405
	c0.193-0.115,0.442-0.18,0.546-0.339c0.28-0.424,0.521-0.878,0.736-1.34c0.216-0.46,0.384-0.943,0.567-1.419
	c0.238-0.61,0.576-1.174,0.691-1.839c0.103-0.589,0.035-1.139-0.112-1.694c-0.076-0.286-0.15-0.573-0.233-0.856
	c-0.058-0.203-0.075-0.447-0.2-0.596c-0.515-0.608-0.559-1.396-0.848-2.088c-0.204-0.494-0.259-1.048-0.419-1.565
	c-0.201-0.653-0.233-0.653-0.817-0.336c-0.038,0.021-0.078,0.036-0.116,0.055c-0.469,0.248-0.955,0.469-1.401,0.751
	c-0.376,0.237-0.704,0.549-1.061,0.82c-0.244,0.187-0.482,0.403-0.758,0.529c-0.447,0.205-0.858,0.436-1.21,0.79
	c-0.387,0.393-0.842,0.719-1.219,1.119c-0.328,0.344-0.629,0.728-0.866,1.136c-0.286,0.494-0.577,1.012-0.714,1.557
	c-0.199,0.792,0.197,1.476,0.671,2.085c0.657,0.846,1.548,1.409,2.505,1.836c0.795,0.354,1.635,0.615,2.466,0.889
	C15.496,54.091,16.086,54.23,16.715,54.405z M29.363,48.858c0.021,0.006,0.042,0.013,0.065,0.019
	c0.028,0.396,0.042,0.79,0.091,1.181c0.024,0.186,0.094,0.375,0.184,0.541c0.16,0.297,0.374,0.315,0.61,0.066
	c0.15-0.162,0.284-0.339,0.439-0.494c0.267-0.267,0.575-0.499,0.812-0.789c0.35-0.426,0.672-0.878,0.968-1.342
	c0.413-0.642,0.852-1.277,1.171-1.966c0.349-0.747,0.569-1.554,0.854-2.332c0.257-0.7,0.196-1.405,0.034-2.106
	c-0.022-0.103-0.181-0.245-0.276-0.243c-0.221,0.003-0.472,0.03-0.651,0.141c-0.237,0.145-0.428,0.371-0.621,0.579
	c-0.62,0.668-1.236,1.34-1.846,2.018c-0.09,0.099-0.138,0.236-0.199,0.359c-0.074,0.15-0.138,0.306-0.215,0.454
	c-0.217,0.413-0.479,0.806-0.648,1.237c-0.204,0.521-0.332,1.074-0.486,1.614C29.547,48.146,29.457,48.504,29.363,48.858z
	 M34.387,49.28c-0.169,0.065-0.294,0.076-0.362,0.144c-0.504,0.497-1.001,1-1.494,1.508c-0.435,0.448-0.857,0.908-1.294,1.354
	c-0.296,0.3-0.284,0.543,0.066,0.789c0.149,0.104,0.301,0.206,0.461,0.288c0.333,0.167,0.653,0.238,0.939-0.112
	c0.112-0.137,0.296-0.215,0.415-0.346c0.148-0.163,0.299-0.337,0.385-0.532c0.179-0.416,0.341-0.845,0.461-1.282
	C34.121,50.529,34.232,49.954,34.387,49.28z M21.828,37.182c-0.01,0.001-0.018,0.002-0.027,0.002
	c0.021,0.167-0.003,0.361,0.074,0.494c0.073,0.123,0.249,0.229,0.393,0.25c0.091,0.014,0.275-0.121,0.301-0.218
	c0.218-0.832,0.412-1.669,0.603-2.507c0.016-0.065-0.014-0.185-0.062-0.215c-0.055-0.032-0.167-0.013-0.232,0.025
	c-0.209,0.123-0.441,0.234-0.605,0.407c-0.162,0.169-0.318,0.395-0.363,0.616C21.834,36.409,21.852,36.8,21.828,37.182z"/>
</svg>
