<?xml version="1.0" encoding="iso-8859-1"?>
<!-- Generator: Adobe Illustrator 18.1.1, SVG Export Plug-In . SVG Version: 6.00 Build 0)  -->
<svg version="1.1" id="Layer_1" xmlns="http://www.w3.org/2000/svg" xmlns:xlink="http://www.w3.org/1999/xlink" x="0px" y="0px"
	 viewBox="0 0 100 100" style="enable-background:new 0 0 100 100;" xml:space="preserve">
<g>
	<path style="fill-rule:evenodd;clip-rule:evenodd;" d="M89.56,35.892c0.397,0.036,0.723,0.041,1.038,0.099
		c0.544,0.095,0.636,0.38,0.285,0.782c-0.291,0.331-0.633,0.637-0.841,1.015c-0.293,0.529-0.524,1.103-0.705,1.684
		c-0.204,0.657-0.323,1.342-0.479,2.016c-0.106,0.461-0.21,0.924-0.315,1.385c-0.145,0.628-0.312,1.251-0.427,1.886
		c-0.167,0.908-0.279,1.827-0.446,2.734c-0.094,0.51-0.252,1.008-0.381,1.511c-0.004,0.014-0.007,0.028-0.008,0.043
		c-0.162,1.21-0.324,2.418-0.486,3.629c-0.027,0.205-0.046,0.413-0.078,0.618c-0.083,0.513-0.063,0.537,0.454,0.473
		c0.086-0.011,0.172-0.024,0.268-0.038c0.273,0.6-0.021,1.054-0.367,1.449c-0.666,0.765-1.238,1.583-1.564,2.544
		c-0.074,0.214-0.004,0.508,0.078,0.736c0.098,0.272,0.023,0.43-0.151,0.634c-0.446,0.521-1.069,0.601-1.673,0.741
		c-0.697,0.161-1.392,0.328-2.093,0.474c-0.164,0.035-0.37,0.049-0.509-0.023c-1.299-0.671-1.552-1.481-1.08-2.864
		c0.391-1.146,0.705-2.325,0.961-3.51c0.419-1.933,0.771-3.878,1.128-5.822c0.195-1.057,0.322-2.125,0.52-3.181
		c0.19-1.024,0.431-2.04,0.65-3.061c0.139-0.646,0.258-1.296,0.421-1.938c0.149-0.587,0.312-1.177,0.538-1.738
		c0.135-0.335-0.01-0.411-0.259-0.448c-0.445-0.066-0.895-0.135-1.343-0.157c-1.425-0.072-2.85-0.122-4.272-0.18
		c-0.193-0.009-0.389-0.009-0.577-0.048c-0.661-0.138-1.303,0.052-1.953,0.104c-0.144,0.012-0.324,0.048-0.431-0.02
		c-0.485-0.306-0.963-0.63-1.42-0.979c-0.194-0.147-0.209-0.304,0.065-0.477c0.248-0.158,0.449-0.421,0.604-0.68
		c0.188-0.313,0.418-0.471,0.771-0.367c0.675,0.196,1.134-0.015,1.498-0.624c0.549-0.918,1.429-1.312,2.471-1.445
		c0.933-0.119,1.851-0.197,2.794-0.051c0.595,0.093,1.219-0.014,1.816,0.066c1.838,0.25,3.669,0.543,5.502,0.82
		c0.045,0.008,0.087,0.021,0.131,0.024c0.683,0.045,0.854,0.343,0.561,1.004c-0.092,0.203-0.22,0.388-0.334,0.579
		C89.818,35.466,89.713,35.639,89.56,35.892z"/>
</g>
<path style="fill-rule:evenodd;clip-rule:evenodd;" d="M55.455,68.18c0.348,0.208,0.568,0.056,0.711-0.19
	c0.21-0.368,0.372-0.763,0.57-1.137c0.104-0.196,0.236-0.381,0.375-0.557c0.657-0.836,0.965-1.854,1.449-2.779
	c0.338-0.648,0.611-1.329,0.907-1.999c0.032-0.074,0.058-0.18,0.03-0.249c-0.222-0.563,0.073-1.007,0.31-1.474
	c0.24-0.472,0.455-0.957,0.686-1.432c0.318-0.665,0.646-1.322,0.959-1.988c0.18-0.377,0.326-0.768,0.508-1.142
	c0.21-0.432,0.462-0.843,0.657-1.281c0.17-0.387,0.265-0.807,0.432-1.195c0.395-0.916,0.643-1.875,0.834-2.85
	c0.052-0.267,0.083-0.55,0.057-0.819c-0.02-0.215-0.164-0.352-0.405-0.17c-0.375,0.283-0.763,0.547-1.133,0.834
	c-0.841,0.65-1.677,1.308-2.511,1.966c-0.499,0.394-0.984,0.805-1.492,1.186c-0.217,0.163-0.479,0.264-0.714,0.402
	c-0.352,0.209-0.692,0.438-1.051,0.632c-0.409,0.224-0.831,0.425-1.252,0.625c-0.459,0.22-0.922,0.436-1.39,0.637
	c-0.535,0.229-1.065,0.493-1.623,0.647c-1.05,0.289-2.39,0.053-3.109-0.928c-0.142-0.19-0.339-0.354-0.54-0.487
	c-0.094-0.062-0.275-0.06-0.388-0.013c-0.844,0.349-1.675,0.732-2.522,1.069c-0.39,0.155-0.798,0.172-1.221,0.026
	c-0.378-0.129-0.785-0.181-1.183-0.253c-0.812-0.148-1.318-0.672-1.77-1.325c-0.528-0.766-0.853-1.615-1.198-2.462
	c-0.037-0.088-0.087-0.178-0.151-0.245c-0.153-0.162-0.319-0.219-0.476,0.003c-0.043,0.062-0.092,0.12-0.131,0.184
	c-0.282,0.471-0.565,0.942-0.844,1.415c-0.163,0.278-0.269,0.612-0.487,0.836c-0.446,0.451-0.803,1.022-1.494,1.187
	c-0.252,0.06-0.481,0.222-0.712,0.356c-0.592,0.345-1.21,0.622-1.85,0.88c-0.987,0.399-1.975,0.47-3.006,0.326
	c-0.335-0.046-0.558,0.152-0.781,0.361c-0.428,0.401-0.896,0.726-1.508,0.803c-0.43,0.055-0.853,0.154-1.278,0.241
	c-0.392,0.081-0.65-0.02-0.852-0.408c-0.41-0.783-0.876-1.539-1.324-2.304c-0.143-0.243-0.273-0.508-0.466-0.712
	c-0.327-0.35-0.664-0.253-0.768,0.207c-0.092,0.404-0.149,0.818-0.212,1.23c-0.101,0.649-0.348,1.177-1.033,1.41
	c-0.521,0.179-1.014,0.453-1.544,0.592c-0.33,0.085-0.711,0.03-1.061-0.013c-0.389-0.05-0.767-0.188-1.157-0.236
	c-0.872-0.108-1.75-0.171-2.623-0.28c-0.589-0.074-1.218-0.094-1.752-0.319c-0.746-0.314-1.54-0.311-2.289-0.538
	c-0.577-0.176-1.101-0.439-1.563-0.84c-0.277-0.239-0.629-0.393-0.915-0.621c-0.358-0.292-0.748-0.579-1.013-0.948
	c-0.329-0.461-0.58-0.988-0.793-1.516C8.214,52.178,8.175,51.78,8.128,51.4c-0.146-1.202,0.08-2.335,0.691-3.386
	c0.247-0.423,0.483-0.852,0.75-1.262c0.119-0.184,0.288-0.338,0.446-0.493c0.45-0.449,0.893-0.911,1.365-1.336
	c0.425-0.38,0.911-0.692,1.328-1.081c0.831-0.772,1.784-1.371,2.721-1.999c0.556-0.372,1.063-0.823,1.638-1.161
	c0.854-0.501,1.747-0.934,2.626-1.392c0.209-0.107,0.436-0.183,0.629-0.311c0.116-0.076,0.242-0.218,0.26-0.345
	c0.076-0.547,0.07-1.108,0.178-1.647c0.154-0.789,0.367-1.568,0.582-2.345c0.122-0.441,0.28-0.874,0.454-1.297
	c0.23-0.559,0.502-1.1,0.736-1.656c0.173-0.408,0.278-0.85,0.477-1.242c0.452-0.895,0.93-1.776,1.421-2.649
	c0.321-0.569,0.654-1.137,1.041-1.662c0.299-0.405,0.692-0.742,1.041-1.108c0.211-0.221,0.388-0.49,0.636-0.651
	c0.812-0.52,1.648-0.998,2.476-1.49c0.065-0.039,0.145-0.058,0.196-0.106c0.335-0.318,0.734-0.302,1.056-0.069
	c0.326,0.236,0.44,0.638,0.433,1.057c-0.018,0.797-0.06,1.596-0.028,2.391c0.029,0.711,0.146,1.418,0.222,2.129
	c0.046,0.421-0.004,0.812-0.186,1.214c-0.139,0.307-0.108,0.689-0.177,1.033c-0.06,0.298-0.157,0.587-0.228,0.882
	c-0.071,0.301-0.114,0.609-0.201,0.904c-0.074,0.252-0.208,0.481-0.286,0.73c-0.068,0.217-0.101,0.444-0.137,0.668
	c-0.033,0.204,0.008,0.442-0.081,0.614c-0.464,0.902-0.699,1.868-0.861,2.859c-0.023,0.135-0.088,0.262-0.112,0.396
	c-0.05,0.274-0.082,0.551-0.123,0.828c-0.022,0.146-0.041,0.292-0.072,0.436c-0.085,0.396-0.211,0.789-0.25,1.188
	c-0.023,0.217,0.074,0.461,0.166,0.671c0.113,0.261,0.286,0.498,0.421,0.753c0.304,0.569,0.143,1.592-0.252,2.107
	c-0.257,0.335-0.565,0.555-0.954,0.642c-0.603,0.133-0.859,0.567-1.083,1.074c-0.275,0.625-0.169,1.223,0.076,1.814
	c0.286,0.69,0.574,1.381,0.894,2.057c0.226,0.475,0.506,0.924,0.761,1.385c0.041,0,0.082-0.001,0.122-0.002
	c0.082-0.23,0.171-0.459,0.245-0.692c0.215-0.67,0.38-1.36,0.647-2.007c0.271-0.654,0.649-1.26,0.966-1.894
	c0.188-0.371,0.293-0.794,0.527-1.127c0.647-0.915,1.055-1.979,1.901-2.777c0.718-0.675,1.482-1.256,2.322-1.757
	c0.475-0.282,0.919-0.616,1.372-0.936c0.724-0.513,1.538-0.816,2.396-1.016c0.291-0.067,0.586-0.141,0.881-0.153
	c0.545-0.021,0.833,0.215,1.07,0.705c0.193,0.405,0.278,0.812,0.274,1.263c-0.008,0.487,0.249,0.646,0.714,0.489
	c0.655-0.217,0.872-0.097,0.981,0.598c0.076,0.492,0.099,0.993,0.17,1.487c0.097,0.669,0.221,1.336,0.328,2.006
	c0.15,0.909,0.283,1.823,0.447,2.729c0.048,0.256,0.24,0.489,0.271,0.744c0.117,0.956,0.588,1.792,0.92,2.668
	c0.274,0.723,0.815,1.294,1.487,1.711c0.026,0.015,0.059,0.027,0.085,0.044c0.601,0.38,0.86,0.385,1.345-0.14
	c0.569-0.616,0.947-1.338,1.1-2.19c0.116-0.657,0.331-1.3,0.529-1.941c0.217-0.691,0.473-1.369,0.698-2.058
	c0.134-0.414,0.24-0.838,0.359-1.258c0.017-0.051,0.023-0.106,0.048-0.152c0.385-0.673,0.519-1.437,0.771-2.156
	c0.211-0.6,0.707-0.957,1.23-1.275c0.444-0.271,0.886-0.547,1.332-0.817c0.234-0.141,0.464-0.296,0.713-0.403
	c0.459-0.193,0.899,0.065,1.039,0.552c0.119,0.416,0.118,0.81-0.005,1.226c-0.075,0.252-0.053,0.534-0.119,0.79
	c-0.136,0.514-0.296,1.021-0.458,1.525c-0.258,0.8-0.517,1.599-0.794,2.391c-0.079,0.229-0.216,0.44-0.343,0.649
	c-0.465,0.765-0.964,1.51-1.397,2.292c-0.288,0.526-0.386,1.106-0.091,1.689c0.516,1.012,0.57,0.725,1.806,0.608
	c0.414-0.04,0.818-0.217,1.221-0.349c0.631-0.207,1.075-0.694,1.589-1.079c0.424-0.316,0.861-0.618,1.293-0.927
	c0.216-0.154,0.438-0.302,0.647-0.463c0.634-0.483,1.248-0.99,1.892-1.457c1.146-0.827,2.29-1.659,3.468-2.442
	c0.671-0.445,1.4-0.811,2.119-1.179c0.218-0.11,0.827,0.4,1.076,0.387c0.221-0.013,2.477,1.579,2.447,1.787
	c-0.033,0.24-0.108,0.475-0.167,0.711c-0.072,0.306-0.126,0.617-0.222,0.916c-0.164,0.518-0.348,1.029-0.535,1.539
	c-0.143,0.387-0.289,0.771-0.459,1.145c-0.214,0.476-0.438,0.947-0.684,1.406c-0.278,0.522-0.605,1.019-0.875,1.544
	c-0.233,0.452-0.39,0.942-0.626,1.393c-0.712,1.357-1.448,2.7-2.17,4.054c-0.12,0.227-0.197,0.474-0.314,0.7
	c-0.142,0.271-0.307,0.532-0.458,0.8c-0.402,0.713-0.805,1.426-1.2,2.143c-0.217,0.39-0.454,0.773-0.618,1.184
	c-0.248,0.623-0.527,1.211-0.943,1.752c-0.272,0.354-0.396,0.821-0.613,1.224c-0.292,0.541-0.629,1.059-0.912,1.605
	c-0.181,0.347-0.294,0.729-0.447,1.091c-0.508,1.209-1.02,2.416-1.53,3.622c-0.412,0.969-0.79,1.955-1.258,2.895
	c-0.173,0.349-0.525,0.643-0.861,0.866c-0.812,0.546-3.487,0.1-4.331,0.596c-0.113,0.067-0.311,0.069-0.433,0.017
	c-0.066-0.029-0.106-0.258-0.067-0.361c0.092-0.242,0.189-0.524,0.375-0.688c0.698-0.624,1.089-1.436,1.469-2.261
	c0.533-1.159,1.053-2.327,1.58-3.49c0.227-0.501,0.438-1.01,0.689-1.501C55.015,68.812,55.238,68.517,55.455,68.18z M19.715,54.432
	c0.193-0.115,0.442-0.181,0.546-0.339c0.28-0.425,0.521-0.879,0.736-1.341c0.216-0.461,0.384-0.943,0.567-1.419
	c0.238-0.608,0.576-1.172,0.691-1.838c0.103-0.589,0.035-1.138-0.112-1.695c-0.076-0.286-0.15-0.572-0.233-0.856
	c-0.058-0.202-0.075-0.446-0.2-0.595c-0.515-0.607-0.559-1.396-0.848-2.087c-0.204-0.494-0.259-1.05-0.419-1.565
	c-0.201-0.652-0.233-0.654-0.817-0.335c-0.038,0.019-0.078,0.034-0.116,0.055c-0.469,0.247-0.955,0.468-1.401,0.749
	c-0.376,0.237-0.704,0.55-1.062,0.819c-0.244,0.188-0.481,0.403-0.758,0.53c-0.447,0.206-0.858,0.437-1.21,0.792
	c-0.387,0.391-0.842,0.718-1.219,1.118c-0.328,0.345-0.629,0.728-0.866,1.137c-0.286,0.492-0.577,1.011-0.714,1.556
	c-0.199,0.792,0.197,1.477,0.671,2.085c0.657,0.845,1.548,1.408,2.505,1.835c0.795,0.356,1.635,0.616,2.466,0.89
	C18.496,54.116,19.086,54.255,19.715,54.432z M32.363,48.885c0.021,0.007,0.042,0.014,0.065,0.02
	c0.028,0.394,0.042,0.79,0.091,1.181c0.024,0.186,0.094,0.374,0.184,0.54c0.16,0.298,0.374,0.312,0.61,0.063
	c0.15-0.16,0.284-0.338,0.439-0.492c0.267-0.268,0.575-0.498,0.812-0.789c0.35-0.426,0.672-0.879,0.968-1.342
	c0.413-0.643,0.852-1.277,1.171-1.967c0.349-0.746,0.569-1.555,0.854-2.331c0.257-0.701,0.196-1.405,0.034-2.107
	c-0.022-0.102-0.181-0.243-0.276-0.243c-0.221,0.003-0.472,0.029-0.651,0.142c-0.237,0.146-0.428,0.372-0.621,0.578
	c-0.62,0.668-1.236,1.34-1.846,2.017c-0.09,0.101-0.138,0.238-0.199,0.361c-0.074,0.15-0.138,0.307-0.215,0.454
	c-0.217,0.413-0.479,0.806-0.648,1.237c-0.204,0.521-0.332,1.072-0.486,1.613C32.547,48.172,32.457,48.529,32.363,48.885z
	 M37.387,49.308c-0.169,0.064-0.294,0.076-0.362,0.142c-0.504,0.496-1.001,1.001-1.494,1.509c-0.435,0.447-0.857,0.909-1.294,1.354
	c-0.296,0.3-0.284,0.542,0.066,0.787c0.148,0.103,0.301,0.207,0.461,0.288c0.333,0.169,0.653,0.239,0.939-0.112
	c0.112-0.138,0.296-0.213,0.415-0.347c0.148-0.16,0.299-0.335,0.385-0.53c0.179-0.417,0.341-0.845,0.461-1.281
	C37.121,50.556,37.232,49.981,37.387,49.308z M24.828,37.207c-0.01,0.002-0.018,0.002-0.027,0.002
	c0.021,0.169-0.003,0.362,0.074,0.494c0.073,0.123,0.249,0.229,0.393,0.251c0.091,0.015,0.275-0.12,0.301-0.22
	c0.218-0.83,0.412-1.668,0.603-2.504c0.016-0.067-0.014-0.188-0.062-0.216c-0.055-0.033-0.167-0.013-0.232,0.025
	c-0.209,0.124-0.441,0.235-0.605,0.406c-0.162,0.17-0.318,0.396-0.363,0.619C24.834,36.436,24.852,36.825,24.828,37.207z"/>
</svg>
