<?xml version="1.0" encoding="iso-8859-1"?>
<!-- Generator: Adobe Illustrator 18.1.1, SVG Export Plug-In . SVG Version: 6.00 Build 0)  -->
<svg version="1.1" id="Layer_1" xmlns="http://www.w3.org/2000/svg" xmlns:xlink="http://www.w3.org/1999/xlink" x="0px" y="0px"
	 viewBox="0 0 100 100" style="enable-background:new 0 0 100 100;" xml:space="preserve">
<g>
	<path style="fill-rule:evenodd;clip-rule:evenodd;" d="M81.665,57.992c-0.218-0.123-0.442-0.243-0.655-0.377
		c-0.229-0.143-0.441-0.311-0.675-0.445c-0.162-0.093-0.346-0.147-0.522-0.216c-0.059-0.021-0.135-0.012-0.186-0.044
		c-0.452-0.31-0.912-0.613-1.354-0.941c-0.365-0.271-0.748-0.532-1.055-0.862c-0.36-0.389-0.761-0.804-0.942-1.284
		c-0.293-0.783-0.476-1.614-0.365-2.484c0.082-0.665,0.043-1.343,0.131-2.005c0.059-0.433-0.036-0.901,0.422-1.274
		c0.229-0.188,0.166-0.708,0.293-1.056c0.308-0.846,0.714-1.643,1.397-2.257c0.343-0.308,0.728-0.569,1.089-0.848
		c-0.257-0.743-1.163-1.124-1.034-2.047c-0.62-0.091-0.814-0.539-0.992-1.064c-0.142-0.417-0.445-0.778-0.627-1.189
		c-0.204-0.458-0.41-0.933-0.509-1.421c-0.123-0.613-0.153-1.246-0.196-1.871c-0.077-1.115,0.578-1.865,1.336-2.538
		c0.476-0.425,0.985-0.812,1.501-1.188c0.719-0.525,1.511-0.837,2.423-0.793c1.091,0.051,2.183,0.077,3.271,0.123
		c0.16,0.007,0.317,0.054,0.474,0.096c0.436,0.113,0.842,0.158,0.99-0.481c0.711,0.265,1.396,0.504,2.067,0.779
		c0.239,0.099,0.433,0.304,0.661,0.431c0.46,0.257,0.955,0.46,1.392,0.75c0.568,0.376,1.144,0.766,1.625,1.246
		c0.371,0.37,0.629,0.867,0.88,1.339c0.109,0.208,0.187,0.561,0.086,0.731c-0.304,0.511-0.012,0.892,0.175,1.295
		c0.392,0.84,0.782,1.674,0.591,2.643c-0.007,0.03-0.009,0.077,0.008,0.094c0.576,0.521,0.206,1.148,0.084,1.671
		c-0.104,0.445-0.543,0.812-0.872,1.27c0.257,0.328,0.262,0.741,0.01,1.201c-0.072,0.131,0.037,0.399,0.124,0.576
		c0.491,0.988,1.159,1.849,1.85,2.713c0.533,0.666,0.799,1.521,0.766,2.447c-0.031,0.995-0.172,1.926-0.617,2.838
		c-0.354,0.724-0.483,1.552-0.801,2.295c-0.429,1-1.074,1.795-2.215,2.093c-0.611,0.158-1.164,0.554-1.776,0.683
		c-0.862,0.18-1.758,0.209-2.638,0.306c-0.258,0.028-0.516,0.066-0.772,0.103c-1.424,0.196-2.752-0.305-4.117-0.551
		c-0.705-0.128-1.428-0.163-2.136-0.271c-1.426-0.218-2.698-0.806-3.855-1.65c-0.077-0.056-0.148-0.125-0.208-0.2
		c-0.089-0.108-0.164-0.229-0.225-0.376c1.604,1.499,3.636,1.805,5.646,2.172C81.629,58.1,81.646,58.046,81.665,57.992z
		 M88.42,48.032c-0.537,0.412-0.518,1.083-0.692,1.608c-0.17-0.137-0.32-0.258-0.471-0.381c-0.204-0.17-0.5-0.303-0.587-0.519
		c-0.136-0.34-0.132-0.735-0.194-1.16c-0.203,0.05-0.428,0.074-0.63,0.155c-0.874,0.353-1.669-0.016-2.483-0.244
		c-0.126-0.037-0.325-0.062-0.399,0.008c-0.36,0.329-0.891,0.577-0.695,1.236c0.028,0.098-0.088,0.232-0.123,0.355
		c-0.062,0.212-0.145,0.426-0.162,0.644c-0.099,1.223,0.204,2.396,0.589,3.529c0.132,0.392,0.299,0.964,0.89,1.039
		c1.426,0.183,2.853,0.365,4.283,0.52c0.876,0.098,0.889,0.01,1.344-0.725c0.204-0.33,0.138-0.633,0.203-0.946
		c0.106-0.508,0.279-1,0.383-1.51c0.084-0.41,0.139-0.833,0.149-1.252c0.012-0.406,0.06-0.868-0.103-1.212
		C89.471,48.651,89.063,48.194,88.42,48.032z M85.386,37.277c-0.397,0.167-0.731,0.441-0.929,0.364
		c-0.341-0.136-0.494,0.036-0.66,0.193c-0.467,0.446-0.556,1.127-0.178,1.65c0.693,0.958,1.753,1.37,2.814,1.753
		c0.053,0.02,0.284-0.209,0.269-0.295c-0.07-0.417-0.108-0.815,0.081-1.216c0.051-0.104,0.008-0.25,0.009-0.379
		C86.799,38.242,86.036,37.697,85.386,37.277z"/>
</g>
<path style="fill-rule:evenodd;clip-rule:evenodd;" d="M52.455,68.564c0.348,0.208,0.568,0.055,0.711-0.19
	c0.21-0.367,0.372-0.763,0.57-1.136c0.104-0.196,0.236-0.382,0.375-0.558c0.657-0.835,0.965-1.852,1.449-2.779
	c0.338-0.648,0.611-1.33,0.907-1.999c0.032-0.074,0.058-0.18,0.03-0.249c-0.222-0.562,0.073-1.008,0.31-1.474
	c0.24-0.472,0.455-0.955,0.686-1.432c0.318-0.664,0.646-1.322,0.959-1.987c0.18-0.376,0.326-0.768,0.508-1.141
	c0.21-0.433,0.462-0.845,0.657-1.281c0.17-0.389,0.265-0.809,0.432-1.197c0.395-0.916,0.643-1.874,0.834-2.849
	c0.052-0.268,0.083-0.55,0.057-0.819c-0.02-0.215-0.164-0.352-0.405-0.171c-0.375,0.283-0.763,0.547-1.133,0.834
	c-0.841,0.65-1.677,1.309-2.511,1.966c-0.499,0.394-0.984,0.806-1.492,1.187c-0.217,0.163-0.479,0.265-0.714,0.402
	c-0.352,0.208-0.692,0.437-1.051,0.632c-0.409,0.223-0.831,0.424-1.252,0.624c-0.459,0.219-0.922,0.437-1.39,0.638
	c-0.535,0.229-1.065,0.491-1.623,0.646c-1.05,0.292-2.39,0.053-3.109-0.925c-0.142-0.192-0.339-0.356-0.54-0.489
	c-0.094-0.061-0.275-0.06-0.388-0.013c-0.844,0.349-1.675,0.732-2.522,1.07c-0.39,0.154-0.798,0.172-1.221,0.027
	c-0.378-0.13-0.785-0.182-1.183-0.256c-0.812-0.147-1.318-0.671-1.77-1.323c-0.528-0.765-0.853-1.615-1.198-2.462
	c-0.037-0.089-0.087-0.178-0.151-0.245c-0.153-0.161-0.319-0.22-0.476,0.002c-0.043,0.062-0.092,0.12-0.131,0.184
	c-0.282,0.471-0.565,0.941-0.844,1.415c-0.163,0.278-0.269,0.612-0.487,0.836c-0.446,0.452-0.803,1.022-1.494,1.188
	c-0.252,0.06-0.481,0.221-0.712,0.355c-0.592,0.345-1.21,0.623-1.85,0.881c-0.987,0.399-1.976,0.469-3.006,0.325
	c-0.335-0.047-0.558,0.152-0.781,0.361c-0.428,0.402-0.896,0.727-1.508,0.803c-0.43,0.055-0.853,0.154-1.278,0.242
	c-0.392,0.08-0.65-0.02-0.852-0.408c-0.41-0.785-0.876-1.54-1.324-2.303c-0.143-0.245-0.273-0.509-0.466-0.714
	c-0.327-0.349-0.664-0.253-0.768,0.207c-0.092,0.405-0.149,0.819-0.212,1.23c-0.101,0.648-0.348,1.177-1.033,1.411
	c-0.521,0.177-1.014,0.451-1.544,0.591c-0.33,0.086-0.711,0.032-1.061-0.013c-0.389-0.05-0.767-0.188-1.157-0.236
	c-0.872-0.107-1.75-0.17-2.623-0.281c-0.589-0.071-1.218-0.093-1.752-0.318c-0.746-0.314-1.54-0.311-2.289-0.537
	c-0.577-0.175-1.102-0.439-1.563-0.84c-0.277-0.239-0.629-0.393-0.915-0.623c-0.358-0.291-0.748-0.578-1.013-0.947
	c-0.329-0.461-0.58-0.988-0.793-1.515c-0.142-0.351-0.181-0.745-0.228-1.126c-0.146-1.203,0.08-2.336,0.691-3.386
	c0.247-0.423,0.483-0.851,0.75-1.261c0.119-0.186,0.288-0.338,0.446-0.494c0.45-0.45,0.893-0.91,1.365-1.336
	c0.425-0.381,0.911-0.691,1.328-1.08c0.831-0.773,1.784-1.372,2.721-1.999c0.556-0.374,1.062-0.826,1.638-1.163
	c0.854-0.5,1.747-0.933,2.626-1.393c0.209-0.107,0.436-0.181,0.629-0.31c0.116-0.076,0.242-0.218,0.26-0.345
	c0.076-0.547,0.07-1.106,0.178-1.646c0.154-0.789,0.367-1.569,0.582-2.346c0.122-0.439,0.28-0.874,0.454-1.295
	c0.23-0.559,0.502-1.1,0.736-1.657c0.173-0.41,0.278-0.849,0.477-1.244c0.452-0.893,0.93-1.775,1.421-2.648
	c0.321-0.568,0.654-1.137,1.041-1.662c0.299-0.405,0.692-0.741,1.041-1.108c0.211-0.222,0.388-0.492,0.636-0.652
	c0.812-0.518,1.648-0.999,2.476-1.491c0.065-0.037,0.145-0.056,0.196-0.105c0.335-0.317,0.734-0.301,1.056-0.068
	c0.326,0.235,0.44,0.637,0.433,1.057c-0.018,0.796-0.06,1.595-0.028,2.391c0.029,0.71,0.146,1.419,0.222,2.128
	c0.046,0.421-0.004,0.812-0.186,1.215c-0.139,0.308-0.108,0.689-0.177,1.032c-0.06,0.298-0.157,0.587-0.228,0.883
	c-0.071,0.3-0.114,0.607-0.201,0.903c-0.074,0.251-0.208,0.482-0.286,0.731c-0.068,0.217-0.101,0.443-0.137,0.669
	c-0.033,0.202,0.008,0.441-0.081,0.612c-0.464,0.903-0.699,1.868-0.861,2.859c-0.023,0.136-0.088,0.264-0.112,0.396
	c-0.05,0.274-0.082,0.553-0.123,0.827c-0.022,0.146-0.041,0.294-0.072,0.438c-0.085,0.396-0.211,0.787-0.25,1.187
	c-0.023,0.218,0.074,0.46,0.166,0.672c0.113,0.261,0.286,0.498,0.421,0.751c0.304,0.571,0.143,1.593-0.252,2.107
	c-0.257,0.336-0.565,0.557-0.954,0.643c-0.603,0.133-0.859,0.568-1.083,1.075c-0.275,0.624-0.169,1.222,0.076,1.812
	c0.286,0.692,0.574,1.384,0.894,2.057c0.226,0.477,0.506,0.925,0.761,1.387c0.041-0.001,0.082-0.001,0.122-0.002
	c0.082-0.23,0.171-0.46,0.245-0.692c0.215-0.671,0.38-1.36,0.647-2.008c0.271-0.652,0.649-1.26,0.966-1.894
	c0.188-0.372,0.293-0.794,0.527-1.128c0.647-0.913,1.055-1.979,1.901-2.775c0.718-0.675,1.481-1.258,2.322-1.758
	c0.475-0.282,0.919-0.616,1.372-0.935c0.724-0.511,1.538-0.815,2.396-1.016c0.291-0.067,0.586-0.141,0.881-0.151
	c0.545-0.024,0.833,0.214,1.07,0.704c0.193,0.406,0.278,0.812,0.274,1.262c-0.008,0.488,0.249,0.646,0.714,0.489
	c0.655-0.218,0.872-0.097,0.981,0.598c0.076,0.492,0.099,0.993,0.17,1.487c0.097,0.67,0.221,1.336,0.328,2.005
	c0.15,0.91,0.283,1.824,0.447,2.73c0.048,0.257,0.24,0.49,0.271,0.745c0.117,0.957,0.588,1.791,0.92,2.667
	c0.274,0.724,0.815,1.295,1.487,1.711c0.026,0.017,0.059,0.027,0.085,0.045c0.601,0.38,0.86,0.386,1.345-0.141
	c0.569-0.614,0.947-1.339,1.1-2.19c0.116-0.656,0.331-1.301,0.529-1.94c0.217-0.691,0.473-1.369,0.698-2.057
	c0.134-0.416,0.24-0.839,0.359-1.259c0.017-0.051,0.023-0.107,0.048-0.152c0.385-0.673,0.519-1.437,0.771-2.156
	c0.211-0.601,0.707-0.958,1.23-1.276c0.444-0.271,0.886-0.547,1.332-0.816c0.234-0.142,0.464-0.297,0.713-0.402
	c0.459-0.196,0.899,0.063,1.039,0.549c0.119,0.418,0.118,0.812-0.005,1.228c-0.075,0.253-0.053,0.534-0.119,0.789
	c-0.136,0.514-0.296,1.021-0.458,1.524c-0.258,0.801-0.517,1.6-0.794,2.393c-0.079,0.229-0.216,0.439-0.343,0.649
	c-0.465,0.765-0.964,1.509-1.397,2.292c-0.288,0.526-0.386,1.104-0.091,1.688c0.516,1.011,0.57,0.725,1.806,0.607
	c0.414-0.04,0.818-0.215,1.221-0.348c0.631-0.207,1.075-0.695,1.589-1.077c0.424-0.318,0.861-0.621,1.293-0.929
	c0.216-0.154,0.438-0.303,0.647-0.463c0.634-0.483,1.248-0.988,1.892-1.455c1.146-0.828,2.29-1.661,3.468-2.442
	c0.671-0.445,1.4-0.812,2.119-1.181c0.218-0.109,0.827,0.401,1.076,0.387c0.221-0.013,2.477,1.579,2.447,1.788
	c-0.033,0.238-0.108,0.473-0.167,0.71c-0.072,0.306-0.126,0.618-0.222,0.917c-0.164,0.517-0.348,1.029-0.535,1.538
	c-0.143,0.387-0.289,0.771-0.459,1.146c-0.214,0.475-0.438,0.946-0.684,1.404c-0.278,0.521-0.605,1.018-0.875,1.544
	c-0.233,0.453-0.39,0.943-0.626,1.393c-0.712,1.357-1.448,2.702-2.17,4.055c-0.12,0.226-0.197,0.473-0.314,0.7
	c-0.142,0.271-0.307,0.532-0.458,0.799c-0.402,0.714-0.805,1.427-1.2,2.144c-0.217,0.39-0.454,0.771-0.618,1.184
	c-0.248,0.623-0.527,1.211-0.943,1.75c-0.272,0.355-0.396,0.821-0.613,1.225c-0.292,0.541-0.629,1.059-0.912,1.605
	c-0.181,0.346-0.294,0.729-0.447,1.092c-0.508,1.207-1.02,2.415-1.53,3.623c-0.412,0.967-0.79,1.953-1.258,2.893
	c-0.173,0.349-0.525,0.642-0.861,0.868c-0.812,0.545-3.487,0.097-4.331,0.596c-0.113,0.065-0.311,0.067-0.433,0.015
	c-0.066-0.03-0.106-0.258-0.067-0.36c0.092-0.242,0.189-0.522,0.375-0.688c0.698-0.625,1.089-1.438,1.469-2.263
	c0.533-1.16,1.053-2.327,1.58-3.49c0.227-0.501,0.438-1.01,0.689-1.5C52.015,69.195,52.238,68.899,52.455,68.564z M16.715,54.816
	c0.193-0.116,0.442-0.18,0.546-0.341c0.28-0.423,0.521-0.877,0.736-1.339c0.216-0.46,0.384-0.943,0.567-1.418
	c0.238-0.61,0.576-1.175,0.691-1.84c0.103-0.589,0.035-1.138-0.112-1.694c-0.076-0.286-0.15-0.573-0.233-0.857
	c-0.058-0.202-0.075-0.447-0.2-0.595c-0.515-0.608-0.559-1.396-0.848-2.089c-0.204-0.494-0.259-1.048-0.419-1.564
	c-0.201-0.652-0.233-0.652-0.817-0.336c-0.038,0.021-0.078,0.036-0.116,0.056c-0.469,0.247-0.955,0.469-1.401,0.749
	c-0.376,0.237-0.704,0.55-1.061,0.821c-0.244,0.186-0.482,0.402-0.758,0.529c-0.447,0.206-0.858,0.436-1.21,0.791
	c-0.387,0.392-0.842,0.718-1.219,1.119c-0.328,0.344-0.629,0.726-0.866,1.136c-0.286,0.493-0.577,1.011-0.714,1.556
	c-0.199,0.792,0.197,1.477,0.671,2.086c0.657,0.844,1.548,1.409,2.505,1.836c0.795,0.354,1.635,0.614,2.466,0.889
	C15.496,54.5,16.086,54.641,16.715,54.816z M29.363,49.27c0.021,0.006,0.042,0.012,0.065,0.019c0.028,0.394,0.042,0.79,0.091,1.181
	c0.024,0.186,0.094,0.374,0.184,0.54c0.16,0.298,0.374,0.313,0.61,0.065c0.15-0.161,0.284-0.34,0.439-0.494
	c0.267-0.266,0.575-0.498,0.812-0.788c0.35-0.426,0.672-0.88,0.968-1.342c0.413-0.643,0.852-1.278,1.171-1.968
	c0.349-0.746,0.569-1.554,0.854-2.332c0.257-0.698,0.196-1.404,0.034-2.105c-0.022-0.101-0.181-0.244-0.276-0.243
	c-0.221,0.003-0.472,0.03-0.651,0.142c-0.237,0.144-0.428,0.37-0.621,0.578c-0.62,0.667-1.236,1.34-1.846,2.018
	c-0.09,0.1-0.138,0.236-0.199,0.36c-0.074,0.149-0.138,0.305-0.215,0.453c-0.217,0.413-0.479,0.807-0.648,1.237
	c-0.204,0.521-0.332,1.073-0.486,1.615C29.547,48.558,29.457,48.914,29.363,49.27z M34.387,49.691
	c-0.169,0.065-0.294,0.076-0.362,0.144c-0.504,0.495-1.001,1-1.494,1.508c-0.435,0.447-0.857,0.908-1.294,1.354
	c-0.296,0.3-0.284,0.542,0.066,0.787c0.149,0.104,0.301,0.207,0.461,0.289c0.333,0.167,0.653,0.239,0.939-0.111
	c0.112-0.139,0.296-0.216,0.415-0.347c0.148-0.162,0.299-0.337,0.385-0.532c0.179-0.417,0.341-0.844,0.461-1.281
	C34.121,50.939,34.232,50.365,34.387,49.691z M21.828,37.593c-0.01,0-0.018,0.001-0.027,0.001c0.021,0.168-0.003,0.361,0.074,0.495
	c0.073,0.122,0.249,0.227,0.393,0.25c0.091,0.014,0.275-0.121,0.301-0.22c0.218-0.831,0.412-1.667,0.603-2.505
	c0.016-0.067-0.014-0.188-0.062-0.216c-0.055-0.032-0.167-0.013-0.232,0.025c-0.209,0.122-0.441,0.234-0.605,0.407
	c-0.162,0.169-0.318,0.395-0.363,0.617C21.834,36.819,21.852,37.21,21.828,37.593z"/>
</svg>
