<?xml version="1.0" encoding="iso-8859-1"?>
<!-- Generator: Adobe Illustrator 18.1.1, SVG Export Plug-In . SVG Version: 6.00 Build 0)  -->
<svg version="1.1" id="Layer_1" xmlns="http://www.w3.org/2000/svg" xmlns:xlink="http://www.w3.org/1999/xlink" x="0px" y="0px"
	 viewBox="0 0 100 100" style="enable-background:new 0 0 100 100;" xml:space="preserve">
<g>
	<path style="fill-rule:evenodd;clip-rule:evenodd;" d="M93.016,37.919c0.26,0.332,0.771,0.534,0.846,1.096
		c0.082,0.636,0.033,1.239-0.354,1.778c-0.04,0.056-0.112,0.106-0.118,0.164c-0.13,1.187-0.936,1.828-1.902,2.312
		c-0.728,0.365-0.958,1.021-1.144,1.724c-0.222,0.838-0.452,1.674-0.658,2.517c-0.091,0.38-0.11,0.777-0.199,1.158
		c-0.206,0.872-0.431,1.738-0.657,2.604c-0.115,0.442-0.234,0.885-0.383,1.316c-0.189,0.545-0.412,1.08-0.615,1.621
		c-0.05,0.131-0.081,0.268-0.12,0.402c0.157,0.029,0.314,0.064,0.474,0.086c0.119,0.016,0.332-0.018,0.347,0.025
		c0.056,0.152,0.115,0.379,0.04,0.486c-0.172,0.252-0.422,0.451-0.642,0.669c-0.037,0.037-0.108,0.052-0.129,0.095
		c-0.459,0.893-1.312,1.357-2.067,1.93c-0.128,0.097-0.192,0.273-0.312,0.387c-0.315,0.299-0.642,0.584-1.015,0.918
		c-0.188-0.424-0.068-0.719,0.016-1.038c0.121-0.46,0.18-0.937,0.248-1.409c0.008-0.042-0.108-0.146-0.164-0.144
		c-0.112,0.008-0.282,0.036-0.32,0.111c-0.07,0.136-0.05,0.313-0.085,0.47c-0.023,0.109-0.051,0.27-0.123,0.301
		c-0.085,0.035-0.233-0.02-0.33-0.075c-0.342-0.193-0.659-0.438-1.014-0.603c-0.464-0.216-0.845-0.865-0.654-1.326
		c0.361-0.874,0.82-1.709,1.147-2.594c0.303-0.812,0.498-1.666,0.717-2.508c0.142-0.545,0.254-1.098,0.362-1.652
		c0.157-0.81,0.313-1.621,0.442-2.436c0.049-0.313-0.156-0.438-0.468-0.367c-1.141,0.261-2.268,0.179-3.385-0.143
		c-0.143-0.04-0.299-0.035-0.444-0.066c-0.633-0.131-1.148-0.46-1.605-0.913c-0.388-0.382-0.668-0.776-0.745-1.353
		c-0.039-0.295-0.349-0.572-0.578-0.82c-0.522-0.566-1.139-1.053-1.408-1.814c-0.41-1.158-0.588-2.349-0.234-3.535
		c0.321-1.079,1.013-1.933,1.953-2.571c0.819-0.556,1.674-1.037,2.647-1.278c0.811-0.201,1.638-0.365,2.426-0.638
		c0.919-0.317,1.826-0.225,2.756-0.143c0.706,0.062,1.42,0.012,2.128,0.048c0.633,0.032,1.239,0.111,1.785,0.543
		c0.407,0.321,0.951,0.463,1.417,0.718c0.75,0.41,1.287,1.041,1.75,1.748c0.087,0.132,0.256,0.252,0.407,0.289
		c0.264,0.065,0.361,0.216,0.313,0.448C93.268,36.928,93.142,37.392,93.016,37.919z M83.601,37.037
		c-0.47,0.021-1.027-0.161-1.366,0.442c-0.273,0.488-0.552,0.982-0.896,1.418c-0.246,0.31-0.415,0.59-0.261,0.972
		c0.132,0.327,0.206,0.753,0.454,0.94c0.601,0.455,1.259,0.872,1.952,1.159c0.615,0.254,1.309,0.332,1.974,0.441
		c0.13,0.022,0.348-0.138,0.433-0.272c0.315-0.488,0.195-1.196,0.784-1.554c0.036-0.021,0.026-0.106,0.052-0.153
		c0.19-0.35,0.356-0.716,0.584-1.04c0.26-0.372,0.254-0.564-0.151-0.801c-0.295-0.172-0.665-0.255-0.898-0.484
		c-0.297-0.291-0.599-0.474-1-0.569C84.711,37.405,84.177,37.213,83.601,37.037z M84.05,34.448
		c-0.908-0.131-1.579-0.148-2.679,1.058c-0.604,0.664-0.936,1.43-0.773,2.479C81.653,36.643,82.658,35.393,84.05,34.448z"/>
</g>
<path style="fill-rule:evenodd;clip-rule:evenodd;" d="M53.213,67.98c0.349,0.209,0.569,0.057,0.712-0.189
	c0.21-0.367,0.372-0.763,0.57-1.137c0.105-0.196,0.236-0.381,0.373-0.557c0.659-0.836,0.966-1.853,1.451-2.779
	c0.338-0.646,0.611-1.33,0.907-1.999c0.032-0.074,0.057-0.181,0.03-0.249c-0.222-0.563,0.071-1.008,0.31-1.475
	c0.24-0.471,0.455-0.955,0.684-1.432c0.32-0.664,0.647-1.321,0.961-1.986c0.178-0.377,0.325-0.768,0.508-1.142
	c0.209-0.432,0.461-0.845,0.655-1.282c0.171-0.387,0.265-0.807,0.433-1.195c0.396-0.917,0.644-1.875,0.834-2.849
	c0.053-0.269,0.084-0.55,0.058-0.82c-0.021-0.215-0.165-0.351-0.406-0.169c-0.374,0.282-0.763,0.547-1.132,0.833
	c-0.842,0.65-1.677,1.308-2.511,1.966c-0.501,0.394-0.985,0.805-1.493,1.187c-0.216,0.163-0.479,0.263-0.713,0.402
	c-0.352,0.208-0.693,0.437-1.051,0.632c-0.41,0.223-0.831,0.424-1.252,0.625c-0.46,0.219-0.922,0.436-1.39,0.635
	c-0.535,0.23-1.065,0.494-1.624,0.648c-1.049,0.289-2.389,0.053-3.109-0.927c-0.141-0.192-0.339-0.356-0.539-0.488
	c-0.094-0.062-0.275-0.06-0.388-0.014c-0.845,0.349-1.675,0.733-2.523,1.07c-0.39,0.154-0.797,0.172-1.22,0.027
	c-0.379-0.13-0.786-0.181-1.184-0.255c-0.812-0.148-1.319-0.671-1.769-1.324c-0.529-0.765-0.854-1.615-1.198-2.462
	c-0.037-0.089-0.087-0.177-0.151-0.245c-0.155-0.161-0.319-0.219-0.476,0.003c-0.044,0.062-0.094,0.12-0.131,0.184
	c-0.282,0.471-0.565,0.941-0.844,1.415c-0.164,0.277-0.27,0.612-0.488,0.836c-0.445,0.451-0.802,1.022-1.494,1.188
	c-0.252,0.059-0.48,0.222-0.711,0.355c-0.593,0.344-1.211,0.623-1.85,0.881c-0.987,0.398-1.976,0.469-3.006,0.325
	c-0.336-0.047-0.558,0.152-0.781,0.36c-0.429,0.402-0.896,0.727-1.508,0.804c-0.43,0.055-0.853,0.154-1.278,0.241
	c-0.393,0.082-0.65-0.02-0.854-0.408c-0.409-0.784-0.875-1.539-1.323-2.303c-0.145-0.244-0.273-0.508-0.466-0.713
	c-0.327-0.349-0.665-0.254-0.769,0.207c-0.091,0.404-0.148,0.818-0.211,1.23c-0.102,0.648-0.348,1.177-1.034,1.41
	c-0.521,0.179-1.013,0.452-1.544,0.592c-0.33,0.086-0.711,0.031-1.061-0.013c-0.39-0.05-0.768-0.187-1.158-0.236
	c-0.872-0.108-1.749-0.171-2.621-0.28c-0.59-0.073-1.219-0.094-1.753-0.32c-0.745-0.314-1.54-0.309-2.288-0.537
	c-0.577-0.175-1.102-0.439-1.564-0.84C8.557,55.174,8.206,55.02,7.92,54.79c-0.359-0.291-0.748-0.578-1.014-0.948
	c-0.328-0.46-0.579-0.986-0.793-1.514c-0.141-0.35-0.18-0.746-0.227-1.126c-0.146-1.203,0.079-2.336,0.691-3.387
	c0.247-0.422,0.483-0.851,0.75-1.261c0.118-0.184,0.287-0.338,0.445-0.493c0.451-0.45,0.892-0.911,1.366-1.335
	c0.424-0.38,0.91-0.693,1.328-1.081c0.829-0.773,1.784-1.372,2.721-2c0.556-0.373,1.061-0.824,1.638-1.161
	c0.853-0.5,1.747-0.934,2.625-1.392c0.208-0.108,0.436-0.182,0.629-0.31c0.115-0.077,0.242-0.218,0.26-0.344
	c0.076-0.546,0.071-1.108,0.178-1.647c0.155-0.789,0.367-1.568,0.583-2.345c0.121-0.44,0.278-0.874,0.454-1.296
	c0.228-0.559,0.501-1.1,0.735-1.657c0.173-0.409,0.279-0.85,0.478-1.243c0.451-0.894,0.929-1.776,1.421-2.648
	c0.321-0.569,0.653-1.137,1.041-1.663c0.299-0.405,0.691-0.741,1.041-1.108c0.21-0.221,0.387-0.491,0.636-0.651
	c0.811-0.519,1.646-0.998,2.476-1.491c0.065-0.039,0.144-0.056,0.195-0.106c0.336-0.317,0.735-0.3,1.056-0.069
	c0.325,0.236,0.441,0.637,0.433,1.057c-0.017,0.796-0.059,1.595-0.028,2.39c0.028,0.711,0.146,1.419,0.222,2.128
	c0.046,0.422-0.003,0.811-0.186,1.214c-0.14,0.309-0.108,0.69-0.178,1.034c-0.059,0.297-0.157,0.586-0.228,0.882
	c-0.072,0.3-0.115,0.608-0.202,0.905c-0.073,0.25-0.208,0.482-0.286,0.73c-0.067,0.216-0.102,0.443-0.136,0.667
	c-0.034,0.205,0.007,0.442-0.083,0.614c-0.462,0.903-0.697,1.869-0.859,2.859c-0.023,0.135-0.09,0.262-0.112,0.396
	c-0.05,0.274-0.083,0.552-0.125,0.827c-0.021,0.146-0.04,0.293-0.07,0.437c-0.086,0.396-0.212,0.788-0.251,1.187
	c-0.021,0.217,0.074,0.46,0.166,0.671c0.114,0.261,0.286,0.499,0.422,0.752c0.303,0.571,0.144,1.592-0.253,2.107
	c-0.257,0.335-0.565,0.556-0.954,0.641c-0.601,0.134-0.858,0.569-1.083,1.076c-0.274,0.624-0.168,1.221,0.077,1.812
	c0.286,0.691,0.573,1.382,0.892,2.057c0.227,0.476,0.506,0.924,0.763,1.386c0.041,0,0.081-0.001,0.121-0.002
	c0.083-0.23,0.17-0.459,0.246-0.693c0.214-0.67,0.379-1.36,0.648-2.007c0.27-0.652,0.649-1.26,0.966-1.894
	c0.187-0.371,0.292-0.794,0.526-1.127c0.647-0.915,1.055-1.979,1.902-2.776c0.718-0.675,1.48-1.258,2.322-1.758
	c0.474-0.282,0.918-0.616,1.37-0.935c0.726-0.512,1.54-0.816,2.396-1.015c0.29-0.068,0.586-0.142,0.882-0.154
	c0.545-0.022,0.833,0.215,1.068,0.705c0.195,0.406,0.279,0.813,0.274,1.262c-0.009,0.489,0.249,0.646,0.715,0.49
	c0.654-0.218,0.871-0.097,0.981,0.597c0.075,0.493,0.098,0.993,0.17,1.487c0.097,0.67,0.221,1.336,0.328,2.005
	c0.147,0.91,0.281,1.824,0.447,2.73c0.048,0.256,0.24,0.489,0.271,0.745c0.118,0.956,0.589,1.79,0.919,2.667
	c0.275,0.723,0.815,1.294,1.489,1.71c0.026,0.017,0.058,0.028,0.084,0.045c0.601,0.381,0.86,0.385,1.345-0.139
	c0.569-0.616,0.947-1.339,1.1-2.191c0.117-0.657,0.33-1.301,0.53-1.94c0.216-0.691,0.473-1.369,0.697-2.057
	c0.135-0.415,0.241-0.839,0.36-1.258c0.016-0.051,0.023-0.107,0.048-0.153c0.384-0.673,0.519-1.436,0.771-2.156
	c0.212-0.601,0.707-0.958,1.229-1.276c0.446-0.27,0.888-0.547,1.334-0.816c0.233-0.141,0.463-0.297,0.712-0.403
	c0.46-0.196,0.9,0.064,1.039,0.549c0.119,0.417,0.119,0.812-0.004,1.227c-0.076,0.253-0.053,0.534-0.12,0.79
	c-0.136,0.513-0.296,1.02-0.458,1.525c-0.258,0.799-0.516,1.599-0.793,2.391c-0.08,0.229-0.216,0.44-0.344,0.65
	c-0.465,0.764-0.965,1.508-1.396,2.292c-0.288,0.525-0.388,1.105-0.091,1.688c0.515,1.011,0.57,0.725,1.806,0.607
	c0.414-0.039,0.818-0.216,1.221-0.348c0.63-0.207,1.075-0.695,1.588-1.079c0.425-0.317,0.862-0.619,1.294-0.928
	c0.215-0.154,0.436-0.301,0.647-0.462c0.633-0.483,1.248-0.989,1.893-1.456c1.146-0.828,2.29-1.661,3.467-2.443
	c0.672-0.446,1.401-0.811,2.12-1.18c0.217-0.11,0.827,0.4,1.076,0.386c0.221-0.012,2.477,1.58,2.447,1.788
	c-0.035,0.24-0.109,0.474-0.167,0.711c-0.073,0.306-0.127,0.618-0.222,0.917c-0.165,0.517-0.349,1.03-0.536,1.538
	c-0.142,0.386-0.289,0.772-0.459,1.146c-0.213,0.475-0.437,0.946-0.683,1.405c-0.278,0.523-0.607,1.018-0.875,1.544
	c-0.233,0.452-0.39,0.942-0.626,1.393c-0.712,1.357-1.449,2.701-2.17,4.055c-0.12,0.225-0.197,0.473-0.314,0.699
	c-0.143,0.271-0.308,0.533-0.458,0.8c-0.402,0.714-0.805,1.427-1.202,2.144c-0.215,0.389-0.453,0.771-0.616,1.184
	c-0.248,0.621-0.528,1.211-0.944,1.75c-0.273,0.355-0.396,0.822-0.613,1.225c-0.291,0.541-0.628,1.059-0.912,1.605
	c-0.18,0.347-0.294,0.729-0.446,1.091c-0.508,1.208-1.019,2.417-1.53,3.623c-0.412,0.968-0.79,1.954-1.258,2.894
	c-0.174,0.348-0.527,0.642-0.863,0.867c-0.812,0.545-3.486,0.099-4.329,0.595c-0.114,0.066-0.312,0.069-0.433,0.017
	c-0.066-0.029-0.107-0.258-0.068-0.36c0.093-0.243,0.189-0.523,0.375-0.688c0.699-0.625,1.09-1.438,1.468-2.262
	c0.533-1.16,1.055-2.327,1.581-3.49c0.228-0.5,0.438-1.01,0.689-1.5C52.771,68.611,52.996,68.317,53.213,67.98z M17.474,54.232
	c0.193-0.115,0.441-0.18,0.545-0.339c0.28-0.425,0.521-0.879,0.736-1.341c0.217-0.46,0.384-0.942,0.568-1.418
	c0.237-0.609,0.575-1.173,0.691-1.839c0.103-0.588,0.035-1.138-0.112-1.694c-0.076-0.286-0.15-0.573-0.234-0.858
	c-0.058-0.202-0.073-0.447-0.199-0.595c-0.514-0.608-0.56-1.396-0.847-2.088c-0.206-0.494-0.26-1.048-0.419-1.564
	c-0.201-0.652-0.233-0.654-0.818-0.336c-0.039,0.02-0.078,0.036-0.116,0.055c-0.469,0.247-0.954,0.468-1.401,0.75
	c-0.375,0.237-0.703,0.55-1.061,0.82c-0.245,0.188-0.482,0.403-0.758,0.53c-0.447,0.205-0.859,0.435-1.21,0.791
	c-0.389,0.392-0.843,0.718-1.22,1.118c-0.327,0.344-0.628,0.727-0.865,1.136c-0.286,0.494-0.578,1.011-0.714,1.556
	c-0.2,0.792,0.197,1.477,0.671,2.085c0.657,0.845,1.546,1.409,2.504,1.835c0.796,0.356,1.635,0.617,2.465,0.891
	C16.253,53.917,16.844,54.057,17.474,54.232z M30.121,48.685c0.023,0.007,0.043,0.013,0.066,0.02c0.027,0.394,0.041,0.79,0.09,1.181
	c0.024,0.186,0.094,0.374,0.184,0.54c0.16,0.297,0.374,0.314,0.611,0.064c0.15-0.16,0.282-0.337,0.438-0.493
	c0.267-0.267,0.575-0.499,0.812-0.789c0.349-0.425,0.671-0.878,0.969-1.342c0.412-0.642,0.851-1.277,1.171-1.966
	c0.349-0.746,0.569-1.554,0.854-2.331c0.255-0.7,0.195-1.405,0.034-2.108c-0.024-0.101-0.182-0.243-0.276-0.243
	c-0.221,0.002-0.473,0.03-0.651,0.141c-0.237,0.145-0.428,0.372-0.621,0.579c-0.622,0.667-1.237,1.34-1.848,2.017
	c-0.09,0.1-0.137,0.237-0.197,0.361c-0.075,0.15-0.138,0.306-0.216,0.454c-0.216,0.413-0.479,0.806-0.647,1.238
	c-0.204,0.521-0.333,1.073-0.488,1.614C30.305,47.974,30.216,48.331,30.121,48.685z M35.145,49.108
	c-0.169,0.064-0.293,0.076-0.363,0.143c-0.503,0.496-1,1-1.492,1.508c-0.436,0.447-0.858,0.908-1.295,1.354
	c-0.295,0.3-0.283,0.542,0.066,0.788c0.149,0.104,0.301,0.206,0.462,0.288c0.333,0.168,0.653,0.238,0.938-0.112
	c0.111-0.138,0.297-0.214,0.416-0.347c0.147-0.161,0.299-0.336,0.383-0.531c0.18-0.417,0.342-0.845,0.463-1.281
	C34.88,50.357,34.99,49.781,35.145,49.108z M22.587,37.008c-0.01,0.001-0.02,0.001-0.028,0.002c0.021,0.167-0.003,0.361,0.074,0.494
	c0.074,0.122,0.25,0.227,0.393,0.25c0.092,0.014,0.275-0.122,0.301-0.22c0.218-0.83,0.412-1.667,0.604-2.504
	c0.016-0.067-0.014-0.188-0.062-0.216c-0.055-0.033-0.168-0.013-0.233,0.025c-0.209,0.124-0.44,0.235-0.604,0.407
	c-0.163,0.17-0.319,0.395-0.363,0.617C22.593,36.236,22.608,36.626,22.587,37.008z"/>
</svg>
